<svg width="476" height="437" viewBox="0 0 476 437" fill="none" xmlns="http://www.w3.org/2000/svg">
<path d="M461.251 414.737L452.869 406.454C459.846 396.346 456.838 388.901 450.847 382.047C447.236 377.918 437.794 378.547 426.194 380.038L362.096 316.717L352.235 320.415C352.235 320.415 378.91 352.895 403.896 382.762C393.517 383.687 383.076 383.699 374.423 380.815C348.537 372.186 327.582 353.696 327.582 353.696C297.998 356.162 342.374 404.235 359.631 417.794C394.145 444.913 412.487 439.982 436.992 421.714C441.393 426.743 444.573 430.207 445.917 431.354L446.176 431.575C457.22 440.746 471.457 424.833 461.251 414.737Z" fill="#92E3A9"/>
<path opacity="0.5" d="M461.251 414.737L452.869 406.454C459.846 396.346 456.838 388.901 450.847 382.047C447.236 377.918 437.794 378.547 426.194 380.038L362.096 316.717L352.235 320.415C352.235 320.415 378.91 352.895 403.896 382.762C393.517 383.687 383.076 383.699 374.423 380.815C348.537 372.186 327.582 353.696 327.582 353.696C297.999 356.162 341.437 405.529 359.631 417.794C400.309 445.184 412.487 439.982 436.992 421.714C441.393 426.743 444.573 430.207 445.917 431.354L446.176 431.575C457.22 440.746 471.457 424.833 461.251 414.737Z" fill="white"/>
<path d="M69.6005 191.368C69.6005 191.368 102.019 228.841 102.192 275.263C102.364 321.684 70.2415 359.465 70.2415 359.465C70.2415 359.465 37.8227 321.993 37.6501 275.583C37.4776 229.174 69.6005 191.368 69.6005 191.368Z" fill="#92E3A9"/>
<path d="M140.835 297.549C140.835 297.549 141.033 328.057 124.651 347.447C108.269 366.836 81.5079 367.773 81.5079 367.773C81.5079 367.773 81.2983 337.265 97.6926 317.876C114.087 298.486 140.835 297.549 140.835 297.549Z" fill="#92E3A9"/>
<path d="M0.0295998 294.726C0.0295998 294.726 -1.32632 325.198 14.316 345.364C29.9584 365.53 56.67 367.773 56.67 367.773C56.67 367.773 58.0136 337.302 42.3712 317.136C26.7288 296.97 0.0295998 294.726 0.0295998 294.726Z" fill="#92E3A9"/>
<g opacity="0.5">
<path opacity="0.5" d="M69.6005 191.368C69.6005 191.368 102.019 228.841 102.192 275.263C102.364 321.684 70.2415 359.465 70.2415 359.465C70.2415 359.465 37.8227 321.993 37.6501 275.583C37.4776 229.174 69.6005 191.368 69.6005 191.368Z" fill="white"/>
<path opacity="0.5" d="M140.835 297.549C140.835 297.549 141.033 328.057 124.651 347.447C108.269 366.836 81.5079 367.773 81.5079 367.773C81.5079 367.773 81.2983 337.265 97.6926 317.876C114.087 298.486 140.835 297.549 140.835 297.549Z" fill="white"/>
<path opacity="0.5" d="M0.0295998 294.726C0.0295998 294.726 -1.32632 325.198 14.316 345.364C29.9584 365.53 56.67 367.773 56.67 367.773C56.67 367.773 58.0136 337.302 42.3712 317.136C26.7288 296.97 0.0295998 294.726 0.0295998 294.726Z" fill="white"/>
</g>
<path d="M49.7055 316.581C49.7629 316.474 49.845 316.382 49.945 316.313C50.045 316.244 50.1601 316.2 50.2806 316.184C50.4011 316.169 50.5237 316.182 50.638 316.223C50.7524 316.264 50.8553 316.332 50.9381 316.421L67.9734 331.644C68.1053 331.747 68.2646 331.809 68.4314 331.821C68.5981 331.834 68.765 331.798 68.911 331.716C69.057 331.634 69.1758 331.512 69.2524 331.363C69.3289 331.214 69.36 331.046 69.3416 330.88L69.1567 295.762C69.1551 295.496 69.0539 295.241 68.8732 295.047L43.2957 269.272C43.1244 269.092 43.0229 268.856 43.0093 268.608C42.9958 268.359 43.0711 268.114 43.2217 267.916V267.916C43.2874 267.816 43.3752 267.733 43.4784 267.672C43.5816 267.612 43.6974 267.576 43.8167 267.568C43.936 267.559 44.0556 267.579 44.1662 267.624C44.2768 267.67 44.3755 267.74 44.4544 267.83L67.7885 291.349C67.9124 291.47 68.0711 291.548 68.2421 291.574C68.4132 291.6 68.588 291.571 68.7419 291.492C68.8958 291.413 69.021 291.288 69.0999 291.134C69.1787 290.98 69.2072 290.805 69.1814 290.634L69.0335 251.99C69.0369 251.724 68.935 251.467 68.75 251.275L51.7763 234.585C51.6032 234.406 51.4994 234.172 51.4836 233.923C51.4678 233.675 51.541 233.429 51.6901 233.229V233.229C51.7547 233.129 51.8417 233.044 51.9444 232.982C52.047 232.921 52.1626 232.884 52.2819 232.874C52.4013 232.865 52.5212 232.883 52.6324 232.927C52.7435 232.972 52.8429 233.041 52.9227 233.131L67.5789 247.688C68.1213 248.231 68.9718 247.787 68.9718 246.961L68.7253 192.33C68.7117 192.092 68.7918 191.858 68.9484 191.678C69.1051 191.499 69.3259 191.387 69.5635 191.368V191.368C69.6817 191.375 69.7976 191.404 69.9043 191.455C70.0111 191.507 70.1068 191.578 70.1858 191.667C70.2648 191.755 70.3256 191.858 70.3648 191.969C70.404 192.081 70.4207 192.199 70.414 192.318L70.7222 273.204C70.7011 273.393 70.7444 273.583 70.8452 273.743C70.9459 273.904 71.0981 274.025 71.2769 274.088C71.4557 274.151 71.6505 274.152 71.8296 274.09C72.0087 274.028 72.1615 273.907 72.263 273.747L91.2459 242.104C91.3006 242.005 91.3762 241.918 91.4674 241.851C91.5587 241.783 91.6636 241.736 91.7748 241.712C91.886 241.689 92.0009 241.69 92.1117 241.715C92.2226 241.74 92.3266 241.789 92.4169 241.858C92.6048 242.018 92.7301 242.239 92.7707 242.483C92.8113 242.727 92.7646 242.977 92.6387 243.189L70.8824 279.441L70.7469 279.331L70.8701 312.477C70.8488 312.648 70.8808 312.821 70.9616 312.973C71.0424 313.125 71.1682 313.249 71.3218 313.327C71.4754 313.405 71.6494 313.434 71.82 313.41C71.9906 313.386 72.1496 313.309 72.2753 313.191L95.4245 289.475C95.5012 289.382 95.5986 289.309 95.709 289.261C95.8194 289.213 95.9395 289.192 96.0597 289.199C96.1798 289.206 96.2966 289.242 96.4004 289.302C96.5042 289.363 96.5922 289.448 96.6572 289.549V289.549C96.8079 289.747 96.8832 289.992 96.8696 290.241C96.8561 290.489 96.7546 290.725 96.5832 290.905L70.9318 317.198L71.092 358.516C71.1004 358.634 71.0853 358.753 71.0477 358.865C71.01 358.978 70.9506 359.082 70.8727 359.171C70.7948 359.26 70.7 359.333 70.5938 359.386C70.4876 359.439 70.3721 359.47 70.2538 359.478V359.478C70.135 359.473 70.0184 359.444 69.9108 359.394C69.8033 359.343 69.707 359.272 69.6276 359.183C69.5483 359.094 69.4876 358.991 69.449 358.878C69.4105 358.766 69.3949 358.647 69.4033 358.528L69.317 335.798C69.3189 335.658 69.2913 335.518 69.2361 335.389C69.1809 335.259 69.0993 335.142 68.9965 335.046L49.8534 317.95C49.6677 317.778 49.5505 317.545 49.5233 317.293C49.4961 317.042 49.5608 316.789 49.7055 316.581V316.581Z" fill="white"/>
<path d="M0.929441 296.736C1.00837 296.646 1.10698 296.575 1.2176 296.53C1.32821 296.484 1.44784 296.465 1.56714 296.473C1.68645 296.482 1.80222 296.518 1.90541 296.578C2.00861 296.638 2.09646 296.722 2.16209 296.822L27.8752 329.536C28.4176 330.239 29.4407 329.721 29.3297 328.785L27.2219 309.703C27.1784 309.465 27.2302 309.219 27.3662 309.018C27.5022 308.818 27.7116 308.678 27.9492 308.631V308.631C28.0655 308.621 28.1827 308.634 28.2936 308.671C28.4045 308.707 28.5068 308.766 28.5944 308.843C28.682 308.92 28.753 309.014 28.8031 309.12C28.8532 309.225 28.8814 309.34 28.886 309.457L31.6471 334.319L41.607 347.102C41.715 347.235 41.8618 347.331 42.027 347.377C42.1921 347.423 42.3674 347.416 42.5287 347.358C42.6899 347.3 42.8289 347.193 42.9266 347.052C43.0243 346.911 43.0757 346.743 43.0738 346.572L44.8858 328.329C44.8905 328.211 44.9186 328.095 44.9685 327.989C45.0183 327.882 45.0888 327.786 45.176 327.707C45.2632 327.628 45.3653 327.567 45.4763 327.527C45.5873 327.488 45.705 327.471 45.8226 327.478V327.478C46.06 327.523 46.2702 327.659 46.4085 327.857C46.5467 328.055 46.6019 328.3 46.5622 328.538L44.4051 350.183C44.3755 350.452 44.4505 350.721 44.6146 350.935L58.0382 368.032C58.1882 368.23 58.2641 368.474 58.2529 368.721C58.2416 368.969 58.1438 369.205 57.9766 369.388V369.388C57.8985 369.479 57.8007 369.55 57.6906 369.596C57.5805 369.643 57.4612 369.663 57.3419 369.656C57.2227 369.649 57.1067 369.614 57.0029 369.555C56.8992 369.496 56.8106 369.413 56.7439 369.314L49.4959 360.082C49.4176 359.977 49.3149 359.893 49.1968 359.837C49.0786 359.781 48.9485 359.755 48.818 359.761L35.4437 360.686C35.3255 360.686 35.2085 360.662 35.0993 360.617C34.9902 360.572 34.891 360.506 34.8074 360.422C34.7239 360.338 34.6576 360.239 34.6124 360.13C34.5671 360.021 34.5439 359.904 34.5439 359.786V359.786C34.5192 359.545 34.5888 359.303 34.7382 359.113C34.8876 358.922 35.1051 358.796 35.3451 358.763L46.0568 358.023C46.2243 357.991 46.3805 357.916 46.5102 357.805C46.64 357.695 46.7389 357.552 46.7973 357.392C46.8556 357.232 46.8715 357.059 46.8432 356.891C46.815 356.723 46.7437 356.565 46.6362 356.433L35.8998 342.763C35.8251 342.667 35.7298 342.59 35.6209 342.536C35.512 342.483 35.3924 342.455 35.2711 342.455H16.1404C15.9027 342.436 15.6819 342.325 15.5253 342.145C15.3686 341.965 15.2885 341.731 15.3022 341.493V341.493C15.2938 341.375 15.3089 341.256 15.3465 341.144C15.3841 341.031 15.4436 340.928 15.5215 340.838C15.5994 340.749 15.6941 340.676 15.8003 340.623C15.9065 340.571 16.0221 340.54 16.1404 340.532H32.2635C32.449 340.525 32.629 340.467 32.7827 340.363C32.9364 340.258 33.0576 340.113 33.1323 339.943C33.207 339.773 33.2322 339.585 33.205 339.402C33.1777 339.218 33.0992 339.046 32.9784 338.905L21.1449 323.829C21.0703 323.73 20.9735 323.649 20.8623 323.593C20.751 323.538 20.6283 323.509 20.504 323.509L8.17744 323.681C8.05921 323.675 7.94339 323.646 7.83661 323.594C7.72983 323.543 7.63419 323.472 7.55518 323.383C7.47617 323.295 7.41533 323.192 7.37616 323.081C7.33699 322.969 7.32025 322.85 7.3269 322.732V322.732C7.31678 322.614 7.33015 322.495 7.36625 322.382C7.40234 322.269 7.46044 322.164 7.5372 322.073C7.61396 321.983 7.70787 321.909 7.81352 321.854C7.91917 321.8 8.03447 321.768 8.15278 321.758L17.5209 321.635C17.6937 321.61 17.8565 321.539 17.9928 321.429C18.129 321.32 18.2339 321.177 18.2965 321.014C18.3592 320.851 18.3775 320.674 18.3495 320.502C18.3215 320.329 18.2483 320.168 18.1373 320.033L0.929441 298.092C0.771039 297.901 0.684311 297.661 0.684311 297.414C0.684311 297.166 0.771039 296.926 0.929441 296.736V296.736Z" fill="white"/>
<path d="M88.1642 340.482C88.2808 340.474 88.3979 340.489 88.5088 340.526C88.6197 340.563 88.7222 340.621 88.8104 340.698C88.8986 340.775 88.9708 340.868 89.0228 340.973C89.0748 341.078 89.1055 341.192 89.1133 341.308L90.5556 353.425C90.557 353.592 90.609 353.754 90.7045 353.891C90.8 354.028 90.9346 354.132 91.0907 354.191C91.2468 354.25 91.4169 354.26 91.5788 354.22C91.7407 354.18 91.8868 354.092 91.9978 353.968L103.153 340.766C103.32 340.557 103.399 340.292 103.375 340.026L102.007 318.282C101.975 318.044 102.039 317.803 102.185 317.611C102.33 317.419 102.545 317.293 102.783 317.259V317.259C102.9 317.256 103.017 317.276 103.126 317.319C103.235 317.361 103.334 317.425 103.418 317.507C103.502 317.588 103.569 317.686 103.614 317.794C103.66 317.902 103.683 318.017 103.683 318.134L104.916 336.464C104.911 336.635 104.958 336.803 105.052 336.946C105.145 337.089 105.28 337.2 105.438 337.264C105.596 337.329 105.77 337.343 105.937 337.306C106.104 337.269 106.255 337.181 106.37 337.056L118.697 322.473C118.863 322.259 118.947 321.992 118.931 321.721L117.859 307.768C117.83 307.529 117.892 307.288 118.034 307.093C118.176 306.899 118.387 306.765 118.623 306.72V306.72C118.741 306.717 118.858 306.737 118.967 306.779C119.077 306.822 119.177 306.885 119.262 306.967C119.347 307.048 119.415 307.146 119.462 307.254C119.509 307.361 119.534 307.478 119.535 307.595L120.349 318.221C120.343 318.391 120.389 318.558 120.482 318.701C120.574 318.843 120.708 318.954 120.866 319.017C121.024 319.081 121.197 319.094 121.363 319.055C121.528 319.016 121.678 318.927 121.791 318.8L139.726 297.574C139.799 297.479 139.892 297.403 139.999 297.35C140.106 297.297 140.223 297.27 140.342 297.27C140.462 297.27 140.579 297.297 140.686 297.35C140.793 297.403 140.886 297.479 140.959 297.574V297.574C141.117 297.764 141.204 298.004 141.204 298.252C141.204 298.499 141.117 298.739 140.959 298.93L114.235 330.572C113.655 331.25 114.235 332.359 114.999 332.174L131.554 328.341C131.668 328.322 131.785 328.326 131.898 328.354C132.011 328.382 132.117 328.433 132.209 328.503C132.302 328.574 132.379 328.662 132.436 328.764C132.492 328.865 132.528 328.977 132.54 329.093V329.093C132.594 329.329 132.557 329.578 132.436 329.788C132.315 329.998 132.118 330.155 131.886 330.227L110.229 335.207L99.7881 347.533C99.6712 347.665 99.5918 347.826 99.5582 347.999C99.5246 348.173 99.5381 348.352 99.5973 348.518C99.6565 348.684 99.7592 348.831 99.8946 348.944C100.03 349.057 100.193 349.132 100.367 349.16L116.466 349.863C116.584 349.874 116.699 349.908 116.804 349.963C116.91 350.019 117.003 350.095 117.078 350.186C117.154 350.278 117.211 350.384 117.245 350.498C117.28 350.611 117.291 350.731 117.279 350.849V350.849C117.284 350.967 117.266 351.085 117.224 351.195C117.182 351.306 117.118 351.407 117.037 351.492C116.955 351.577 116.857 351.645 116.748 351.691C116.639 351.737 116.522 351.761 116.404 351.761L97.2982 350.935C97.1757 350.931 97.054 350.956 96.9427 351.008C96.8315 351.059 96.7337 351.135 96.6572 351.231L82.7036 367.749C82.6311 367.843 82.5378 367.92 82.4309 367.973C82.324 368.025 82.2064 368.053 82.0872 368.053C81.9681 368.053 81.8505 368.025 81.7436 367.973C81.6367 367.92 81.5434 367.843 81.4709 367.749V367.749C81.3125 367.558 81.2258 367.318 81.2258 367.071C81.2258 366.823 81.3125 366.583 81.4709 366.393L89.0148 357.468C89.1028 357.359 89.1679 357.232 89.206 357.097C89.2441 356.961 89.2545 356.819 89.2366 356.679L87.4369 341.543C87.4031 341.307 87.4591 341.067 87.5938 340.871C87.7285 340.674 87.9321 340.536 88.1642 340.482V340.482Z" fill="white"/>
<path d="M395.625 314.782L212.514 366.319C210.538 366.805 208.458 366.649 206.576 365.873C204.694 365.097 203.109 363.742 202.049 362.004L63.1907 112.097C62.7198 111.354 62.4361 110.508 62.3639 109.632C62.2917 108.755 62.4331 107.875 62.7762 107.065C63.1192 106.255 63.6535 105.541 64.3333 104.983C65.0131 104.425 65.818 104.041 66.6791 103.862L249.79 52.3253C251.763 51.8369 253.841 51.9907 255.721 52.7644C257.6 53.5381 259.185 54.8913 260.242 56.6273L399.076 306.535C399.547 307.276 399.831 308.12 399.905 308.995C399.98 309.87 399.841 310.749 399.502 311.559C399.163 312.369 398.634 313.085 397.959 313.646C397.284 314.207 396.483 314.597 395.625 314.782Z" fill="#263238" stroke="black" stroke-miterlimit="10"/>
<path d="M209.938 355.361C209.938 355.361 315.749 330.19 386.971 305.524L209.938 355.361Z" fill="#884849"/>
<path d="M386.971 305.524L209.938 355.36L73.0026 108.929L250.036 59.1049L386.971 305.524Z" fill="white" stroke="#263238" stroke-miterlimit="10"/>
<path d="M197.599 111.295L211.343 107.425" stroke="#263238" stroke-miterlimit="10"/>
<path d="M102.266 138.13L186.961 114.291" stroke="#263238" stroke-miterlimit="10"/>
<path d="M182.524 126.605L216.668 116.99" stroke="#263238" stroke-miterlimit="10"/>
<path d="M130.198 141.335L173.205 129.23" stroke="#263238" stroke-miterlimit="10"/>
<path d="M107.578 147.696L122.21 143.579" stroke="#263238" stroke-miterlimit="10"/>
<path d="M155.467 145.292L221.993 126.568" stroke="#263238" stroke-miterlimit="10"/>
<path d="M112.904 157.273L140.835 149.409" stroke="#263238" stroke-miterlimit="10"/>
<path d="M259.244 104.084C257.493 101.222 254.878 98.9897 251.777 97.7092C248.675 96.4287 245.247 96.1662 241.987 96.9596C235.614 98.7593 233.038 104.849 236.218 110.58C237.965 113.447 240.579 115.683 243.682 116.964C246.785 118.245 250.215 118.504 253.475 117.705C259.786 115.918 262.424 109.816 259.244 104.084Z" fill="white" stroke="#263238" stroke-miterlimit="10"/>
<path d="M139.726 176.934L125.982 180.805" stroke="#263238" stroke-miterlimit="10"/>
<path d="M235.059 150.099L150.364 173.939" stroke="#263238" stroke-miterlimit="10"/>
<path d="M165.439 180.768L131.295 190.382" stroke="#263238" stroke-miterlimit="10"/>
<path d="M217.765 166.037L174.758 178.142" stroke="#263238" stroke-miterlimit="10"/>
<path d="M240.384 159.677L225.753 163.794" stroke="#263238" stroke-miterlimit="10"/>
<path d="M203.134 181.224L136.62 199.948" stroke="#263238" stroke-miterlimit="10"/>
<path d="M245.709 169.242L217.765 177.107" stroke="#263238" stroke-miterlimit="10"/>
<path d="M282.96 146.771C281.213 143.905 278.599 141.669 275.496 140.388C272.394 139.107 268.963 138.847 265.703 139.646C259.33 141.434 256.754 147.535 259.934 153.206C261.68 156.073 264.294 158.31 267.397 159.592C270.5 160.873 273.931 161.132 277.191 160.33C283.552 158.592 286.14 152.491 282.96 146.771Z" fill="white" stroke="#263238" stroke-miterlimit="10"/>
<path d="M245.031 196.644L258.776 192.774" stroke="#263238" stroke-miterlimit="10"/>
<path d="M149.698 223.479L234.394 199.64" stroke="#263238" stroke-miterlimit="10"/>
<path d="M229.956 211.966L264.101 202.351" stroke="#263238" stroke-miterlimit="10"/>
<path d="M177.63 226.696L220.637 214.579" stroke="#263238" stroke-miterlimit="10"/>
<path d="M155.011 233.057L169.642 228.94" stroke="#263238" stroke-miterlimit="10"/>
<path d="M202.899 230.641L269.413 211.929" stroke="#263238" stroke-miterlimit="10"/>
<path d="M160.336 242.634L188.268 234.77" stroke="#263238" stroke-miterlimit="10"/>
<path d="M307.44 197.518C309.552 192.145 305.753 185.623 298.955 182.951C292.157 180.279 284.933 182.468 282.821 187.84C280.709 193.213 284.508 199.735 291.307 202.407C298.105 205.08 305.328 202.891 307.44 197.518Z" fill="white" stroke="#263238" stroke-miterlimit="10"/>
<path d="M187.159 262.295L173.414 266.166" stroke="#263238" stroke-miterlimit="10"/>
<path d="M282.492 235.46L197.796 259.3" stroke="#263238" stroke-miterlimit="10"/>
<path d="M212.872 266.129L178.727 275.731" stroke="#263238" stroke-miterlimit="10"/>
<path d="M265.198 251.399L222.19 263.503" stroke="#263238" stroke-miterlimit="10"/>
<path d="M287.817 245.026L273.185 249.143" stroke="#263238" stroke-miterlimit="10"/>
<path d="M250.566 266.585L184.052 285.309" stroke="#263238" stroke-miterlimit="10"/>
<path d="M293.13 254.604L265.198 262.468" stroke="#263238" stroke-miterlimit="10"/>
<path d="M330.38 232.12C328.632 229.255 326.018 227.02 322.915 225.739C319.813 224.458 316.383 224.198 313.123 224.995C306.75 226.795 304.174 232.884 307.354 238.616C309.101 241.483 311.716 243.718 314.818 244.999C317.921 246.28 321.351 246.54 324.612 245.741C330.984 243.99 333.573 237.827 330.38 232.12Z" fill="white" stroke="#263238" stroke-miterlimit="10"/>
<path d="M292.464 282.005L306.208 278.135" stroke="#263238" stroke-miterlimit="10"/>
<path d="M197.131 308.84L281.826 285.001" stroke="#263238" stroke-miterlimit="10"/>
<path d="M277.389 297.315L311.533 287.713" stroke="#263238" stroke-miterlimit="10"/>
<path d="M225.063 312.045L268.07 299.94" stroke="#263238" stroke-miterlimit="10"/>
<path d="M202.443 318.418L217.075 314.289" stroke="#263238" stroke-miterlimit="10"/>
<path d="M250.332 316.002L316.846 297.278" stroke="#263238" stroke-miterlimit="10"/>
<path d="M207.768 327.983L235.7 320.119" stroke="#263238" stroke-miterlimit="10"/>
<path d="M354.869 282.871C356.981 277.498 353.182 270.976 346.384 268.303C339.586 265.631 332.362 267.82 330.25 273.193C328.138 278.566 331.937 285.088 338.735 287.76C345.534 290.432 352.757 288.243 354.869 282.871Z" fill="white" stroke="#263238" stroke-miterlimit="10"/>
<path d="M190.105 63.2836L166.832 69.829C165.069 69.9029 163.134 69.7673 162.592 68.8675C161.359 66.5501 162.937 64.3806 163.43 62.3344C164.001 59.9759 163.634 57.4881 162.407 55.3946C160.61 52.4497 157.923 50.1536 154.733 48.8393C151.544 47.5249 148.019 47.2607 144.669 48.085C138.136 49.9339 135.498 56.1835 138.752 62.0509C140.349 64.7611 142.742 66.9132 145.606 68.2142C145.606 68.2142 150.327 70.322 151.276 72.0231C151.781 72.9229 150.462 73.983 149.119 74.7842L124.034 81.8473C123.089 82.0462 122.205 82.4709 121.459 83.0852C120.713 83.6996 120.126 84.4853 119.75 85.3754C119.373 86.2655 119.217 87.2335 119.296 88.1967C119.375 89.16 119.685 90.09 120.201 90.9073L123.591 96.9966L205.032 74.0816L201.642 67.98C200.47 66.0699 198.719 64.5841 196.644 63.7393C194.568 62.8944 192.277 62.7348 190.105 63.2836V63.2836ZM148.65 55.3206C149.724 55.0548 150.854 55.1386 151.876 55.5599C152.898 55.9812 153.759 56.7179 154.333 57.6627C154.588 58.0657 154.742 58.5246 154.78 59C154.819 59.4754 154.742 59.953 154.555 60.3919C154.368 60.8309 154.078 61.2179 153.708 61.5197C153.339 61.8216 152.902 62.0292 152.435 62.1249C151.365 62.391 150.238 62.3085 149.218 61.8895C148.198 61.4704 147.338 60.7367 146.764 59.7952C146.51 59.392 146.356 58.9333 146.317 58.458C146.278 57.9827 146.354 57.5049 146.539 57.0654C146.724 56.6259 147.013 56.2378 147.381 55.9339C147.748 55.6301 148.184 55.4197 148.65 55.3206V55.3206Z" fill="#92E3A9" stroke="#263238" stroke-miterlimit="10"/>
<path d="M240.323 104.799L250.369 111.813L260.723 88.6022" stroke="#92E3A9" stroke-width="6" stroke-linecap="round" stroke-linejoin="round"/>
<path d="M263.669 146.82L273.715 153.822L284.07 130.623" stroke="#92E3A9" stroke-width="6" stroke-linecap="round" stroke-linejoin="round"/>
<path d="M428.438 141.076C428.438 141.076 431.113 135.381 429.436 131.018C427.76 126.654 396.907 119.616 396.907 119.616C396.907 119.616 389.868 119.616 390.201 123.647C390.534 127.677 416.025 143.098 418.034 144.429C420.043 145.76 427.76 148.793 428.438 141.076Z" fill="white" stroke="#263238" stroke-linecap="round" stroke-linejoin="round"/>
<path d="M399.458 113.983C397.558 113.279 395.694 112.481 393.874 111.591C391.212 110.26 394.133 116.386 395.205 116.645C396.278 116.904 398.903 117.446 398.903 117.446L399.458 113.983Z" fill="white" stroke="#263238" stroke-linecap="round" stroke-linejoin="round"/>
<path d="M307.379 173.606L291.959 192.379L293.29 195.066L315.095 189.754L468.573 100.411C470.105 99.5144 471.443 98.32 472.506 96.8983C473.569 95.4766 474.337 93.8564 474.765 92.1332C475.192 90.41 475.27 88.6186 474.994 86.8648C474.718 85.1109 474.094 83.4301 473.158 81.9213V81.9213C472.224 80.427 471.001 79.1336 469.561 78.1164C468.121 77.0993 466.494 76.3787 464.773 75.9967C463.052 75.6147 461.273 75.5789 459.538 75.8913C457.803 76.2037 456.148 76.8582 454.669 77.8166L307.379 173.606Z" fill="#92E3A9" stroke="#263238" stroke-linecap="round" stroke-linejoin="round"/>
<path d="M384.494 138.808L379.489 142.038" stroke="#263238" stroke-linecap="round" stroke-linejoin="round"/>
<path d="M427.575 111.098L390.608 134.888" stroke="#263238" stroke-linecap="round" stroke-linejoin="round"/>
<path d="M293.388 191.985C293.388 191.985 289.555 193.587 290.147 195.202C290.738 196.817 296.236 192.909 296.236 192.909L293.388 191.985Z" fill="#92E3A9" stroke="#263238" stroke-linecap="round" stroke-linejoin="round"/>
<path d="M291.959 192.379L293.29 195.066L315.095 189.754C303.015 185.057 307.379 173.655 307.379 173.655L291.959 192.379Z" fill="white" stroke="#263238" stroke-linecap="round" stroke-linejoin="round"/>
<path d="M473.158 81.835C472.223 80.3407 471.001 79.0473 469.561 78.0301C468.121 77.013 466.494 76.2924 464.773 75.9104C463.052 75.5284 461.273 75.4926 459.538 75.805C457.803 76.1174 456.148 76.7719 454.669 77.7303L427.895 95.16C427.174 96.9975 426.806 98.9547 426.811 100.929C426.735 104.886 428.228 108.713 430.965 111.573C433.702 114.432 437.46 116.092 441.418 116.189L468.622 100.362C470.156 99.461 471.493 98.262 472.555 96.8355C473.616 95.409 474.381 93.784 474.804 92.0567C475.227 90.3294 475.3 88.5348 475.017 86.7791C474.734 85.0234 474.102 83.3422 473.158 81.835V81.835Z" fill="white" stroke="#263238" stroke-linecap="round" stroke-linejoin="round"/>
<path d="M473.158 81.835C472.224 80.3407 471.001 79.0473 469.561 78.0301C468.121 77.013 466.494 76.2924 464.773 75.9104C463.052 75.5284 461.273 75.4926 459.538 75.805C457.803 76.1174 456.148 76.7719 454.669 77.7303L434.33 90.9813C433.346 93.0099 432.836 95.2353 432.838 97.4897C432.812 99.4084 433.165 101.313 433.876 103.096C434.587 104.878 435.642 106.502 436.982 107.876C438.321 109.25 439.919 110.347 441.682 111.102C443.446 111.858 445.342 112.259 447.26 112.281C447.593 112.281 447.938 112.281 448.259 112.281L468.622 100.436C470.166 99.5352 471.512 98.3328 472.581 96.9004C473.649 95.4681 474.418 93.835 474.841 92.0989C475.265 90.3627 475.334 88.5591 475.045 86.7956C474.756 85.0321 474.114 83.345 473.158 81.835V81.835Z" fill="#263238" stroke="#263238" stroke-linecap="round" stroke-linejoin="round"/>
<path d="M382.435 120.109C382.435 120.109 379.452 120.109 379.452 121.465C379.452 122.821 378.663 127.628 380.389 127.492C382.115 127.357 381.967 124.337 382.115 123.277C382.263 122.217 382.435 120.109 382.435 120.109Z" fill="white" stroke="#263238" stroke-linecap="round" stroke-linejoin="round"/>
<path d="M385.689 115.203C385.689 115.203 383.027 114.377 382.411 116.016C381.794 117.656 381.178 125.446 383.027 125.237C384.876 125.027 385.283 118.075 385.689 115.203Z" fill="white" stroke="#263238" stroke-linecap="round" stroke-linejoin="round"/>
<path d="M389.794 115.61C389.794 115.61 386.713 112.947 385.689 115.203C384.666 117.459 384.457 123.831 385.689 123.831C386.922 123.831 388.771 121.169 389.178 119.739C389.485 118.38 389.691 116.999 389.794 115.61Z" fill="white" stroke="#263238" stroke-linecap="round" stroke-linejoin="round"/>
<path d="M394.145 116.842C394.145 116.842 390.25 113.563 389.634 114.18C389.018 114.796 386.552 121.107 388.401 122.377C390.25 123.647 392.592 117.976 392.592 117.976L394.145 116.842Z" fill="white" stroke="#263238" stroke-linecap="round" stroke-linejoin="round"/>
<path d="M337.85 136.294C337.85 136.294 338.282 142.864 340.032 144.404C341.09 145.321 342.045 146.35 342.879 147.474C343.121 149.145 343.269 150.828 343.323 152.515C343.323 154.487 344.642 154.266 345.788 154.266C346.935 154.266 348.858 157.964 349.955 159.739C352.045 162.321 354.543 164.544 357.351 166.321C359.323 167.418 362.614 163.252 362.614 163.252L364.143 167.64L379.711 157.557L372.044 142.642C371.591 137.471 370.018 132.462 367.434 127.961C363.046 120.072 357.129 115.634 347.268 118.531C337.406 121.428 337.85 136.294 337.85 136.294Z" fill="white" stroke="#263238" stroke-linecap="round" stroke-linejoin="round"/>
<path d="M355.859 107.08C352.183 107.241 348.553 107.968 345.098 109.237C339.342 111.271 337.924 119.283 332.907 122.155C327.89 125.027 330.035 119.69 327.521 121.07C325.006 122.451 322.504 135.061 327.878 138.648C333.252 142.235 341.154 137.576 341.154 137.576C341.154 137.576 340.439 140.041 342.584 140.805C343.882 141.236 345.203 141.594 346.54 141.877C346.54 141.877 346.171 146.192 349.4 145.822C352.63 145.452 349.77 140.448 349.77 140.448C349.77 140.448 355.872 152.281 360.543 153.723C365.215 155.165 372.019 148.694 373.807 145.822C375.594 142.95 374.164 122.513 370.22 114.624C366.275 106.735 355.859 107.08 355.859 107.08Z" fill="#263238" stroke="#263238" stroke-linecap="round" stroke-linejoin="round"/>
<path d="M349.905 148.127C349.905 148.127 347.711 139.794 351.212 140.891C354.713 141.988 356.697 149.446 356.476 150.321C356.254 151.196 354.503 151.628 353.628 151.418" fill="white"/>
<path d="M349.905 148.127C349.905 148.127 347.711 139.794 351.212 140.891C354.713 141.988 356.697 149.446 356.476 150.321C356.254 151.196 354.503 151.628 353.628 151.418" stroke="#263238" stroke-linecap="round" stroke-linejoin="round"/>
<path d="M375.237 151.147C371.149 153.444 367.243 156.048 363.551 158.937C359.853 162.229 356.537 172.09 356.537 172.09C356.537 172.09 379.119 156.743 383.064 154.561C387.008 152.38 387.884 151.27 387.884 151.27C387.884 151.27 379.625 150.05 375.237 151.147Z" fill="white" stroke="#263238" stroke-linecap="round" stroke-linejoin="round"/>
<path d="M405.634 137.723C406.588 136.034 407.886 134.564 409.445 133.409C411.003 132.254 412.788 131.439 414.681 131.018C421.054 129.674 429.473 134.038 430.447 141.076C431.421 148.115 426.083 151.48 422.731 151.48C419.378 151.48 416.358 146.783 416.358 146.783C416.358 146.783 405.634 142.753 405.634 137.723Z" fill="white" stroke="#263238" stroke-linecap="round" stroke-linejoin="round"/>
<path d="M315.761 212.508L326.497 183.997C325.297 185.071 323.744 185.668 322.134 185.674C319.447 185.674 313.086 184.675 314.738 183.664C316.39 182.654 322.775 178.302 322.775 178.302C322.775 178.302 318.091 179.313 316.747 178.302C315.404 177.292 314.738 175.948 315.736 175.615C316.735 175.282 318.756 175.615 322.442 174.272C326.128 172.928 327.804 171.597 330.824 171.597C333.844 171.597 336.531 176.959 336.531 178.635C336.531 180.312 334.177 212.163 334.177 213.507C334.177 214.851 334.177 216.194 325.462 217.205C316.747 218.216 315.428 216.194 315.761 212.508Z" fill="white" stroke="#263238" stroke-linecap="round" stroke-linejoin="round"/>
<path d="M326.497 183.997L328.088 177.735" stroke="#263238" stroke-linecap="round" stroke-linejoin="round"/>
<path d="M326.152 205.458C326.152 205.458 315.428 208.478 313.419 213.174C311.41 217.871 311.743 224.909 315.761 228.94C319.78 232.971 321.468 233.969 325.82 232.293C330.171 230.616 331.194 227.929 331.527 225.242C331.86 222.555 334.202 213.507 326.152 205.458Z" fill="white" stroke="#263238" stroke-linecap="round" stroke-linejoin="round"/>
<path d="M321.801 347.644C321.801 347.644 312.408 343.281 308.723 344.957C305.037 346.633 305.025 348.31 309.721 355.693C314.417 363.077 327.496 372.125 331.909 370.103C336.322 368.081 332.242 354.683 332.242 354.683L321.801 347.644Z" fill="white" stroke="#263238" stroke-linecap="round" stroke-linejoin="round"/>
<path d="M315.095 358.035C311.837 354.428 309.099 350.382 306.96 346.017C305.234 347.545 305.974 349.789 309.721 355.693C314.417 363.089 327.496 372.125 331.909 370.103C332.469 369.743 332.931 369.249 333.251 368.666C333.572 368.083 333.742 367.428 333.745 366.763C327.582 369.363 321.209 364.79 315.095 358.035Z" fill="white" stroke="#263238" stroke-linecap="round" stroke-linejoin="round"/>
<path d="M370.084 245.026L370.417 255.097C370.417 255.097 349.967 262.801 339.909 269.888C329.85 276.976 323.145 282.289 322.134 288.995C321.123 295.7 321.801 347.681 321.801 347.681C321.801 347.681 318.781 348.347 319.792 350.356C320.803 352.365 322.799 359.749 325.487 360.414C328.174 361.08 331.527 362.436 332.192 360.76C332.858 359.083 334.879 349.025 336.223 345.672C337.567 342.319 339.909 326.578 341.918 315.484C343.095 309.291 343.767 303.013 343.927 296.711C351.008 295.724 357.973 294.04 364.722 291.682C376.457 287.651 393.554 280.28 393.554 280.28C393.554 280.28 407.31 314.794 410.33 321.524C413.35 328.254 425.122 343.317 427.427 347.681C429.732 352.045 444.524 370.818 444.524 370.818C444.524 370.818 450.231 365.789 453.917 365.789H458.946C458.946 365.789 452.906 349.025 447.852 338.954C442.798 328.883 432.432 312.464 432.432 312.464C432.432 312.464 423.051 253.802 422.706 249.759C422.053 242.018 417.097 230.333 417.097 230.333C417.097 230.333 400.937 226.918 370.084 245.026Z" fill="#263238" stroke="#263238" stroke-linecap="round" stroke-linejoin="round"/>
<path d="M444.524 370.781C443.662 372.186 442.881 373.639 442.182 375.132C441.849 376.143 434.465 377.154 435.476 380.507C436.487 383.859 444.191 386.534 447.877 386.879C451.562 387.225 458.971 382.183 460.289 380.839C461.078 380.05 462.262 374.836 461.633 370.781C461.224 368.887 460.293 367.145 458.946 365.752C458.946 365.752 452.573 356.026 444.524 370.781Z" fill="white" stroke="#263238" stroke-linecap="round" stroke-linejoin="round"/>
<path d="M461.633 370.781C461.29 369.078 460.503 367.497 459.353 366.196C457.965 366.207 456.593 366.5 455.322 367.057C454.05 367.614 452.906 368.424 451.957 369.437C448.604 373.456 450.28 382.516 446.25 383.859C443.254 384.858 438.015 381.197 435.55 379.274C435.413 379.673 435.413 380.107 435.55 380.507C436.549 383.859 444.265 386.534 447.951 386.879C451.636 387.225 459.045 382.183 460.363 380.839C461.078 380.051 462.262 374.836 461.633 370.781Z" fill="white" stroke="#263238" stroke-linecap="round" stroke-linejoin="round"/>
<path d="M452.906 373.123C451.575 379.163 453.251 383.181 447.877 386.879C451.575 387.212 458.971 382.183 460.29 380.839C461.078 380.05 462.262 374.836 461.633 370.781C461.489 369.94 461.21 369.129 460.807 368.377H460.29C460.29 368.377 454.25 367.095 452.906 373.123Z" fill="#263238" stroke="#263238" stroke-linecap="round" stroke-linejoin="round"/>
<path d="M396.906 279.565L416.691 269.851" stroke="white" stroke-linecap="round" stroke-linejoin="round"/>
<path d="M405.967 275.213L423.063 272.859" stroke="white" stroke-linecap="round" stroke-linejoin="round"/>
<path d="M412.635 135.381C406.94 136.047 392.185 146.105 391.175 147.116C390.164 148.127 386.145 150.469 384.469 151.813C384.469 151.813 349.955 173.273 346.91 175.233C343.866 177.193 337.862 181.273 338.195 182.629C338.528 183.985 320.42 213.445 320.42 213.445C320.42 213.445 315.058 220.496 320.088 226.857C325.117 233.217 329.813 228.878 332.155 227.534C334.497 226.191 352.95 208.749 352.95 208.749L369.961 249.426C369.961 249.426 393.517 233.636 418.675 234.635L401.899 168.91C401.899 168.91 425.048 151.48 425.714 145.489C426.379 139.498 418.367 134.703 412.635 135.381Z" fill="white"/>
<path d="M412.635 135.381C410.355 135.653 406.62 137.428 402.885 139.523C403.736 139.359 404.616 139.449 405.417 139.782C406.217 140.116 406.901 140.677 407.384 141.397C410.158 144.959 404.216 156.435 404.216 156.435C404.216 156.435 401.751 140.583 401.849 145.341C401.948 150.099 400.617 164.731 400.617 164.731C400.617 164.731 392.703 155.239 393.098 157.606C393.492 159.973 398.632 182.136 401.8 190.444C404.968 198.752 399.421 222.086 396.266 228.804C393.11 235.522 395.033 200.33 391.508 209.082C387.982 217.833 376.087 241.907 373.314 244.286C370.54 246.665 374.201 212.028 375.187 207.516C373.955 211.288 365.807 235.189 365.807 235.189L354.713 206.703C354.713 206.703 335.73 191.282 337.702 194.043C339.675 196.804 344.433 205.519 344.433 205.519C344.433 205.519 332.957 203.14 334.941 203.942C336.926 204.743 345.616 209.082 345.616 209.082C345.616 209.082 327.816 221.741 322.676 223.319C321.294 223.725 319.873 223.985 318.436 224.095C318.807 225.129 319.344 226.095 320.026 226.955C325.055 233.328 329.752 228.977 332.094 227.633C334.436 226.29 352.889 208.847 352.889 208.847L369.899 249.525C369.899 249.525 393.455 233.735 418.614 234.733L401.837 169.008C401.837 169.008 424.986 151.578 425.652 145.588C426.318 139.597 418.367 134.703 412.635 135.381Z" fill="#92E3A9"/>
<path opacity="0.5" d="M412.635 135.381C410.355 135.653 406.62 137.428 402.885 139.523C403.736 139.359 404.616 139.449 405.417 139.782C406.217 140.116 406.901 140.677 407.384 141.397C410.158 144.959 404.216 156.435 404.216 156.435C404.216 156.435 401.751 140.583 401.849 145.341C401.948 150.099 400.617 164.731 400.617 164.731C400.617 164.731 392.703 155.239 393.098 157.606C393.492 159.973 398.632 182.136 401.8 190.444C404.968 198.752 399.421 222.086 396.266 228.804C393.11 235.522 395.033 200.33 391.508 209.082C387.982 217.833 376.087 241.907 373.314 244.286C370.54 246.665 374.201 212.028 375.187 207.516C373.955 211.288 365.807 235.189 365.807 235.189L354.713 206.703C354.713 206.703 335.73 191.282 337.702 194.043C339.675 196.804 344.433 205.519 344.433 205.519C344.433 205.519 332.957 203.14 334.941 203.942C336.926 204.743 345.616 209.082 345.616 209.082C345.616 209.082 327.816 221.741 322.676 223.319C321.294 223.725 319.873 223.985 318.436 224.095C318.807 225.129 319.344 226.095 320.026 226.955C325.055 233.328 329.752 228.977 332.094 227.633C334.436 226.29 352.889 208.847 352.889 208.847L369.899 249.525C369.899 249.525 393.455 233.735 418.614 234.733L401.837 169.008C401.837 169.008 424.986 151.578 425.652 145.588C426.318 139.597 418.367 134.703 412.635 135.381Z" fill="white"/>
<path d="M412.635 135.381C406.94 136.047 392.185 146.105 391.175 147.116C390.164 148.127 386.145 150.469 384.469 151.813C384.469 151.813 349.955 173.273 346.91 175.233C343.866 177.193 337.862 181.273 338.195 182.629C338.528 183.985 320.42 213.445 320.42 213.445C320.42 213.445 315.058 220.496 320.088 226.857C325.117 233.217 329.813 228.878 332.155 227.534C334.497 226.191 352.95 208.749 352.95 208.749L369.961 249.426C369.961 249.426 393.517 233.636 418.675 234.635L401.899 168.91C401.899 168.91 425.048 151.48 425.714 145.489C426.379 139.498 418.367 134.703 412.635 135.381Z" stroke="#263238" stroke-linecap="round" stroke-linejoin="round"/>
<path d="M369.998 249.426C369.016 240.201 369.494 230.879 371.415 221.803Z" fill="white"/>
<path d="M369.998 249.426C369.016 240.201 369.494 230.879 371.415 221.803" stroke="#263238" stroke-linecap="round" stroke-linejoin="round"/>
<path d="M366.818 228.878C366.818 228.878 366.818 223.208 373.19 205.458Z" fill="white"/>
<path d="M366.818 228.878C366.818 228.878 366.818 223.208 373.19 205.458" stroke="#263238" stroke-linecap="round" stroke-linejoin="round"/>
<path d="M339.909 194.068L352.987 208.81L339.576 199.085" fill="white"/>
<path d="M339.909 194.068L352.987 208.81L339.576 199.085" stroke="#263238" stroke-linecap="round" stroke-linejoin="round"/>
<path d="M401.936 150.136V168.91L406.299 144.774" fill="white"/>
<path d="M401.936 150.136V168.91L406.299 144.774" stroke="#263238" stroke-linecap="round" stroke-linejoin="round"/>
<path d="M375.384 207.011C375.335 207.147 375.298 207.287 375.273 207.43C375.421 207.011 375.471 206.851 375.384 207.011Z" fill="#263238"/>
</svg>
