<svg width="484" height="351" viewBox="0 0 484 351" fill="none" xmlns="http://www.w3.org/2000/svg">
<path d="M483.17 343.028H27.0803V350.413H483.17V343.028Z" fill="#263238"/>
<path d="M464.679 234.056C462.367 213.9 454.809 214.778 452.451 194.623C450.094 174.467 457.594 173.589 455.236 153.433C452.879 133.278 445.367 134.156 442.997 114.001C440.628 93.8449 448.152 92.9666 445.783 72.811C443.414 52.6554 435.913 53.5337 433.555 33.3897L432.4 37.4694C430.088 53.6493 423.478 54.4814 421.871 73.2964C420.137 93.5213 427.65 94.1685 425.939 114.405C424.229 134.642 416.693 133.994 414.937 154.231C413.18 174.467 420.715 175.103 419.005 195.339C417.294 215.576 409.759 214.987 408.014 235.165C407.282 241.735 407.88 248.385 409.771 254.72C411.331 258.337 417.919 271.72 431.198 275.604C432.04 275.848 432.897 276.041 433.763 276.181V343.767H436.803V276.424C449.007 276.505 457.12 264.474 463.28 254.408L463.361 254.281C465.183 247.701 465.631 240.816 464.679 234.056ZM450.949 226.081L435.867 254.073V275.13H434.572V254.096L417.78 226.521C417.69 226.367 417.664 226.184 417.707 226.011C417.75 225.838 417.859 225.689 418.011 225.596C418.166 225.507 418.35 225.483 418.523 225.528C418.696 225.574 418.844 225.685 418.936 225.839L434.619 251.576V172.202C434.501 172.162 434.397 172.09 434.318 171.994L420.9 154.658C420.848 154.591 420.809 154.514 420.787 154.431C420.764 154.349 420.758 154.263 420.769 154.178C420.78 154.093 420.807 154.011 420.849 153.937C420.892 153.863 420.948 153.798 421.016 153.745C421.083 153.693 421.161 153.655 421.243 153.632C421.325 153.609 421.411 153.603 421.496 153.614C421.581 153.625 421.663 153.652 421.737 153.695C421.811 153.737 421.876 153.793 421.929 153.861L434.642 170.237V94.7695L425.616 76.7173C425.549 76.5592 425.547 76.3814 425.609 76.2217C425.672 76.0619 425.795 75.9329 425.951 75.8621C426.098 75.7987 426.263 75.792 426.414 75.8433C426.566 75.8945 426.693 76 426.771 76.1395L434.63 91.8687V65.5647C434.63 65.393 434.698 65.2284 434.82 65.1071C434.941 64.9857 435.106 64.9175 435.277 64.9175C435.449 64.9175 435.614 64.9857 435.735 65.1071C435.856 65.2284 435.925 65.393 435.925 65.5647V91.1521L441.171 77.8846C441.203 77.8049 441.249 77.7321 441.308 77.6704C441.368 77.6087 441.438 77.5593 441.517 77.5249C441.595 77.4906 441.679 77.472 441.765 77.4703C441.85 77.4685 441.935 77.4836 442.015 77.5148C442.095 77.5459 442.168 77.5924 442.229 77.6516C442.291 77.7108 442.34 77.7816 442.375 77.86C442.409 77.9383 442.428 78.0227 442.429 78.1082C442.431 78.1937 442.416 78.2787 442.385 78.3584V78.3584L435.925 94.7002V169.348L448.21 154.774C448.264 154.709 448.331 154.655 448.407 154.616C448.482 154.576 448.565 154.552 448.649 154.544C448.734 154.537 448.82 154.546 448.901 154.572C448.982 154.597 449.057 154.638 449.123 154.693C449.188 154.748 449.242 154.815 449.281 154.89C449.321 154.966 449.345 155.048 449.352 155.133C449.36 155.218 449.351 155.303 449.325 155.384C449.3 155.465 449.258 155.541 449.204 155.606L435.925 171.37V251.334L449.862 225.457C449.945 225.307 450.084 225.196 450.249 225.148C450.414 225.101 450.59 225.12 450.741 225.203C450.812 225.247 450.875 225.304 450.924 225.372C450.973 225.44 451.008 225.517 451.028 225.599C451.047 225.681 451.05 225.765 451.036 225.848C451.023 225.931 450.993 226.01 450.949 226.081V226.081Z" fill="#263238"/>
<path d="M473.185 343.744L469.579 342.588C467.718 342.022 467.105 340.335 465.256 336.96C463.407 333.585 458.461 338.647 454.751 338.647C451.041 338.647 455.363 334.707 453.514 331.332C451.665 327.957 446.719 331.898 442.396 330.766C438.074 329.633 444.246 319.509 438.074 320.075C436.918 320.179 436.075 321.092 435.427 322.502C434.838 321.092 434.064 320.191 433.024 320.075C427.395 319.509 433.024 329.645 429.083 330.766C425.142 331.887 420.646 327.957 418.959 331.332C417.271 334.707 421.201 338.647 417.803 338.647C414.405 338.647 409.921 333.585 408.234 336.96C406.546 340.335 405.98 342.022 404.293 342.588L401.01 343.744H473.185Z" fill="#263238"/>
<path d="M154.208 178.686V178.628H154.139V178.57C152.533 178.408 135.902 176.987 120.727 184.869C127.428 176.447 130.516 165.712 129.314 155.017C125.662 118.381 91.0835 97.4045 88.4254 95.8443V95.7518H88.2636V95.9252C85.5939 97.4854 51.0266 118.462 47.363 155.098C46.5802 162.189 47.6721 169.363 50.5296 175.9C31.0675 164.262 8.36931 166.227 6.27747 166.424H6.04633V166.493C5.01775 168.804 -7.97244 200.101 7.62965 226.59C21.5906 250.317 50.8648 244.053 58.8161 241.822C65.4961 248.837 77.6773 264.798 83.086 292.061H75.5045L79.1681 343.675H96.2264L99.89 292.13H90.9564C95.0491 273.658 102.432 256.073 112.753 240.216C120.704 242.203 142.258 245.555 152.879 227.503C165.546 205.949 154.994 180.616 154.208 178.686ZM87.8013 178.489L69.7722 153.445C69.734 153.393 69.7063 153.335 69.6908 153.273C69.6754 153.21 69.6724 153.146 69.682 153.082C69.6917 153.019 69.7138 152.958 69.7472 152.903C69.7805 152.848 69.8244 152.801 69.8762 152.763V152.763C69.9821 152.685 70.1145 152.652 70.2444 152.672C70.3744 152.691 70.4913 152.762 70.5696 152.867L87.7782 176.825V151.48L69.7491 126.448C69.6712 126.342 69.6385 126.209 69.658 126.079C69.6774 125.949 69.7476 125.832 69.8531 125.754C69.9613 125.68 70.0938 125.651 70.223 125.673C70.3522 125.694 70.4681 125.765 70.5465 125.87L87.8013 149.851V112.868C87.824 112.739 87.8955 112.624 88.001 112.546C88.1065 112.469 88.2378 112.435 88.3676 112.452C88.4729 112.466 88.5707 112.514 88.6459 112.59C88.721 112.665 88.7694 112.763 88.7837 112.868V148.568L107.506 124.818C107.586 124.718 107.701 124.652 107.829 124.635C107.956 124.617 108.084 124.65 108.188 124.725V124.725C108.287 124.807 108.35 124.923 108.365 125.05C108.38 125.177 108.346 125.305 108.269 125.407L88.7605 150.244V175.669L107.483 151.919C107.523 151.868 107.572 151.824 107.629 151.792C107.685 151.76 107.748 151.739 107.813 151.732C107.877 151.724 107.943 151.73 108.005 151.748C108.068 151.766 108.126 151.797 108.176 151.838C108.227 151.878 108.268 151.927 108.3 151.982C108.331 152.038 108.351 152.099 108.358 152.163C108.366 152.226 108.361 152.29 108.343 152.352C108.326 152.413 108.297 152.47 108.257 152.52V152.52L88.7605 177.253V198.703L107.483 174.964C107.563 174.864 107.678 174.798 107.805 174.781C107.932 174.764 108.061 174.796 108.165 174.872V174.872C108.264 174.953 108.327 175.07 108.342 175.197C108.357 175.324 108.323 175.451 108.246 175.554L88.7605 200.286V200.76H87.1772L69.7375 176.49C69.6597 176.384 69.6269 176.252 69.6464 176.122C69.6659 175.992 69.7361 175.875 69.8416 175.796C69.9498 175.723 70.0823 175.693 70.2115 175.715C70.3406 175.737 70.4565 175.807 70.535 175.912L87.7782 199.939V178.443L87.8013 178.489ZM59.105 239.615L57.3368 237.188L31.9111 230.115C31.8159 230.077 31.738 230.005 31.6923 229.914C31.6467 229.822 31.6365 229.716 31.6637 229.618C31.6909 229.519 31.7536 229.434 31.8398 229.378C31.9259 229.323 32.0295 229.301 32.1307 229.317L56.5509 236.113L45.953 221.62L20.5852 214.547C20.4798 214.518 20.3904 214.448 20.3363 214.352C20.2822 214.257 20.2678 214.145 20.2962 214.039C20.3258 213.936 20.3946 213.85 20.4877 213.798C20.5807 213.746 20.6905 213.733 20.7932 213.761V213.761L45.1671 220.557L32.6392 203.406L7.2136 196.333C7.16379 196.321 7.11692 196.299 7.0758 196.269C7.03468 196.238 7.00014 196.2 6.97425 196.155C6.94836 196.111 6.93165 196.062 6.92512 196.011C6.91858 195.96 6.92236 195.909 6.93623 195.859V195.859C6.94965 195.808 6.9732 195.759 7.0055 195.717C7.03781 195.674 7.07824 195.638 7.12445 195.611C7.17066 195.585 7.22174 195.567 7.27473 195.56C7.32772 195.553 7.38158 195.557 7.43318 195.571V195.571L31.8071 202.366L14.2403 178.258C14.1765 178.169 14.1505 178.058 14.1678 177.95C14.1851 177.842 14.2444 177.745 14.3328 177.68C14.4164 177.618 14.5207 177.591 14.6241 177.604C14.7274 177.616 14.8218 177.669 14.8875 177.749V177.749L33.1246 202.69L32.9513 177.981C32.9414 177.927 32.9427 177.871 32.955 177.818C32.9672 177.764 32.9903 177.714 33.0228 177.669C33.0552 177.625 33.0963 177.588 33.1437 177.56C33.191 177.532 33.2435 177.514 33.298 177.507C33.3512 177.497 33.4058 177.498 33.4587 177.509C33.5116 177.521 33.5616 177.543 33.6058 177.574C33.65 177.605 33.6874 177.645 33.7159 177.691C33.7445 177.737 33.7635 177.788 33.7718 177.842C33.7836 177.887 33.7836 177.935 33.7718 177.981L34.0145 203.776L46.5309 220.915L46.3575 196.195C46.3477 196.141 46.3489 196.085 46.3612 196.032C46.3735 195.978 46.3966 195.928 46.429 195.883C46.4614 195.839 46.5026 195.802 46.5499 195.774C46.5972 195.746 46.6497 195.728 46.7042 195.721C46.7574 195.711 46.8121 195.712 46.8649 195.723C46.9178 195.735 46.9678 195.757 47.012 195.788C47.0562 195.819 47.0937 195.859 47.1222 195.905C47.1507 195.951 47.1697 196.003 47.1781 196.056C47.1898 196.101 47.1898 196.149 47.1781 196.195L47.363 222.013L57.7644 236.46L57.5795 211.739C57.5852 211.632 57.6313 211.53 57.7084 211.455C57.7855 211.38 57.888 211.337 57.9955 211.334C58.1028 211.334 58.2057 211.377 58.2815 211.453C58.3574 211.529 58.4 211.632 58.4 211.739V211.739L58.5849 237.546L60.0989 239.615H59.105ZM61.9943 239.615C65.6926 233.986 76.3713 215.507 69.9918 197.72C74.9506 200.993 80.2569 203.706 85.8135 205.81V286.063C79.954 261.469 68.917 246.769 62.2023 239.615H61.9943ZM89.7313 281.116V206.18C95.02 204.253 100.091 201.774 104.86 198.783C94.6778 215.102 106.015 233.952 109.089 238.401C100.534 251.59 94.0088 265.989 89.7313 281.116V281.116ZM153.203 202.886L132.62 208.665L122.45 222.533L142.224 217.009C142.267 216.997 142.312 216.994 142.357 216.999C142.401 217.005 142.444 217.02 142.483 217.042C142.522 217.065 142.556 217.095 142.583 217.131C142.61 217.167 142.629 217.208 142.64 217.252C142.661 217.336 142.649 217.425 142.606 217.501C142.563 217.576 142.492 217.632 142.409 217.656L121.814 223.435L113.227 235.188L133.001 229.676C133.085 229.654 133.175 229.666 133.25 229.709C133.326 229.753 133.381 229.823 133.406 229.907C133.427 229.992 133.416 230.083 133.373 230.161C133.33 230.238 133.259 230.296 133.175 230.323L112.591 236.101L111.505 237.581C111.308 237.465 111.112 237.361 110.939 237.234L111.551 236.39L111.701 215.449C111.704 215.361 111.741 215.277 111.803 215.215C111.865 215.153 111.949 215.117 112.037 215.114C112.125 215.114 112.211 215.149 112.274 215.212C112.336 215.275 112.372 215.36 112.372 215.449L112.233 235.5L120.82 223.758L120.97 202.817C120.97 202.728 121.006 202.643 121.068 202.58C121.131 202.517 121.216 202.482 121.305 202.482C121.393 202.485 121.477 202.521 121.539 202.583C121.601 202.645 121.638 202.729 121.641 202.817L121.49 222.88L131.649 209.011L131.799 188.058C131.814 187.982 131.854 187.912 131.915 187.862C131.975 187.813 132.05 187.785 132.129 187.785C132.207 187.785 132.282 187.813 132.343 187.862C132.403 187.912 132.444 187.982 132.458 188.058L132.25 208.029L147.043 187.793C147.096 187.723 147.174 187.677 147.26 187.664C147.346 187.651 147.434 187.672 147.505 187.723C147.54 187.748 147.57 187.778 147.593 187.814C147.616 187.85 147.632 187.89 147.639 187.932C147.647 187.974 147.646 188.017 147.637 188.058C147.628 188.1 147.611 188.139 147.586 188.174V188.174L133.29 207.74L153.053 202.251C153.137 202.229 153.226 202.241 153.302 202.284C153.377 202.327 153.433 202.398 153.457 202.482C153.483 202.56 153.477 202.645 153.44 202.719C153.403 202.792 153.339 202.848 153.261 202.875L153.203 202.886Z" fill="#263238"/>
<path d="M350.564 108.049L347.501 98.8722L341.052 90.0426L337.354 100.34L345.802 111.446L350.564 108.049Z" fill="white"/>
<path d="M345.687 112.244L336.707 100.444L340.867 88.8176L348.056 98.6989L351.245 108.28L345.687 112.244ZM337.966 100.248L345.895 110.649L349.847 107.829L346.946 99.1496L341.168 91.2561L337.966 100.248Z" fill="#263238"/>
<path d="M396.214 136.572L370.511 137.473C369.562 137.51 368.621 137.273 367.802 136.792C366.983 136.311 366.319 135.604 365.888 134.757L350.564 108.049C350.564 108.049 346.149 110.429 345.802 111.446C345.455 112.463 356.042 138.143 360.584 149.585C360.964 150.549 361.637 151.369 362.507 151.931C363.378 152.493 364.403 152.767 365.438 152.717L394.18 151.561" fill="#92E3A9"/>
<path d="M365.23 153.318C364.119 153.323 363.032 152.996 362.109 152.378C361.187 151.76 360.47 150.88 360.052 149.851C359.127 147.539 357.96 144.604 356.677 141.426C346.657 116.427 345.039 111.978 345.259 111.308C345.629 110.152 348.899 108.338 350.286 107.586L350.783 107.32L366.385 134.514C366.767 135.267 367.356 135.896 368.083 136.325C368.81 136.755 369.644 136.969 370.488 136.941L396.191 136.04V137.196L370.488 138.097C369.429 138.131 368.382 137.865 367.468 137.329C366.554 136.793 365.81 136.01 365.322 135.069L350.298 108.881C348.855 109.598 347.523 110.52 346.345 111.62C346.657 113.434 353.28 129.984 357.706 140.998C358.977 144.176 360.156 147.1 361.081 149.423C361.416 150.276 362.009 151.002 362.778 151.499C363.548 151.997 364.453 152.241 365.368 152.197L394.111 151.041V152.197L365.368 153.352L365.23 153.318Z" fill="#263238"/>
<path d="M352.294 112.43L348.269 114.099L348.601 114.9L352.626 113.231L352.294 112.43Z" fill="#263238"/>
<path d="M361.982 157.825H118.936V341.548H361.982V157.825Z" fill="#92E3A9"/>
<path d="M361.982 342.092H118.936C118.783 342.092 118.636 342.031 118.528 341.922C118.419 341.814 118.358 341.667 118.358 341.514V157.756C118.358 157.602 118.419 157.455 118.528 157.347C118.636 157.239 118.783 157.178 118.936 157.178H361.982C362.134 157.184 362.277 157.246 362.384 157.353C362.491 157.461 362.554 157.604 362.56 157.756V341.514C362.56 341.667 362.499 341.814 362.391 341.922C362.282 342.031 362.135 342.092 361.982 342.092ZM119.537 340.936H361.427V158.334H119.537V340.936Z" fill="#263238"/>
<path d="M118.936 157.825L226.718 52.5629C229.997 49.7851 234.146 48.2452 238.444 48.2114C242.741 48.1777 246.914 49.6521 250.236 52.378L361.982 157.825H118.936Z" fill="#92E3A9"/>
<path d="M361.982 158.403H118.936C118.821 158.404 118.709 158.37 118.614 158.306C118.519 158.242 118.446 158.151 118.404 158.045C118.361 157.938 118.35 157.821 118.372 157.708C118.395 157.595 118.45 157.491 118.531 157.409L226.313 52.1584C229.691 49.2846 233.971 47.6873 238.406 47.6451C242.841 47.6028 247.15 49.1183 250.583 51.9272L362.351 157.409C362.437 157.488 362.496 157.591 362.521 157.705C362.546 157.819 362.535 157.937 362.49 158.045C362.448 158.147 362.378 158.235 362.288 158.298C362.198 158.361 362.092 158.398 361.982 158.403ZM120.357 157.247H360.525L249.843 52.794C246.626 50.1621 242.587 48.7425 238.431 48.7826C234.275 48.8227 230.264 50.32 227.099 53.0136L120.357 157.247Z" fill="#263238"/>
<path d="M341.826 70.1297H139.092V241.221H341.826V70.1297Z" fill="white"/>
<path d="M341.826 241.787H139.092C138.938 241.787 138.791 241.727 138.683 241.618C138.575 241.51 138.514 241.363 138.514 241.21V70.1644C138.514 70.0111 138.575 69.8642 138.683 69.7558C138.791 69.6474 138.938 69.5865 139.092 69.5865H341.826C341.98 69.5865 342.127 69.6474 342.235 69.7558C342.343 69.8642 342.404 70.0111 342.404 70.1644V241.21C342.404 241.363 342.343 241.51 342.235 241.618C342.127 241.727 341.98 241.787 341.826 241.787ZM139.67 240.632H341.249V70.7423H139.67V240.632Z" fill="#263238"/>
<path d="M332.939 230.808H148.025C147.909 230.808 147.797 230.762 147.715 230.68C147.632 230.597 147.586 230.485 147.586 230.369V230.369V80.9703C147.589 80.8558 147.637 80.7471 147.719 80.6672C147.801 80.5873 147.911 80.5426 148.025 80.5427H332.939C333.051 80.5483 333.156 80.5951 333.235 80.6741C333.314 80.7531 333.361 80.8587 333.367 80.9703V230.369C333.367 230.483 333.322 230.593 333.242 230.676C333.162 230.758 333.054 230.805 332.939 230.808V230.808ZM148.43 229.988H332.5V81.4094H148.43V229.988Z" fill="#92E3A9"/>
<path d="M327.033 226.752H153.885C153.578 226.752 153.284 226.63 153.068 226.413C152.851 226.196 152.729 225.902 152.729 225.596V85.755C152.729 85.4484 152.851 85.1545 153.068 84.9377C153.284 84.721 153.578 84.5992 153.885 84.5992H327.033C327.34 84.5992 327.634 84.721 327.851 84.9377C328.067 85.1545 328.189 85.4484 328.189 85.755V225.596C328.189 225.902 328.067 226.196 327.851 226.413C327.634 226.63 327.34 226.752 327.033 226.752ZM155.041 224.44H325.878V86.9107H155.041V224.44Z" fill="#92E3A9"/>
<path d="M233.733 134.769C234.588 136.121 235.478 136.803 236.403 136.803V136.907C235.802 136.907 235.016 137.438 234.091 138.502C234.091 138.79 233.987 138.929 233.768 138.929C233.768 138.386 233.421 137.924 232.704 137.542C232.006 137.211 231.234 137.064 230.462 137.115H206.643L204.401 137.97L204.077 138.294H203.904C203.719 138.175 203.559 138.021 203.433 137.84C203.308 137.659 203.221 137.455 203.175 137.24C203.13 137.025 203.128 136.802 203.17 136.586C203.212 136.37 203.296 136.165 203.419 135.982C203.544 135.787 203.709 135.622 203.904 135.497H204.112C204.795 135.996 205.588 136.325 206.423 136.456L206.643 136.676H231.179C232.878 136.375 233.733 135.786 233.733 134.769ZM237.581 134.029C238.518 134.029 239.269 134.699 239.812 136.051V136.271H239.5C237.997 135.786 237.258 135.219 237.258 134.561V134.341L237.581 134.029ZM239.384 137.496H239.604L239.812 137.716C239.812 138.305 239.211 138.975 237.997 139.738H237.893C237.524 139.738 237.304 139.634 237.258 139.426V138.998C237.763 138.266 238.52 137.744 239.384 137.531V137.496ZM243.441 134.029L243.66 134.341V134.561C243.66 135.058 243.013 135.624 241.742 136.271H241.095V136.051C241.095 135.462 241.661 134.826 242.805 134.133L243.441 134.029ZM241.314 137.496C241.822 137.528 242.307 137.718 242.701 138.039C243.337 138.409 243.66 138.802 243.66 139.195V139.415C243.591 139.623 243.372 139.727 243.013 139.727H242.909C242.249 139.389 241.696 138.872 241.314 138.236L241.095 137.912V137.704L241.314 137.496ZM247.174 134.722C247.174 135.739 248.029 136.375 249.739 136.652H274.275C274.737 136.308 275.295 136.118 275.87 136.109L276.829 135.474H277.049C277.278 135.625 277.466 135.831 277.595 136.073C277.725 136.315 277.793 136.586 277.793 136.86C277.793 137.135 277.725 137.405 277.595 137.647C277.466 137.889 277.278 138.095 277.049 138.247H276.829C275.992 137.68 275.048 137.287 274.056 137.092H250.479C248.746 137.092 247.636 137.6 247.174 138.594V138.906C246.284 137.75 245.544 137.092 244.932 137.092C244.932 136.953 244.793 136.884 244.516 136.884C244.516 136.745 244.758 136.676 245.255 136.676C246.092 136.298 246.744 135.604 247.07 134.745L247.174 134.722Z" fill="#92E3A9"/>
<path d="M118.936 158.877L240.459 250.733L361.971 158.877V342.588H118.936V158.877Z" fill="#92E3A9"/>
<path d="M361.982 343.166H118.936C118.783 343.166 118.636 343.105 118.528 342.997C118.419 342.889 118.358 342.742 118.358 342.589V158.831C118.365 158.725 118.398 158.624 118.454 158.535C118.51 158.446 118.588 158.372 118.68 158.322C118.773 158.271 118.876 158.244 118.982 158.244C119.087 158.244 119.191 158.271 119.283 158.322L240.459 249.912L361.624 158.334C361.744 158.239 361.896 158.196 362.047 158.213C362.199 158.23 362.337 158.307 362.433 158.426C362.514 158.528 362.558 158.654 362.56 158.784V342.542C362.568 342.618 362.561 342.695 362.539 342.768C362.517 342.841 362.481 342.909 362.432 342.969C362.384 343.028 362.325 343.077 362.257 343.113C362.19 343.148 362.116 343.171 362.04 343.178L361.982 343.166ZM119.514 342.011H361.404V160.032L240.806 251.195C240.705 251.268 240.584 251.308 240.459 251.308C240.335 251.308 240.213 251.268 240.112 251.195L119.537 160.032L119.514 342.011Z" fill="#263238"/>
<path d="M118.936 342.589L223.563 237.962H257.344L361.971 342.589H118.936Z" fill="#92E3A9"/>
<path d="M361.982 343.166H118.936C118.824 343.165 118.714 343.132 118.62 343.071C118.525 343.009 118.451 342.922 118.404 342.82C118.358 342.713 118.345 342.596 118.368 342.482C118.391 342.368 118.448 342.264 118.532 342.184L223.158 237.558C223.21 237.502 223.272 237.458 223.342 237.428C223.412 237.398 223.487 237.383 223.563 237.384H257.344C257.42 237.383 257.495 237.398 257.565 237.428C257.634 237.458 257.697 237.502 257.749 237.558L362.387 342.184C362.465 342.267 362.519 342.371 362.541 342.484C362.564 342.596 362.554 342.712 362.514 342.82C362.467 342.922 362.393 343.009 362.299 343.071C362.204 343.132 362.095 343.165 361.982 343.166V343.166ZM120.335 342.011H360.584L257.067 238.54H223.805L120.335 342.011Z" fill="#263238"/>
<path d="M389.395 123.732L389.06 133.474L400.675 131.625L401.08 114.636L389.395 123.732Z" fill="white"/>
<path d="M388.459 134.156L388.818 123.443L401.692 113.434L401.242 132.122L388.459 134.156ZM389.962 124.021L389.661 132.792L400.063 131.128L400.421 115.838L389.962 124.021Z" fill="#263238"/>
<path d="M379.572 340.254C379.33 339.574 379.133 338.879 378.983 338.174L378.324 333.285L369.772 331.921L362.641 336.995L358.11 339.491H358.018C356.903 339.943 355.838 340.508 354.84 341.178C354.089 341.837 354.458 342.577 356.712 342.577H379.11C379.11 342.577 380.196 341.941 379.572 340.254Z" fill="white"/>
<path d="M379.225 343.166H356.677C355.117 343.166 354.193 342.82 353.938 342.138C353.859 341.885 353.863 341.614 353.95 341.364C354.038 341.113 354.204 340.899 354.424 340.751C355.469 340.038 356.589 339.442 357.764 338.971H357.891L362.329 336.533L369.598 331.355L378.844 332.834L379.549 338.139C379.703 338.8 379.892 339.452 380.115 340.092V340.092C380.383 340.602 380.458 341.191 380.326 341.751C380.195 342.312 379.865 342.806 379.399 343.143L379.225 343.166ZM355.036 341.791C355.566 341.962 356.122 342.037 356.677 342.011H378.879C379.052 341.837 379.353 341.375 379.006 340.462C378.751 339.756 378.542 339.034 378.382 338.301L377.781 333.794L369.887 332.522L362.953 337.469L358.18 340.057C357.135 340.473 356.135 340.996 355.198 341.618C355.136 341.664 355.085 341.723 355.048 341.791H355.036Z" fill="#263238"/>
<path d="M379.711 340.936H355.187C355.05 341.019 354.922 341.116 354.805 341.225C354.054 341.884 354.424 342.623 356.677 342.623H379.075C379.334 342.435 379.532 342.174 379.645 341.875C379.758 341.575 379.781 341.248 379.711 340.936V340.936Z" fill="white"/>
<path d="M379.225 343.166H356.677C355.117 343.166 354.193 342.82 353.938 342.138C353.859 341.885 353.863 341.614 353.95 341.364C354.038 341.113 354.204 340.899 354.424 340.751C354.564 340.63 354.715 340.522 354.875 340.427L355.013 340.323H380.208L380.289 340.82C380.383 341.254 380.346 341.706 380.181 342.118C380.016 342.53 379.732 342.883 379.364 343.132L379.225 343.166ZM355.036 341.791C355.566 341.962 356.122 342.037 356.677 342.011H378.867C379.007 341.864 379.099 341.679 379.133 341.479H355.36L355.187 341.618C355.125 341.664 355.074 341.723 355.036 341.791V341.791Z" fill="#263238"/>
<path d="M417.306 340.254C417.065 339.573 416.865 338.878 416.705 338.174L416.058 333.285L407.506 331.921L400.375 336.995L395.844 339.491H395.752C394.634 339.942 393.565 340.508 392.562 341.178C391.811 341.837 392.192 342.577 394.434 342.577H416.832C416.832 342.577 417.953 341.941 417.306 340.254Z" fill="white"/>
<path d="M416.994 343.166H394.435C392.874 343.166 391.961 342.82 391.696 342.138C391.616 341.885 391.62 341.614 391.707 341.364C391.795 341.113 391.961 340.899 392.181 340.751C393.227 340.038 394.346 339.442 395.521 338.971H395.66L400.086 336.533L407.367 331.355L416.613 332.834L417.318 338.139C417.467 338.8 417.652 339.452 417.872 340.092C418.145 340.601 418.223 341.191 418.091 341.753C417.959 342.315 417.626 342.809 417.156 343.143L416.994 343.166ZM392.805 341.791C393.329 341.968 393.882 342.043 394.435 342.011H416.636C416.809 341.837 417.121 341.375 416.763 340.462C416.518 339.754 416.314 339.032 416.15 338.301L415.538 333.794L407.644 332.522L400.71 337.469L395.937 340.057C394.892 340.473 393.893 340.996 392.955 341.618C392.896 341.667 392.846 341.726 392.805 341.791V341.791Z" fill="#263238"/>
<path d="M417.479 340.936H392.955C392.817 341.022 392.685 341.118 392.562 341.225C391.811 341.884 392.192 342.623 394.434 342.623H416.832C417.092 342.435 417.292 342.175 417.407 341.876C417.522 341.576 417.547 341.25 417.479 340.936V340.936Z" fill="white"/>
<path d="M416.994 343.166H394.435C392.874 343.166 391.961 342.82 391.696 342.138C391.616 341.885 391.62 341.614 391.707 341.364C391.795 341.113 391.961 340.899 392.181 340.751C392.321 340.63 392.472 340.522 392.632 340.427L392.782 340.323H417.976L418.046 340.82C418.143 341.253 418.108 341.704 417.945 342.117C417.783 342.529 417.499 342.883 417.133 343.132L416.994 343.166ZM392.805 341.791C393.329 341.968 393.882 342.043 394.435 342.011H416.636C416.774 341.863 416.866 341.678 416.902 341.479H393.129L392.944 341.618C392.885 341.667 392.834 341.726 392.793 341.791H392.805Z" fill="#263238"/>
<path d="M376.429 197.085L375.4 209.797C375.4 209.797 368.292 260.371 368.627 266.184C368.963 271.998 369.783 331.979 369.783 331.979L378.335 333.343L387.951 266.809L401.45 199.199L376.429 197.085Z" fill="#92E3A9"/>
<path d="M378.786 334.002L369.171 332.407V331.921C369.171 331.32 368.408 271.905 368.073 266.161C367.738 260.417 374.556 211.727 374.845 209.659L375.908 196.46L402.108 198.61L401.981 199.246L388.471 266.866L378.786 334.002ZM370.326 331.424L377.815 332.58L387.338 266.624L400.722 199.592L376.972 197.628L375.989 209.705C375.92 210.248 368.893 260.325 369.217 266.011C369.541 271.697 370.234 325.692 370.326 331.424Z" fill="#263238"/>
<path d="M375.747 330.662L374.949 330.534C374.949 330.35 378.648 311.523 378.648 301.387C378.648 291.252 378.647 281.567 381.121 272.044C383.559 262.706 386.899 243.452 386.899 243.255L387.754 243.405C387.754 243.602 384.426 262.879 381.976 272.298C379.526 281.717 379.572 291.24 379.572 301.422C379.572 311.604 375.781 330.534 375.747 330.662Z" fill="#263238"/>
<path d="M393.787 193.964C399.439 191.017 405.506 189.041 407.217 192.982C410.684 200.852 406.535 212.825 406.535 212.825L409.621 267.999L415.757 333.32L406.107 333.227C406.107 333.227 393.637 277.014 391.591 273.593C389.546 270.172 386.298 222.059 386.298 222.059L379.826 216.119" fill="#92E3A9"/>
<path d="M416.439 333.898L405.691 333.794L405.587 333.343C401.288 313.938 392.724 276.528 391.141 273.882C389.107 270.495 386.183 228.254 385.79 222.325L379.433 216.547L380.208 215.691L386.911 221.759V221.99C388.205 241.279 390.667 270.842 392.123 273.269C394.122 276.609 405.333 326.929 406.604 332.626L415.156 332.707L409.077 267.987L405.934 212.652V212.536C405.934 212.421 409.921 200.679 406.627 193.12C406.479 192.741 406.249 192.4 405.953 192.12C405.657 191.84 405.303 191.629 404.917 191.502C402.813 190.751 399.034 191.757 393.995 194.38L393.464 193.352C398.861 190.532 402.848 189.549 405.31 190.416C405.845 190.596 406.335 190.889 406.746 191.276C407.157 191.663 407.479 192.135 407.69 192.658C411.019 200.332 407.494 211.508 407.055 212.802L410.187 267.872L416.439 333.898Z" fill="#263238"/>
<path d="M411.539 330.211C411.539 329.98 409.031 306.577 405.367 289.911C402.594 277.279 402.802 276.516 403.056 275.372C403.208 274.847 403.274 274.301 403.252 273.754V271.443C403.322 267.514 403.426 261.573 402.42 258.256C400.883 253.113 400.109 245.775 399.901 235.812H400.768C400.918 245.694 401.738 252.952 403.252 258.025C404.293 261.492 404.189 267.49 404.119 271.466V273.777C404.139 274.401 404.065 275.025 403.9 275.627C403.645 276.574 403.437 277.314 406.211 289.749C409.886 306.461 412.371 329.91 412.406 330.199L411.539 330.211Z" fill="#263238"/>
<path d="M400.826 229.421H399.959V226.393C400.305 210.04 400.063 208.226 399.959 208.029L400.352 207.879L399.959 207.682L400.456 207.451C400.895 207.555 401.184 207.625 400.779 226.417C400.849 227.445 400.837 228.451 400.826 229.421Z" fill="#263238"/>
<path d="M381.883 216.801C381.82 216.799 381.758 216.785 381.701 216.76C381.643 216.734 381.591 216.697 381.548 216.651L379.549 214.339C379.497 214.285 379.462 214.217 379.448 214.143C379.433 214.069 379.44 213.993 379.468 213.923L380.785 209.959L381.051 204.181C381.053 204.123 381.066 204.067 381.089 204.015C381.113 203.963 381.147 203.916 381.189 203.877C381.231 203.839 381.28 203.809 381.334 203.789C381.388 203.77 381.445 203.761 381.502 203.765C381.614 203.77 381.72 203.819 381.798 203.901C381.875 203.983 381.918 204.091 381.918 204.204V204.204L381.641 209.982C381.652 210.024 381.652 210.068 381.641 210.109L380.381 213.889L382.23 216.05C382.309 216.13 382.353 216.238 382.353 216.35C382.353 216.463 382.309 216.571 382.23 216.651V216.651C382.187 216.7 382.134 216.739 382.074 216.765C382.014 216.791 381.949 216.803 381.883 216.801Z" fill="#263238"/>
<path d="M387.743 210.629C381.282 210.629 378.659 208.087 378.497 207.96C378.458 207.921 378.428 207.875 378.407 207.825C378.386 207.774 378.375 207.72 378.375 207.665C378.375 207.61 378.386 207.556 378.407 207.505C378.428 207.455 378.458 207.409 378.497 207.37C378.577 207.291 378.685 207.247 378.798 207.247C378.91 207.247 379.018 207.291 379.098 207.37C379.098 207.37 382.45 210.56 390.805 209.589C390.86 209.581 390.916 209.584 390.97 209.598C391.023 209.611 391.073 209.636 391.118 209.669C391.162 209.702 391.199 209.744 391.226 209.792C391.254 209.84 391.272 209.893 391.279 209.948V209.948C391.296 210.059 391.268 210.173 391.2 210.264C391.133 210.355 391.033 210.416 390.921 210.433V210.433C389.867 210.563 388.805 210.628 387.743 210.629V210.629Z" fill="#263238"/>
<path d="M399.404 204.77C405.922 203.499 406.338 201.661 408.569 200.147C408.591 197.69 408.132 195.251 407.217 192.97C405.506 189.029 399.439 191.006 393.787 193.953L391.129 198.287L376.486 197.131L376.024 202.909C383.551 205.417 391.575 206.055 399.404 204.77Z" fill="#263238"/>
<path d="M377.885 201.06L377.746 203.349L381.467 204.204L381.745 201.21L377.885 201.06Z" fill="white"/>
<path d="M381.883 204.747L377.33 203.695L377.515 200.609L382.253 200.794L381.883 204.747ZM378.231 203.013L381.109 203.672L381.306 201.626L378.335 201.511L378.231 203.013Z" fill="#263238"/>
<path d="M403.83 204.446L403.195 198.772L405.09 198.136L406.038 203.187" fill="#92E3A9"/>
<path d="M403.252 204.516L402.571 198.367L405.529 197.373L406.604 203.083L405.471 203.291L404.639 198.899L403.819 199.165L404.397 204.389L403.252 204.516Z" fill="#263238"/>
<path d="M389.303 206.353L388.032 199.72H391.187L392.458 205.406" fill="#92E3A9"/>
<path d="M388.725 206.457L387.338 199.142H391.661L393.024 205.279L391.892 205.521L390.725 200.297H388.737L389.869 206.238L388.725 206.457Z" fill="#263238"/>
<path d="M385.813 133.52C385.813 133.52 379.676 140.455 377.226 143.332C374.776 146.21 374.776 176.848 374.776 181.367C374.776 185.886 372.326 198.113 376.417 200.563C380.508 203.013 405.448 202.204 407.898 198.113C410.349 194.022 411.978 144.95 411.574 140.478C411.169 136.005 407.471 132.388 404.639 131.07C401.808 129.753 385.813 133.52 385.813 133.52Z" fill="white"/>
<path d="M387.523 202.516C382.612 202.516 377.862 202.1 376.116 201.06C372.649 198.991 373.389 191.225 373.909 185.551C374.059 183.852 374.198 182.395 374.198 181.367C374.198 168.146 374.533 145.54 376.787 142.963C379.214 140.131 385.316 133.208 385.385 133.139L385.501 133H385.686C387.338 132.607 401.866 129.221 404.859 130.585C408.176 132.11 411.735 135.982 412.151 140.455C412.568 144.927 410.915 194.253 408.395 198.437C406.685 201.303 396.919 202.158 392.805 202.401C391.129 202.47 389.303 202.516 387.523 202.516ZM386.125 134.064C385.247 135.058 379.896 141.137 377.665 143.737C376.244 145.401 375.354 159.824 375.354 181.39C375.354 182.476 375.215 183.956 375.065 185.678C374.602 190.74 373.909 198.39 376.717 200.089C378.509 201.164 385.397 201.661 392.736 201.245C400.56 200.794 406.454 199.431 407.402 197.847C409.713 193.941 411.4 144.997 410.996 140.559C410.591 136.121 406.812 132.746 404.374 131.625C402.444 130.701 392.47 132.561 386.125 134.064Z" fill="#263238"/>
<path d="M404.616 131.07C404.279 130.93 403.918 130.851 403.553 130.839L401.785 131.764C401.785 131.764 406.685 135.554 407.563 141.345C408.387 146.813 408.313 152.38 407.344 157.825C406.454 163.846 392.192 157.825 394.874 160.056C397.555 162.286 407.586 166.077 408.014 168.076C408.442 170.076 403.114 173.427 401.08 173.647C399.046 173.866 402.42 178.327 404.431 182.118C406.442 185.909 405.76 191.248 401.08 194.831C396.399 198.414 385.686 200.216 381.04 200.401C379.526 200.459 378.578 200.794 378.312 201.245C385.443 202.828 405.668 201.8 407.864 198.136C410.325 194.045 411.943 144.974 411.539 140.501C411.134 136.028 407.471 132.388 404.616 131.07Z" fill="#92E3A9"/>
<path d="M398.375 164.644C391.788 162.587 386.032 156.82 386.032 156.82C387.488 163.644 391.456 169.671 397.15 173.705" fill="white"/>
<path d="M397.15 174.132C397.059 174.136 396.969 174.107 396.896 174.051C391.13 169.932 387.105 163.814 385.605 156.889C385.588 156.799 385.602 156.706 385.644 156.624C385.686 156.543 385.753 156.477 385.836 156.438C385.915 156.394 386.006 156.377 386.096 156.39C386.186 156.402 386.269 156.443 386.333 156.508C386.333 156.565 392.111 162.286 398.514 164.228C398.622 164.265 398.711 164.342 398.762 164.443C398.814 164.545 398.825 164.662 398.791 164.771C398.777 164.826 398.751 164.877 398.716 164.921C398.681 164.966 398.638 165.003 398.588 165.03C398.538 165.057 398.483 165.074 398.427 165.079C398.371 165.084 398.314 165.077 398.26 165.06V165.06C394.013 163.532 390.112 161.175 386.784 158.126C388.466 164.271 392.212 169.65 397.393 173.358C397.439 173.389 397.479 173.429 397.509 173.476C397.54 173.523 397.56 173.575 397.57 173.63C397.58 173.685 397.578 173.742 397.566 173.796C397.553 173.851 397.53 173.902 397.497 173.947C397.459 174.004 397.407 174.051 397.347 174.083C397.286 174.115 397.219 174.132 397.15 174.132V174.132Z" fill="#263238"/>
<path d="M403.391 126.575L383.767 131.07L382.542 136.791L404.616 131.07L403.391 126.575Z" fill="white"/>
<path d="M381.779 137.589L383.282 130.585L403.842 125.881L405.367 131.486L381.779 137.589ZM384.252 131.556L383.305 136.005L403.911 130.654L402.987 127.256L384.252 131.556Z" fill="#263238"/>
<path d="M346.831 100.548L341.549 97.497C341.549 97.497 339.504 97.2312 340.393 99.531L345.664 103.599" fill="white"/>
<path d="M345.652 104.2C345.526 104.203 345.404 104.162 345.305 104.085L340.024 100.005C339.94 99.9433 339.876 99.8591 339.839 99.7622C339.656 99.4202 339.567 99.0365 339.579 98.6492C339.591 98.2619 339.705 97.8846 339.908 97.5547C340.125 97.3256 340.393 97.1507 340.69 97.0443C340.987 96.9379 341.305 96.9029 341.618 96.9422C341.695 96.9529 341.769 96.9764 341.838 97.0116L347.12 100.074C347.193 100.102 347.261 100.145 347.317 100.2C347.374 100.255 347.419 100.321 347.449 100.393C347.479 100.466 347.494 100.545 347.493 100.623C347.492 100.702 347.474 100.78 347.442 100.852C347.41 100.924 347.363 100.988 347.305 101.042C347.246 101.095 347.178 101.135 347.103 101.161C347.029 101.187 346.949 101.197 346.871 101.191C346.792 101.185 346.716 101.163 346.646 101.126L346.542 101.068L341.434 98.0864C341.226 98.0662 341.018 98.1285 340.856 98.2597C340.74 98.41 340.763 98.7567 340.913 99.1959L346.056 103.172C346.117 103.216 346.168 103.272 346.206 103.336C346.245 103.401 346.27 103.472 346.281 103.546C346.292 103.62 346.287 103.696 346.269 103.768C346.25 103.841 346.217 103.909 346.172 103.969C346.11 104.047 346.031 104.108 345.94 104.149C345.85 104.189 345.751 104.207 345.652 104.2V104.2Z" fill="#263238"/>
<path d="M346.056 108.511C345.814 107.879 345.449 107.302 344.982 106.812L343.999 105.749L338.637 99.1034C338.637 99.1034 336.973 97.9477 337.342 100.398L340.671 106.858L334.754 101.322C334.754 101.322 333.598 100.398 333.598 101.681C333.598 102.963 338.96 108.707 338.96 108.707L333.043 105.934C333.043 105.934 331.749 106.858 332.673 107.783C333.598 108.707 338.591 110.556 338.591 110.556L334.153 110.372C334.153 110.372 332.858 111.527 333.783 111.851C334.707 112.174 339.885 113.33 339.885 113.33C340.545 113.886 341.295 114.324 342.104 114.625L343.398 117.028L348.368 114.532L346.056 108.511Z" fill="white"/>
<path d="M343.456 117.56C343.352 117.559 343.251 117.531 343.161 117.478C343.072 117.425 342.998 117.35 342.948 117.26L341.792 115.041C341.025 114.749 340.311 114.335 339.677 113.816C338.637 113.584 334.546 112.66 333.667 112.348C333.496 112.286 333.343 112.182 333.224 112.044C333.104 111.906 333.022 111.74 332.985 111.562C332.87 110.822 333.644 110.094 333.875 109.886C333.99 109.795 334.133 109.746 334.28 109.748H335.366C334.297 109.341 333.29 108.789 332.373 108.106C332.2 107.95 332.066 107.756 331.98 107.54C331.893 107.324 331.858 107.09 331.876 106.858C331.982 106.261 332.318 105.73 332.812 105.379C332.894 105.317 332.991 105.279 333.093 105.268C333.195 105.258 333.298 105.276 333.39 105.321L336.707 106.881C335.008 104.928 333.124 102.559 333.124 101.588C333.095 101.359 333.136 101.126 333.241 100.92C333.346 100.714 333.511 100.544 333.713 100.432C333.969 100.361 334.239 100.358 334.496 100.423C334.754 100.487 334.99 100.618 335.181 100.802L338.648 104.085L336.845 100.617C336.834 100.56 336.834 100.501 336.845 100.444C336.845 100.063 336.614 98.8838 337.365 98.3984C337.635 98.2735 337.934 98.2247 338.229 98.2573C338.525 98.2899 338.805 98.4027 339.041 98.5834C339.089 98.6156 339.132 98.6545 339.168 98.6989L344.531 105.356C344.568 105.406 344.599 105.46 344.623 105.518L345.467 106.431C345.966 106.977 346.358 107.612 346.623 108.303L348.992 114.278C349.048 114.412 349.05 114.562 348.998 114.697C348.947 114.833 348.845 114.943 348.715 115.006L343.745 117.514C343.652 117.547 343.554 117.563 343.456 117.56V117.56ZM334.129 111.296C335.089 111.631 338.695 112.452 340.058 112.718C340.205 112.748 340.334 112.835 340.417 112.96C341.003 113.428 341.663 113.795 342.37 114.047C342.496 114.095 342.602 114.184 342.67 114.301L343.699 116.219L347.698 114.209L345.513 108.719C345.284 108.162 344.959 107.65 344.554 107.205L343.56 106.142C343.502 106.074 343.459 105.996 343.433 105.911L338.255 99.4964C338.143 99.437 338.022 99.3942 337.897 99.3692C337.851 99.633 337.851 99.9029 337.897 100.167L341.179 106.558C341.242 106.677 341.26 106.815 341.23 106.946C341.201 107.077 341.125 107.194 341.018 107.274C340.915 107.363 340.783 107.412 340.648 107.412C340.512 107.412 340.381 107.363 340.278 107.274L334.361 101.727L334.222 101.634C334.222 102.351 336.961 105.633 339.423 108.268C339.477 108.322 339.52 108.386 339.549 108.456C339.578 108.527 339.594 108.602 339.594 108.678C339.594 108.755 339.578 108.83 339.549 108.901C339.52 108.971 339.477 109.035 339.423 109.089C339.341 109.17 339.235 109.224 339.121 109.242C339.008 109.261 338.891 109.244 338.787 109.193L333.216 106.581C333.1 106.698 333.02 106.847 332.985 107.008C332.999 107.132 333.056 107.247 333.147 107.332C334.946 108.421 336.861 109.305 338.856 109.967C338.985 110.016 339.093 110.109 339.161 110.229C339.228 110.35 339.251 110.49 339.226 110.626C339.199 110.76 339.125 110.881 339.017 110.965C338.909 111.05 338.774 111.094 338.637 111.088L334.442 110.915C334.321 111.027 334.216 111.156 334.129 111.296V111.296Z" fill="#263238"/>
<path d="M403.091 152.555L365.218 161.593C363.7 161.858 362.138 161.589 360.796 160.833C359.454 160.077 358.415 158.879 357.856 157.444L343.456 116.994L348.425 114.497L364.79 141.194C365.265 142.064 366.007 142.757 366.905 143.174C367.804 143.59 368.813 143.706 369.783 143.506L392.447 137.092" fill="white"/>
<path d="M364.097 162.205C362.634 162.206 361.205 161.765 359.997 160.94C358.789 160.115 357.857 158.945 357.325 157.582L342.74 116.728L348.634 113.758L365.287 140.917C365.693 141.692 366.34 142.314 367.13 142.689C367.92 143.064 368.811 143.172 369.668 142.997L392.285 136.572L392.597 137.727L369.933 144.141C368.833 144.368 367.689 144.234 366.671 143.76C365.653 143.285 364.815 142.495 364.282 141.506L348.206 115.283L344.173 117.317L358.399 157.178C358.911 158.485 359.86 159.576 361.083 160.264C362.307 160.953 363.731 161.198 365.114 160.957L402.952 151.919L403.218 153.075L365.357 162.124C364.94 162.186 364.518 162.213 364.097 162.205Z" fill="#263238"/>
<path d="M348.772 133.104C348.772 133.104 360.572 155.375 365.033 156.935C369.494 158.495 378.844 155.155 378.844 155.155C378.844 155.155 365.923 154 370.373 153.595C374.822 153.191 379.953 154.265 388.425 152.266C396.896 150.267 401.138 146.487 398.896 150.255C396.653 154.023 384.183 156.496 379.734 158.056C375.284 159.616 365.472 162.066 362.583 161.616C361.67 161.414 360.815 161.009 360.08 160.431C359.346 159.853 358.751 159.116 358.342 158.276L348.772 133.104Z" fill="#92E3A9"/>
<path d="M351.02 119.007L345.254 121.895L345.642 122.67L351.408 119.782L351.02 119.007Z" fill="#263238"/>
<path d="M407.101 107.667C407.638 107.58 408.188 107.668 408.669 107.921C409.151 108.173 409.537 108.575 409.771 109.066C410.088 109.713 410.239 110.43 410.209 111.151C410.178 111.871 409.968 112.573 409.597 113.192C407.795 116.358 403.507 117.479 403.507 117.479C403.507 117.479 399.439 123.35 395.417 124.934C391.395 126.517 384.854 126.875 382.993 118.612C382.184 114.983 384.576 100.12 384.576 100.12C384.648 99.0369 384.935 97.9783 385.419 97.0062C385.903 96.0341 386.575 95.1678 387.396 94.4574C390.077 92.4118 396.318 92.0304 399.889 93.1746C403.461 94.3188 405.668 97.6357 406.65 100.19C407.284 102.075 407.543 104.065 407.413 106.049L407.032 107.713L407.101 107.667Z" fill="white"/>
<path d="M390.852 126.413C389.469 126.436 388.103 126.114 386.876 125.477C384.634 124.321 383.12 122.01 382.392 118.739C381.56 115.041 383.86 100.617 383.964 100.005C384.037 98.8463 384.345 97.7146 384.867 96.6779C385.389 95.6411 386.116 94.7207 387.003 93.972C389.892 91.7762 396.376 91.4294 400.028 92.6083C404.35 93.9951 406.442 98.2019 407.136 99.947C407.808 101.915 408.083 103.997 407.945 106.072L407.725 107.078C408.27 107.113 408.795 107.293 409.246 107.6C409.698 107.907 410.058 108.329 410.291 108.823C410.644 109.549 410.812 110.351 410.78 111.158C410.748 111.964 410.516 112.75 410.106 113.446C408.407 116.404 404.778 117.664 403.853 117.953C403.137 118.958 399.416 123.951 395.579 125.442C394.074 126.046 392.473 126.375 390.852 126.413V126.413ZM395.082 93.0937C392.273 93.0937 389.303 93.6715 387.708 94.885C386.182 96.2164 385.246 98.0995 385.108 100.12C385.108 100.328 382.727 115.006 383.513 118.485C384.172 121.42 385.489 123.431 387.419 124.46C390.309 125.997 393.799 124.933 395.162 124.402C399.011 122.899 402.987 117.213 403.033 117.156L403.148 116.982L403.356 116.924C403.356 116.924 407.436 115.769 409.135 112.903C409.465 112.366 409.652 111.754 409.678 111.125C409.705 110.496 409.569 109.87 409.285 109.308C409.1 108.933 408.799 108.627 408.426 108.435C408.054 108.244 407.63 108.177 407.217 108.245L406.269 108.395L406.847 105.899C406.943 104.031 406.692 102.162 406.107 100.386C405.46 98.7913 403.565 94.9428 399.704 93.7062C398.204 93.2667 396.645 93.0601 395.082 93.0937V93.0937Z" fill="#263238"/>
<path d="M393.706 107.656C393.568 108.245 393.706 108.811 393.984 108.811C394.261 108.811 394.631 108.465 394.769 107.875C394.908 107.286 394.77 106.72 394.492 106.72C394.215 106.72 393.845 107.066 393.706 107.656Z" fill="#263238"/>
<path d="M387.431 106.477C387.292 107.055 387.431 107.633 387.708 107.633C387.986 107.633 388.355 107.286 388.494 106.708C388.633 106.13 388.494 105.552 388.217 105.552C387.939 105.552 387.57 105.887 387.431 106.477Z" fill="#263238"/>
<path d="M397.636 105.564C397.544 105.564 397.454 105.538 397.376 105.489C397.298 105.44 397.236 105.37 397.197 105.286C396.884 104.752 396.444 104.303 395.916 103.981C395.387 103.658 394.787 103.471 394.169 103.437C394.103 103.433 394.04 103.416 393.981 103.387C393.922 103.357 393.87 103.317 393.827 103.268C393.784 103.218 393.751 103.161 393.731 103.099C393.71 103.037 393.702 102.971 393.706 102.906V102.906C393.721 102.774 393.785 102.653 393.886 102.567C393.987 102.481 394.117 102.437 394.25 102.443C395.039 102.49 395.805 102.735 396.475 103.155C397.146 103.575 397.7 104.157 398.086 104.847C398.117 104.903 398.136 104.965 398.143 105.029C398.149 105.092 398.143 105.156 398.125 105.217C398.107 105.279 398.077 105.336 398.036 105.385C397.996 105.435 397.946 105.476 397.89 105.506C397.812 105.549 397.724 105.569 397.636 105.564V105.564Z" fill="#263238"/>
<path d="M385.871 104.223C385.736 104.223 385.607 104.168 385.512 104.073C385.466 104.027 385.429 103.972 385.404 103.911C385.379 103.851 385.366 103.786 385.366 103.72C385.366 103.655 385.379 103.59 385.404 103.53C385.429 103.469 385.466 103.414 385.512 103.368V103.368C386.025 102.839 386.69 102.482 387.414 102.345C388.138 102.209 388.887 102.299 389.557 102.605C389.615 102.638 389.665 102.681 389.705 102.733C389.745 102.785 389.775 102.844 389.792 102.908C389.809 102.971 389.814 103.037 389.805 103.102C389.797 103.167 389.775 103.23 389.742 103.287C389.683 103.394 389.586 103.474 389.471 103.513C389.355 103.551 389.229 103.545 389.118 103.495V103.495C388.629 103.285 388.087 103.229 387.564 103.334C387.042 103.439 386.564 103.701 386.194 104.085C386.108 104.17 385.992 104.219 385.871 104.223V104.223Z" fill="#263238"/>
<path d="M390.089 112.66C389.66 112.649 389.245 112.507 388.9 112.253C388.555 111.999 388.296 111.645 388.159 111.238C387.962 110.464 388.482 109.921 388.945 109.447C389.311 109.144 389.584 108.743 389.731 108.291C389.973 107.136 390.274 105.009 390.274 104.997C390.283 104.932 390.305 104.869 390.338 104.813C390.372 104.756 390.416 104.706 390.468 104.666C390.521 104.627 390.581 104.598 390.645 104.581C390.708 104.565 390.775 104.561 390.84 104.57C390.905 104.579 390.968 104.601 391.025 104.634C391.082 104.668 391.131 104.712 391.171 104.764C391.211 104.817 391.24 104.877 391.256 104.941C391.273 105.004 391.277 105.071 391.268 105.136V105.136C391.268 105.229 390.956 107.263 390.701 108.488C390.53 109.131 390.167 109.707 389.661 110.14C389.257 110.556 389.072 110.764 389.118 110.973C389.268 111.562 390.158 111.643 390.158 111.654C390.224 111.659 390.287 111.676 390.346 111.705C390.405 111.734 390.457 111.775 390.5 111.824C390.543 111.874 390.576 111.931 390.596 111.993C390.617 112.055 390.625 112.121 390.621 112.186V112.186C390.618 112.251 390.602 112.315 390.574 112.375C390.546 112.434 390.507 112.487 390.459 112.531C390.41 112.575 390.354 112.609 390.292 112.631C390.231 112.653 390.166 112.663 390.1 112.66H390.089Z" fill="#263238"/>
<path d="M392.631 116.728C392.15 116.729 391.671 116.658 391.21 116.52C391.148 116.5 391.09 116.468 391.04 116.426C390.99 116.384 390.949 116.333 390.919 116.275C390.889 116.217 390.87 116.154 390.865 116.089C390.859 116.024 390.867 115.958 390.886 115.896V115.896C390.929 115.769 391.019 115.664 391.138 115.604C391.257 115.543 391.395 115.532 391.522 115.572C391.967 115.715 392.438 115.761 392.902 115.707C393.366 115.653 393.814 115.501 394.215 115.26C394.267 115.221 394.327 115.192 394.39 115.176C394.454 115.159 394.52 115.155 394.585 115.165C394.65 115.174 394.712 115.195 394.769 115.229C394.825 115.262 394.875 115.306 394.914 115.358C394.953 115.411 394.982 115.47 394.999 115.534C395.015 115.597 395.019 115.663 395.01 115.728C395.001 115.793 394.979 115.856 394.945 115.912C394.912 115.969 394.868 116.018 394.816 116.058C394.177 116.507 393.412 116.742 392.631 116.728V116.728Z" fill="#263238"/>
<path d="M403.056 89.7074C403.056 89.7074 398.086 85.4082 393.336 85.4082C388.587 85.4082 384.761 88.1241 381.779 88.3437C378.798 88.5633 376.81 85.8589 374.995 89.4994C373.181 93.1399 379.965 99.2074 384.484 100.12C389.003 101.033 395.324 99.6697 397.139 99.4385C398.866 99.3114 400.601 99.3114 402.328 99.4385C402.328 99.4385 400.976 103.726 402.328 105.09C402.807 105.468 403.197 105.946 403.471 106.491C403.744 107.037 403.895 107.635 403.911 108.245C403.993 109.233 404.143 110.214 404.362 111.181L405.714 111.631L406.396 109.147C408.227 107.194 409.476 104.768 410.002 102.143C410.684 98.0864 407.297 94.0529 407.297 94.0529L403.056 89.7074Z" fill="#263238"/>
<path d="M389.28 98.9185C387.507 98.9187 385.738 98.7796 383.987 98.5024C383.924 98.4911 383.869 98.4557 383.832 98.4039C383.795 98.352 383.78 98.2878 383.79 98.225V98.225C383.793 98.1935 383.802 98.1629 383.818 98.1351C383.833 98.1073 383.853 98.0829 383.878 98.0634C383.903 98.0439 383.932 98.0297 383.962 98.0217C383.993 98.0137 384.025 98.0121 384.056 98.017V98.017C384.126 98.017 391.776 99.4385 397.682 96.9884C399.289 96.3297 400.202 95.4398 400.41 94.3303C400.814 92.2038 398.468 89.9155 398.445 89.8924C398.42 89.8696 398.4 89.8419 398.386 89.8111C398.373 89.7803 398.366 89.7469 398.366 89.7132C398.366 89.6795 398.373 89.6462 398.386 89.6153C398.4 89.5845 398.42 89.5568 398.445 89.5341C398.494 89.4894 398.558 89.4647 398.624 89.4647C398.69 89.4647 398.754 89.4894 398.803 89.5341C398.907 89.6265 401.369 92.0304 400.907 94.4227C400.709 95.1456 400.328 95.8048 399.799 96.3356C399.27 96.8665 398.612 97.2507 397.89 97.4507C395.139 98.4813 392.217 98.9794 389.28 98.9185V98.9185Z" fill="white"/>
<path d="M401.531 99.5425C401.469 99.5431 401.409 99.5211 401.362 99.4807C401.315 99.4403 401.285 99.3842 401.276 99.3229C401.27 99.2572 401.289 99.1916 401.33 99.1398C401.371 99.088 401.43 99.0542 401.496 99.0456C401.577 99.0456 403.449 98.8029 404.42 96.087C404.54 95.6074 404.551 95.1067 404.451 94.6224C404.351 94.1381 404.143 93.6827 403.842 93.2901C402.848 91.7245 401.477 90.4332 399.855 89.5341C399.787 89.5341 399.723 89.5073 399.675 89.4596C399.627 89.4119 399.6 89.3472 399.6 89.2798C399.6 89.2154 399.626 89.1537 399.672 89.1082C399.717 89.0627 399.779 89.0371 399.843 89.0371V89.0371C400.375 89.0371 402.628 90.6782 403.969 92.5851C404.409 93.075 404.722 93.6649 404.881 94.3035C405.04 94.9421 405.04 95.6099 404.882 96.2487C403.796 99.2883 401.635 99.5425 401.542 99.5425H401.531Z" fill="white"/>
<path d="M196.841 111.662H197.662V122.943H196.841V111.662ZM210.78 111.662V122.943H210.103L202.416 113.145V122.943H201.594V111.662H202.287L209.958 121.461V111.662H210.78ZM223.587 111.662L218.559 122.943H217.737L212.708 111.662H213.611L218.172 121.88L222.733 111.662H223.587ZM225.406 111.662H226.228V122.943H225.406V111.662ZM232.319 112.403H228.257V111.662H237.202V112.403H233.141V122.943H232.319V112.403ZM245.652 119.768H239.109L237.675 122.943H236.788L241.978 111.662H242.8L247.989 122.943H247.103L245.652 119.768ZM245.346 119.075L242.381 112.564L239.431 119.075H245.346ZM251.63 112.403H247.569V111.662H256.513V112.403H252.452V122.943H251.63V112.403ZM258.552 111.662H259.374V122.943H258.552V111.662ZM268.091 123.024C266.985 123.024 265.985 122.777 265.094 122.283C264.202 121.778 263.498 121.09 262.982 120.22C262.477 119.349 262.225 118.377 262.225 117.303C262.225 116.228 262.477 115.256 262.982 114.386C263.498 113.515 264.202 112.833 265.094 112.339C265.985 111.834 266.985 111.581 268.091 111.581C269.198 111.581 270.197 111.828 271.089 112.323C271.981 112.817 272.679 113.499 273.184 114.369C273.7 115.24 273.958 116.217 273.958 117.303C273.958 118.388 273.7 119.366 273.184 120.236C272.679 121.106 271.981 121.788 271.089 122.283C270.197 122.777 269.198 123.024 268.091 123.024ZM268.091 122.266C269.037 122.266 269.891 122.052 270.654 121.622C271.417 121.192 272.018 120.601 272.459 119.849C272.899 119.086 273.12 118.237 273.12 117.303C273.12 116.368 272.899 115.524 272.459 114.772C272.018 114.01 271.417 113.413 270.654 112.983C269.891 112.554 269.037 112.339 268.091 112.339C267.146 112.339 266.286 112.554 265.513 112.983C264.75 113.413 264.148 114.01 263.708 114.772C263.267 115.524 263.047 116.368 263.047 117.303C263.047 118.237 263.267 119.086 263.708 119.849C264.148 120.601 264.75 121.192 265.513 121.622C266.286 122.052 267.146 122.266 268.091 122.266ZM285.995 111.662V122.943H285.318L277.63 113.145V122.943H276.808V111.662H277.501L285.173 121.461V111.662H285.995Z" fill="#263238"/>
</svg>
