<svg width="606" height="116" viewBox="0 0 606 116" fill="none" xmlns="http://www.w3.org/2000/svg">
<path d="M170.136 32.68C170.328 32.056 170.664 31.6 171.144 31.312C171.624 30.976 172.152 30.808 172.728 30.808C173.496 30.808 174.144 31.048 174.672 31.528C175.248 31.96 175.536 32.56 175.536 33.328C175.536 33.664 175.464 34.048 175.32 34.48L159.048 80.344C158.808 81.016 158.4 81.544 157.824 81.928C157.248 82.264 156.6 82.432 155.88 82.432C155.208 82.432 154.584 82.264 154.008 81.928C153.432 81.544 153.024 81.016 152.784 80.344L138.672 40.456L124.416 80.344C124.176 81.016 123.768 81.544 123.192 81.928C122.616 82.264 121.992 82.432 121.32 82.432C120.648 82.432 120.024 82.264 119.448 81.928C118.872 81.544 118.464 81.016 118.224 80.344L101.88 34.48C101.736 34.096 101.664 33.736 101.664 33.4C101.664 32.632 101.952 32.008 102.528 31.528C103.152 31.048 103.848 30.808 104.616 30.808C105.192 30.808 105.72 30.976 106.2 31.312C106.728 31.6 107.088 32.056 107.28 32.68L121.464 73.576L135.864 33.112C136.104 32.392 136.488 31.864 137.016 31.528C137.544 31.144 138.12 30.952 138.744 30.952C139.368 30.952 139.944 31.144 140.472 31.528C141 31.912 141.384 32.464 141.624 33.184L155.808 73.72L170.136 32.68ZM206.696 46.216C207.608 46.216 208.304 46.48 208.784 47.008C209.312 47.536 209.576 48.232 209.576 49.096V79.552C209.576 80.368 209.312 81.04 208.784 81.568C208.304 82.096 207.608 82.36 206.696 82.36C205.832 82.36 205.136 82.12 204.608 81.64C204.128 81.112 203.888 80.44 203.888 79.624V76.024C202.784 78.136 201.224 79.744 199.208 80.848C197.24 81.952 195.008 82.504 192.512 82.504C188.336 82.504 185.192 81.352 183.08 79.048C180.968 76.696 179.912 73.24 179.912 68.68V49.096C179.912 48.232 180.176 47.536 180.704 47.008C181.232 46.48 181.952 46.216 182.864 46.216C183.776 46.216 184.472 46.48 184.952 47.008C185.48 47.536 185.744 48.232 185.744 49.096V68.536C185.744 71.656 186.368 73.96 187.616 75.448C188.864 76.888 190.832 77.608 193.52 77.608C196.592 77.608 199.064 76.624 200.936 74.656C202.808 72.64 203.744 70 203.744 66.736V49.096C203.744 48.232 204.008 47.536 204.536 47.008C205.064 46.48 205.784 46.216 206.696 46.216ZM234.888 82.504C231.624 82.504 228.72 81.76 226.176 80.272C223.68 78.784 221.736 76.672 220.344 73.936C219 71.2 218.328 68.032 218.328 64.432C218.328 60.832 219.024 57.64 220.416 54.856C221.856 52.072 223.848 49.912 226.392 48.376C228.936 46.84 231.864 46.072 235.176 46.072C237 46.072 238.8 46.336 240.576 46.864C242.4 47.344 243.984 48.064 245.328 49.024C246.192 49.6 246.792 50.176 247.128 50.752C247.512 51.28 247.704 51.88 247.704 52.552C247.704 53.224 247.512 53.776 247.128 54.208C246.792 54.64 246.336 54.856 245.76 54.856C245.424 54.856 245.064 54.76 244.68 54.568C244.296 54.376 243.96 54.184 243.672 53.992C243.432 53.8 243.264 53.68 243.168 53.632C241.92 52.816 240.72 52.168 239.568 51.688C238.464 51.208 237.096 50.968 235.464 50.968C231.96 50.968 229.224 52.168 227.256 54.568C225.336 56.92 224.376 60.208 224.376 64.432C224.376 68.656 225.336 71.92 227.256 74.224C229.224 76.528 231.96 77.68 235.464 77.68C237.096 77.68 238.488 77.44 239.64 76.96C240.84 76.48 242.04 75.832 243.24 75.016C243.768 74.68 244.272 74.392 244.752 74.152C245.232 73.912 245.64 73.792 245.976 73.792C246.504 73.792 246.936 74.008 247.272 74.44C247.656 74.872 247.848 75.424 247.848 76.096C247.848 76.72 247.68 77.296 247.344 77.824C247.008 78.304 246.384 78.856 245.472 79.48C244.128 80.392 242.496 81.136 240.576 81.712C238.704 82.24 236.808 82.504 234.888 82.504ZM272.581 46.072C276.709 46.072 279.829 47.248 281.941 49.6C284.053 51.904 285.109 55.36 285.109 59.968V79.48C285.109 80.392 284.845 81.112 284.317 81.64C283.789 82.12 283.093 82.36 282.229 82.36C281.317 82.36 280.597 82.12 280.069 81.64C279.541 81.112 279.277 80.392 279.277 79.48V60.112C279.277 56.992 278.629 54.688 277.333 53.2C276.085 51.712 274.069 50.968 271.285 50.968C268.069 50.968 265.501 51.952 263.581 53.92C261.661 55.888 260.701 58.552 260.701 61.912V79.48C260.701 80.392 260.437 81.112 259.909 81.64C259.429 82.12 258.733 82.36 257.821 82.36C256.909 82.36 256.189 82.12 255.661 81.64C255.133 81.112 254.869 80.392 254.869 79.48V33.688C254.869 32.872 255.133 32.2 255.661 31.672C256.237 31.144 256.957 30.88 257.821 30.88C258.733 30.88 259.429 31.144 259.909 31.672C260.437 32.152 260.701 32.824 260.701 33.688V52.552C261.853 50.44 263.461 48.832 265.525 47.728C267.589 46.624 269.941 46.072 272.581 46.072ZM322.935 73.864C323.463 73.864 323.919 74.08 324.303 74.512C324.687 74.944 324.879 75.496 324.879 76.168C324.879 77.368 324.039 78.472 322.359 79.48C320.631 80.488 318.807 81.256 316.887 81.784C314.967 82.264 313.095 82.504 311.271 82.504C305.847 82.504 301.551 80.896 298.383 77.68C295.263 74.464 293.703 70.024 293.703 64.36C293.703 60.76 294.399 57.592 295.791 54.856C297.183 52.072 299.127 49.912 301.623 48.376C304.167 46.84 307.047 46.072 310.263 46.072C314.823 46.072 318.447 47.56 321.135 50.536C323.823 53.512 325.167 57.544 325.167 62.632C325.167 63.592 324.975 64.288 324.591 64.72C324.207 65.152 323.583 65.368 322.719 65.368H299.535C299.967 73.624 303.879 77.752 311.271 77.752C313.143 77.752 314.751 77.512 316.095 77.032C317.439 76.504 318.879 75.808 320.415 74.944C321.663 74.224 322.503 73.864 322.935 73.864ZM310.335 50.608C307.263 50.608 304.791 51.568 302.919 53.488C301.095 55.408 300.015 58.12 299.679 61.624H320.055C319.959 58.072 319.071 55.36 317.391 53.488C315.711 51.568 313.359 50.608 310.335 50.608ZM372.783 46.072C380.559 46.072 384.447 50.704 384.447 59.968V79.48C384.447 80.392 384.183 81.112 383.655 81.64C383.127 82.12 382.431 82.36 381.567 82.36C380.703 82.36 379.983 82.12 379.407 81.64C378.879 81.112 378.615 80.392 378.615 79.48V60.112C378.615 56.896 378.039 54.568 376.887 53.128C375.735 51.688 373.935 50.968 371.487 50.968C368.559 50.968 366.255 51.952 364.575 53.92C362.895 55.888 362.055 58.552 362.055 61.912V79.48C362.055 80.392 361.767 81.112 361.191 81.64C360.663 82.12 359.967 82.36 359.103 82.36C358.239 82.36 357.543 82.12 357.015 81.64C356.487 81.112 356.223 80.392 356.223 79.48V60.112C356.223 56.896 355.647 54.568 354.495 53.128C353.343 51.688 351.519 50.968 349.023 50.968C346.143 50.968 343.839 51.952 342.111 53.92C340.431 55.888 339.591 58.552 339.591 61.912V79.48C339.591 80.392 339.327 81.112 338.799 81.64C338.271 82.12 337.575 82.36 336.711 82.36C335.847 82.36 335.127 82.12 334.551 81.64C334.023 81.112 333.759 80.392 333.759 79.48V49.096C333.759 48.232 334.023 47.536 334.551 47.008C335.127 46.48 335.847 46.216 336.711 46.216C337.527 46.216 338.199 46.48 338.727 47.008C339.255 47.488 339.519 48.16 339.519 49.024V52.48C340.575 50.416 342.039 48.832 343.911 47.728C345.783 46.624 347.943 46.072 350.391 46.072C355.863 46.072 359.439 48.376 361.119 52.984C362.127 50.872 363.663 49.192 365.727 47.944C367.791 46.696 370.143 46.072 372.783 46.072ZM409.4 46.072C418.184 46.072 422.576 50.68 422.576 59.896V79.48C422.576 80.344 422.312 81.04 421.784 81.568C421.304 82.096 420.632 82.36 419.768 82.36C418.904 82.36 418.208 82.096 417.68 81.568C417.152 81.04 416.888 80.344 416.888 79.48V76.024C415.976 78.088 414.584 79.696 412.712 80.848C410.84 81.952 408.68 82.504 406.232 82.504C403.976 82.504 401.888 82.048 399.968 81.136C398.096 80.224 396.608 78.952 395.504 77.32C394.4 75.688 393.848 73.888 393.848 71.92C393.848 69.28 394.52 67.24 395.864 65.8C397.208 64.312 399.416 63.256 402.488 62.632C405.56 61.96 409.832 61.624 415.304 61.624H416.888V59.248C416.888 56.368 416.288 54.256 415.088 52.912C413.936 51.568 412.04 50.896 409.4 50.896C406.136 50.896 402.824 51.784 399.464 53.56C398.168 54.376 397.256 54.784 396.728 54.784C396.152 54.784 395.672 54.568 395.288 54.136C394.904 53.704 394.712 53.152 394.712 52.48C394.712 51.808 394.904 51.232 395.288 50.752C395.72 50.224 396.392 49.696 397.304 49.168C398.984 48.208 400.88 47.464 402.992 46.936C405.152 46.36 407.288 46.072 409.4 46.072ZM407.024 77.896C409.904 77.896 412.256 76.936 414.08 75.016C415.952 73.048 416.888 70.528 416.888 67.456V65.368H415.592C411.368 65.368 408.152 65.56 405.944 65.944C403.736 66.28 402.152 66.88 401.192 67.744C400.28 68.56 399.824 69.784 399.824 71.416C399.824 73.288 400.496 74.848 401.84 76.096C403.232 77.296 404.96 77.896 407.024 77.896ZM450.604 46.216C452.62 46.072 453.628 46.888 453.628 48.664C453.628 49.432 453.412 50.056 452.98 50.536C452.548 50.968 451.804 51.232 450.748 51.328L448.588 51.544C445.372 51.832 442.972 52.984 441.388 55C439.852 56.968 439.084 59.296 439.084 61.984V79.48C439.084 80.44 438.82 81.16 438.292 81.64C437.764 82.12 437.068 82.36 436.204 82.36C435.34 82.36 434.62 82.12 434.044 81.64C433.516 81.112 433.252 80.392 433.252 79.48V49.096C433.252 48.184 433.54 47.488 434.116 47.008C434.692 46.48 435.388 46.216 436.204 46.216C436.972 46.216 437.62 46.48 438.148 47.008C438.676 47.488 438.94 48.16 438.94 49.024V53.056C439.948 50.944 441.364 49.336 443.188 48.232C445.06 47.128 447.196 46.48 449.596 46.288L450.604 46.216ZM486.642 77.392C487.41 78.112 487.794 78.88 487.794 79.696C487.794 80.416 487.53 81.04 487.002 81.568C486.522 82.096 485.922 82.36 485.202 82.36C484.578 82.36 483.93 82.072 483.258 81.496L464.466 65.296V79.48C464.466 80.392 464.178 81.112 463.602 81.64C463.074 82.12 462.402 82.36 461.586 82.36C460.722 82.36 460.002 82.12 459.426 81.64C458.898 81.112 458.634 80.392 458.634 79.48V33.76C458.634 32.848 458.898 32.152 459.426 31.672C460.002 31.144 460.722 30.88 461.586 30.88C462.402 30.88 463.074 31.144 463.602 31.672C464.178 32.152 464.466 32.848 464.466 33.76V62.992L481.674 47.224C482.25 46.648 482.898 46.36 483.618 46.36C484.338 46.36 484.962 46.624 485.49 47.152C486.018 47.68 486.282 48.304 486.282 49.024C486.282 49.84 485.946 50.56 485.274 51.184L471.09 63.856L486.642 77.392ZM510.553 77.752C512.233 77.896 513.073 78.664 513.073 80.056C513.073 80.872 512.761 81.496 512.137 81.928C511.561 82.312 510.673 82.456 509.473 82.36L507.529 82.216C503.689 81.928 500.857 80.776 499.033 78.76C497.209 76.744 496.297 73.696 496.297 69.616V51.544H491.473C490.657 51.544 490.009 51.352 489.529 50.968C489.097 50.536 488.881 49.984 488.881 49.312C488.881 48.592 489.097 48.016 489.529 47.584C490.009 47.152 490.657 46.936 491.473 46.936H496.297V38.8C496.297 37.888 496.561 37.192 497.089 36.712C497.617 36.184 498.337 35.92 499.249 35.92C500.113 35.92 500.809 36.184 501.337 36.712C501.865 37.192 502.129 37.888 502.129 38.8V46.936H510.121C510.889 46.936 511.489 47.152 511.921 47.584C512.401 48.016 512.641 48.592 512.641 49.312C512.641 49.984 512.401 50.536 511.921 50.968C511.489 51.352 510.889 51.544 510.121 51.544H502.129V69.904C502.129 72.544 502.657 74.464 503.713 75.664C504.817 76.816 506.449 77.464 508.609 77.608L510.553 77.752ZM522.686 82.36C521.534 82.36 520.574 82 519.806 81.28C519.038 80.512 518.654 79.528 518.654 78.328C518.654 77.128 519.038 76.144 519.806 75.376C520.574 74.608 521.534 74.224 522.686 74.224C523.79 74.224 524.702 74.608 525.422 75.376C526.19 76.144 526.574 77.128 526.574 78.328C526.574 79.528 526.19 80.512 525.422 81.28C524.702 82 523.79 82.36 522.686 82.36ZM549.536 82.504C546.272 82.504 543.368 81.76 540.824 80.272C538.328 78.784 536.384 76.672 534.992 73.936C533.648 71.2 532.976 68.032 532.976 64.432C532.976 60.832 533.672 57.64 535.064 54.856C536.504 52.072 538.496 49.912 541.04 48.376C543.584 46.84 546.512 46.072 549.824 46.072C551.648 46.072 553.448 46.336 555.224 46.864C557.048 47.344 558.632 48.064 559.976 49.024C560.84 49.6 561.44 50.176 561.776 50.752C562.16 51.28 562.352 51.88 562.352 52.552C562.352 53.224 562.16 53.776 561.776 54.208C561.44 54.64 560.984 54.856 560.408 54.856C560.072 54.856 559.712 54.76 559.328 54.568C558.944 54.376 558.608 54.184 558.32 53.992C558.08 53.8 557.912 53.68 557.816 53.632C556.568 52.816 555.368 52.168 554.216 51.688C553.112 51.208 551.744 50.968 550.112 50.968C546.608 50.968 543.872 52.168 541.904 54.568C539.984 56.92 539.024 60.208 539.024 64.432C539.024 68.656 539.984 71.92 541.904 74.224C543.872 76.528 546.608 77.68 550.112 77.68C551.744 77.68 553.136 77.44 554.288 76.96C555.488 76.48 556.688 75.832 557.888 75.016C558.416 74.68 558.92 74.392 559.4 74.152C559.88 73.912 560.288 73.792 560.624 73.792C561.152 73.792 561.584 74.008 561.92 74.44C562.304 74.872 562.496 75.424 562.496 76.096C562.496 76.72 562.328 77.296 561.992 77.824C561.656 78.304 561.032 78.856 560.12 79.48C558.776 80.392 557.144 81.136 555.224 81.712C553.352 82.24 551.456 82.504 549.536 82.504ZM587.229 46.072C591.357 46.072 594.477 47.248 596.589 49.6C598.701 51.904 599.757 55.36 599.757 59.968V79.48C599.757 80.392 599.493 81.112 598.965 81.64C598.437 82.12 597.741 82.36 596.877 82.36C595.965 82.36 595.245 82.12 594.717 81.64C594.189 81.112 593.925 80.392 593.925 79.48V60.112C593.925 56.992 593.277 54.688 591.981 53.2C590.733 51.712 588.717 50.968 585.933 50.968C582.717 50.968 580.149 51.952 578.229 53.92C576.309 55.888 575.349 58.552 575.349 61.912V79.48C575.349 80.392 575.085 81.112 574.557 81.64C574.077 82.12 573.381 82.36 572.469 82.36C571.557 82.36 570.837 82.12 570.309 81.64C569.781 81.112 569.517 80.392 569.517 79.48V33.688C569.517 32.872 569.781 32.2 570.309 31.672C570.885 31.144 571.605 30.88 572.469 30.88C573.381 30.88 574.077 31.144 574.557 31.672C575.085 32.152 575.349 32.824 575.349 33.688V52.552C576.501 50.44 578.109 48.832 580.173 47.728C582.237 46.624 584.589 46.072 587.229 46.072Z" fill="black"/>
<path d="M46.2013 21.9516C46.2013 21.9516 44.0754 17.8496 41.493 16.3301C38.9105 14.8106 33.259 17.393 33.259 17.393C33.259 17.393 36.5975 13.9048 39.3297 13.1488C42.0618 12.3928 46.0067 15.5741 46.0067 15.5741C45.6849 13.4619 45.184 11.381 44.5096 9.35371C43.2969 5.55861 40.2654 1 40.2654 1C40.2654 1 45.7297 4.33849 46.9423 6.62154C47.8397 8.48142 48.5906 10.4085 49.1879 12.3853C49.1879 12.3853 50.1012 8.13359 50.8572 6.77125C51.6132 5.4089 55.5655 4.18879 55.5655 4.18879C55.5655 4.18879 52.983 7.68447 52.6761 9.19652C52.3692 10.7086 52.0698 14.0545 52.0698 14.0545C53.2569 13.1265 54.5934 12.4075 56.0221 11.9287C57.8411 11.4796 60.2663 14.0545 60.2663 14.0545C58.7587 13.9061 57.2388 14.1646 55.8649 14.8031C53.784 15.8585 51.5084 24.0925 51.5084 24.0925L46.9573 23.6358L46.2013 21.9516Z" fill="#92E3A9"/>
<path opacity="0.37" d="M46.2013 21.9516C46.2013 21.9516 44.0754 17.8496 41.493 16.3301C38.9105 14.8106 33.259 17.393 33.259 17.393C33.259 17.393 36.5975 13.9048 39.3297 13.1488C42.0618 12.3928 46.0067 15.5741 46.0067 15.5741C45.6849 13.4619 45.184 11.381 44.5096 9.35371C43.2969 5.55861 40.2654 1 40.2654 1C40.2654 1 45.7297 4.33849 46.9423 6.62154C47.8397 8.48142 48.5906 10.4085 49.1879 12.3853C49.1879 12.3853 50.1012 8.13359 50.8572 6.77125C51.6132 5.4089 55.5655 4.18879 55.5655 4.18879C55.5655 4.18879 52.983 7.68447 52.6761 9.19652C52.3692 10.7086 52.0698 14.0545 52.0698 14.0545C53.2569 13.1265 54.5934 12.4075 56.0221 11.9287C57.8411 11.4796 60.2663 14.0545 60.2663 14.0545C58.7587 13.9061 57.2388 14.1646 55.8649 14.8031C53.784 15.8585 51.5084 24.0925 51.5084 24.0925L46.9573 23.6358L46.2013 21.9516Z" fill="black"/>
<path d="M46.2013 21.9516C46.2013 21.9516 44.0754 17.8496 41.493 16.3301C38.9105 14.8106 33.259 17.393 33.259 17.393C33.259 17.393 36.5975 13.9048 39.3297 13.1488C42.0618 12.3928 46.0067 15.5741 46.0067 15.5741C45.6849 13.4619 45.184 11.381 44.5096 9.35371C43.2969 5.55861 40.2654 1 40.2654 1C40.2654 1 45.7297 4.33849 46.9423 6.62154C47.8397 8.48142 48.5906 10.4085 49.1879 12.3853C49.1879 12.3853 50.1012 8.13359 50.8572 6.77125C51.6132 5.4089 55.5655 4.18879 55.5655 4.18879C55.5655 4.18879 52.983 7.68447 52.6761 9.19652C52.3692 10.7086 52.0698 14.0545 52.0698 14.0545C53.2569 13.1265 54.5934 12.4075 56.0221 11.9287C57.8411 11.4796 60.2663 14.0545 60.2663 14.0545C58.7587 13.9061 57.2388 14.1646 55.8649 14.8031C53.784 15.8585 51.5084 24.0925 51.5084 24.0925L46.9573 23.6358L46.2013 21.9516Z" stroke="#263238" stroke-linecap="round" stroke-linejoin="round"/>
<path d="M46.2013 21.9516C46.2013 21.9516 45.4527 17.2433 43.7685 14.818C42.0843 12.3928 36.0286 10.1097 36.0286 10.1097C36.0286 10.1097 41.493 9.04681 44.6817 11.3224C47.8705 13.5979 49.3826 19.6761 49.3826 19.6761C49.3826 19.6761 50.2958 12.9916 53.1777 9.94506C56.0595 6.8985 63.5 10.8508 63.5 10.8508C63.5 10.8508 57.886 9.18154 56.067 11.9137C54.7287 14.1586 53.6584 16.5529 52.8783 19.0473C52.8783 19.0473 56.5162 16.8017 58.4923 17.8347C60.4684 18.8676 61.2245 22.2361 61.2245 22.2361C61.2245 22.2361 57.4294 19.8108 55.4532 20.4171C53.4771 21.0234 50.2958 26.0312 50.2958 26.0312L47.107 24.9682L46.2013 21.9516Z" fill="#92E3A9" stroke="#263238" stroke-linecap="round" stroke-linejoin="round"/>
<path d="M46.089 27.6256C45.1256 26.082 44.2412 24.4906 43.4392 22.8574C42.5259 20.8887 41.3133 19.6761 39.6441 19.9755C38.1968 20.3825 36.8154 20.9951 35.5421 21.7944C35.5421 21.7944 38.5811 17.6999 42.5259 17.8496C46.4707 17.9993 47.9903 23.0146 47.9903 23.0146C47.9987 21.7983 48.2707 20.5983 48.7876 19.4973C49.3046 18.3963 50.054 17.4204 50.9844 16.637C54.1732 14.0545 60.7154 15.5741 61.464 16.637C61.464 16.637 56.1494 16.3301 54.4801 18.3063C53.5365 19.3682 52.8138 20.6074 52.3543 21.9516C52.3543 21.9516 55.3484 19.706 57.6689 20.5818C59.9894 21.4576 60.8502 29.6915 60.8502 29.6915C60.8502 29.6915 56.2991 23.7706 54.9367 24.2272C53.5744 24.6838 51.0743 28.1046 51.0743 28.1046L46.089 27.6256Z" fill="#92E3A9" stroke="#263238" stroke-linecap="round" stroke-linejoin="round"/>
<path d="M47.2567 64.4462C43.9969 64.4462 40.8707 63.1513 38.5656 60.8463C36.2606 58.5413 34.9657 55.415 34.9657 52.1552V43.9213C34.9657 31.9446 40.4674 26.1584 47.2567 26.1584C54.0534 26.1584 59.5552 30.2604 59.5552 43.9213V52.1552C59.5552 53.7699 59.2371 55.3688 58.6189 56.8605C58.0008 58.3522 57.0947 59.7075 55.9526 60.8489C54.8105 61.9904 53.4546 62.8955 51.9626 63.5128C50.4705 64.13 48.8714 64.4472 47.2567 64.4462V64.4462Z" fill="white" stroke="#263238" stroke-linecap="round" stroke-linejoin="round"/>
<path d="M58.5597 55.7707C58.2553 54.558 57.9234 53.3629 57.5641 52.1851C58.2378 51.766 58.8965 51.3842 59.5552 51.0249V50.1716C58.8067 50.5533 58.0581 50.9725 57.3096 51.4291C56.9653 50.3213 56.606 49.1835 56.2317 48.143C57.3063 47.4957 58.4186 46.9133 59.5627 46.3989V44.303C59.2408 43.4946 58.904 42.6862 58.5597 41.8852L59.4953 41.5259C59.4953 41.249 59.4953 40.987 59.4429 40.725C59.0462 40.8747 58.6495 41.0169 58.2528 41.1816C57.7537 40.0039 57.2248 38.8512 56.6659 37.7234C57.4144 37.3641 58.1629 37.0422 58.9115 36.7353C58.8591 36.4808 58.8067 36.2338 58.7468 35.9867C57.9459 36.3161 57.1524 36.6604 56.3515 37.0497C55.8275 35.9568 55.296 34.9089 54.7721 33.8983C55.6778 33.4193 56.5985 32.9552 57.5491 32.506L57.2123 31.8324C56.2616 32.2815 55.3335 32.7531 54.4277 33.2396C53.8663 32.1692 53.3199 31.1587 52.8034 30.2455C53.5894 29.8712 54.3978 29.4969 55.2212 29.1676C55.0266 28.9729 54.8245 28.7858 54.6149 28.6136C53.8663 28.928 53.1178 29.2499 52.4366 29.5867C51.8752 28.5837 51.3512 27.6705 50.8871 26.877L51.1641 26.7722C50.7018 26.6352 50.2319 26.5252 49.7568 26.4429L49.8092 26.5177C48.8436 26.9294 47.9229 27.3711 47.0321 27.8501C46.7103 27.2738 46.4109 26.7647 46.1414 26.3006C45.8719 26.3006 45.6099 26.3755 45.3405 26.4204C45.6548 26.9444 45.9992 27.5357 46.3734 28.2019C45.2282 28.8382 44.1278 29.5194 43.1248 30.2305C42.6457 29.2649 42.2116 28.419 41.8373 27.7004C41.6202 27.8277 41.4106 27.9624 41.201 28.1046C41.5753 28.8532 42.0169 29.6915 42.511 30.6721C41.4256 31.4207 40.4151 32.2665 39.4644 33.0974C39.0452 32.3039 38.6635 31.6003 38.3266 31.0015C38.1694 31.2335 38.0122 31.4581 37.8625 31.6976C38.1694 32.259 38.5138 32.8953 38.888 33.6064C37.8476 34.5496 36.882 35.5152 35.9987 36.4658C35.9987 36.4134 35.9463 36.361 35.9238 36.3011C35.7591 36.8925 35.6244 37.5138 35.4972 38.1575L35.7966 37.8057C36.1858 38.659 36.6424 39.6396 37.129 40.7325C36.3804 41.481 35.6693 42.2969 35.0181 43.0455C35.0181 43.3674 35.0181 43.6668 35.0181 43.9961V44.2207C35.7616 43.3324 36.585 42.4117 37.4883 41.4586C37.9074 42.4017 38.3416 43.4048 38.7982 44.4527C37.8251 45.351 36.9418 46.2043 36.1484 46.9903C35.7442 45.9872 35.3624 45.074 35.0181 44.2806V46.2043L35.5795 47.5741C35.3774 47.7762 35.2052 47.9634 35.0181 48.158V49.2434L35.8789 48.3302C36.2382 49.2209 36.6275 50.1716 36.9718 51.1597C36.2831 51.8034 35.6469 52.4172 35.0555 52.9936C35.0555 53.3154 35.1154 53.6298 35.1603 53.9442C35.7891 53.3229 36.4927 52.6418 37.2562 51.9232C37.7428 53.2556 38.2293 54.6553 38.6934 56.085C37.9449 56.886 37.2712 57.642 36.6724 58.3307C36.8071 58.5702 36.9418 58.8022 37.0915 59.0268C37.6455 58.3905 38.2742 57.6944 38.9704 56.9459C39.3521 58.1884 39.7189 59.4385 40.0483 60.6886L39.2997 61.482C39.4944 61.6467 39.689 61.8114 39.8911 61.9611L40.3028 61.5494L40.5049 62.4177C40.7893 62.6048 41.0887 62.7845 41.3956 62.9566C41.2459 62.2829 41.0887 61.6093 40.9166 60.9281C41.8298 60.0074 42.8778 58.9894 44.0155 57.9339C44.3673 59.0193 44.6967 60.0897 44.9886 61.1302C44.0679 61.9686 43.2071 62.762 42.4436 63.4881C42.6981 63.6004 42.9676 63.6977 43.1921 63.7875C43.8059 63.2111 44.4721 62.5973 45.1833 61.9536C45.4153 62.7994 45.6099 63.6154 45.7821 64.4013C46.0441 64.4013 46.2986 64.4537 46.5306 64.4687C46.321 63.4806 46.0815 62.4551 45.7821 61.3922C46.8899 60.4041 48.0801 59.3636 49.3302 58.3307C49.7194 59.6556 50.0787 60.988 50.3856 62.3054C49.4724 63.0539 48.6191 63.8025 47.8406 64.4837C48.2768 64.4618 48.7116 64.4168 49.143 64.3489L50.5727 63.1363C50.6326 63.4282 50.685 63.7127 50.7449 64.0046L51.4935 63.7651C51.4111 63.3758 51.3363 63.0165 51.2464 62.5973C52.2046 61.7964 53.2001 60.9655 54.2406 60.1496C54.4053 60.7784 54.5625 61.3997 54.7122 62.0284C54.9293 61.8638 55.1463 61.6916 55.3559 61.512C55.1987 60.8907 55.0415 60.2694 54.8769 59.6406C55.9847 58.7498 57.1225 57.889 58.1704 57.0956C58.2153 57.2977 58.2603 57.5147 58.3126 57.7169C58.6741 56.9982 58.9649 56.2461 59.181 55.4712L58.5597 55.7707ZM56.6808 51.8408C55.5206 52.5894 54.3529 53.3903 53.2001 54.2362C52.8408 53.1433 52.4516 52.0504 52.0773 50.9725C53.245 50.1042 54.4277 49.2808 55.6029 48.5472C55.9772 49.6251 56.3365 50.7255 56.6808 51.8408ZM48.4469 41.7056C47.9903 40.6502 47.5412 39.6172 47.0995 38.6216C48.2074 37.8731 49.3451 37.0647 50.5802 36.3086C51.0493 37.3067 51.5234 38.3372 52.0025 39.4001C50.7898 40.1337 49.5996 40.9047 48.4394 41.7056H48.4469ZM52.3019 40.0887C52.771 41.1716 53.24 42.2944 53.7091 43.4572C52.489 44.2057 51.2913 44.9543 50.1311 45.8001C49.6745 44.6399 49.2029 43.5096 48.7388 42.4092C49.8991 41.6008 51.0892 40.8223 52.2944 40.0887H52.3019ZM47.8106 42.1472C46.8226 42.8509 45.8495 43.5695 44.9138 44.2955C44.4572 43.2626 44.0006 42.2595 43.5514 41.3014C44.4721 40.5528 45.4527 39.8043 46.4707 39.0558C46.9124 40.0663 47.3615 41.0918 47.8106 42.1472ZM46.7776 37.933C46.2612 36.7727 45.7521 35.6873 45.2806 34.6394C46.3435 33.8908 47.4738 33.1423 48.664 32.3938C49.1805 33.3893 49.7119 34.4597 50.2584 35.59C49.0457 36.3735 47.8855 37.1545 46.7776 37.933V37.933ZM46.1639 38.3746C45.1384 39.1231 44.1503 39.8717 43.2221 40.6202C42.6981 39.5049 42.1816 38.4345 41.725 37.4389C42.6532 36.6505 43.6388 35.872 44.6817 35.1035C45.1383 36.1215 45.6399 37.2218 46.1639 38.3746V38.3746ZM44.3 44.7671C43.1173 45.7028 41.972 46.6385 40.8941 47.5592C40.4824 46.5486 40.0632 45.5531 39.6515 44.6024C40.6621 43.6892 41.7624 42.7386 42.9526 41.773C43.4017 42.7386 43.8434 43.7416 44.3 44.7671ZM44.6069 45.4707C45.1059 46.6085 45.59 47.7713 46.0591 48.9589C44.8614 49.962 43.7236 50.995 42.6532 52.0055C42.1816 50.7479 41.6876 49.5054 41.1935 48.2628C42.2714 47.3645 43.4167 46.4139 44.5919 45.4707H44.6069ZM45.2132 44.9992C46.1564 44.2506 47.122 43.5545 48.11 42.8509C48.5741 43.9512 49.0382 45.0965 49.4949 46.2492C48.5217 46.9978 47.5786 47.7014 46.6654 48.4949C46.1863 47.2972 45.7072 46.122 45.2132 44.9992ZM49.7943 47.0127C50.2683 48.2154 50.7299 49.4405 51.1791 50.6881C50.2209 51.4366 49.2778 52.1851 48.3571 52.9337C47.9129 51.6811 47.4513 50.451 46.9723 49.2434C47.8855 48.4799 48.8286 47.7313 49.8317 47.0127H49.7943ZM50.423 46.5561C51.5833 45.7178 52.7809 44.9168 54.0011 44.1907C54.4652 45.366 54.9143 46.5786 55.3484 47.8137C54.1657 48.5622 52.983 49.3557 51.8078 50.224C51.3587 48.9814 50.8971 47.7563 50.423 46.5486V46.5561ZM59.3157 45.6878C58.1787 46.1963 57.0737 46.7737 56.0071 47.417C55.568 46.1893 55.1164 44.9867 54.6523 43.809C55.7077 43.2027 56.7856 42.6488 57.871 42.1547C58.3725 43.3224 58.8591 44.5051 59.3157 45.6878V45.6878ZM57.5641 41.4586C56.4689 41.9445 55.3996 42.4866 54.3604 43.0829C53.8863 41.9202 53.4122 40.7924 52.9381 39.6995C53.9362 39.1007 54.9517 38.5443 55.9847 38.0303C56.5162 39.1456 57.0476 40.2909 57.5641 41.4586ZM55.6628 37.3566C54.6648 37.8556 53.6667 38.407 52.6687 39.0108C52.1696 37.9329 51.6931 36.8975 51.2389 35.9044C52.1671 35.3355 53.1327 34.7741 54.1208 34.2352C54.6198 35.2382 55.1338 36.2787 55.6628 37.3566V37.3566ZM53.7466 33.569C52.766 34.1079 51.8078 34.6618 50.8871 35.2307C50.3407 34.1004 49.8017 33.0375 49.2927 32.0419C50.191 31.518 51.1341 31.0164 52.1072 30.5449C52.6312 31.4731 53.1777 32.4986 53.7466 33.569V33.569ZM50.1685 27.1315C50.6401 27.9325 51.1716 28.8532 51.7405 29.8787C50.7823 30.3577 49.8467 30.8592 48.9484 31.3757C48.387 30.3128 47.8556 29.3397 47.369 28.4639C48.2672 27.9849 49.2029 27.5357 50.1685 27.1315V27.1315ZM46.7103 28.8157C47.2043 29.699 47.7433 30.6871 48.3047 31.765C47.1295 32.4686 46.0067 33.2022 44.9362 33.9507C44.4123 32.8429 43.9033 31.8024 43.4392 30.8667C44.4722 30.1481 45.565 29.4595 46.7103 28.8157ZM42.8179 31.3084C43.2895 32.2441 43.791 33.2845 44.315 34.3998C43.267 35.1634 42.2689 35.9418 41.3208 36.7353C40.7769 35.6424 40.2629 34.6444 39.7788 33.7411C40.7444 32.9028 41.7475 32.0869 42.8179 31.3084V31.3084ZM36.358 37.162C37.2413 36.1639 38.2094 35.1933 39.2623 34.2501C39.7414 35.1484 40.2504 36.1514 40.7594 37.2443C39.6516 38.2024 38.626 39.168 37.6754 40.1187C37.1739 38.9959 36.7173 38.0078 36.358 37.162ZM38.0422 40.8373C38.9928 39.8717 40.0258 38.8911 41.1411 37.918C41.6402 38.916 42.1392 39.969 42.6382 41.0768C41.463 42.035 40.3926 42.9706 39.3596 43.8764C38.8805 42.8059 38.4314 41.7879 38.0048 40.8373H38.0422ZM36.4403 47.7164C37.2263 46.9229 38.1096 46.0546 39.0976 45.1489C39.5018 46.0995 39.9135 47.0801 40.3252 48.0906C39.3372 48.944 38.409 49.7823 37.5481 50.5758C37.1065 49.5428 36.7622 48.6146 36.4029 47.7164H36.4403ZM37.8326 51.3318C38.6934 50.5309 39.6216 49.685 40.6172 48.8167C41.1162 50.0493 41.6152 51.2969 42.1142 52.5594C41.0962 53.54 40.1531 54.5056 39.2848 55.4114C38.7608 54.034 38.2817 52.6492 37.7952 51.3318H37.8326ZM40.6022 60.0224C40.2654 58.7723 39.8986 57.5148 39.5018 56.2797C40.3701 55.359 41.3283 54.3859 42.3538 53.3828C42.8104 54.6179 43.252 55.8455 43.6637 57.0656C42.5484 58.1136 41.5229 59.1166 40.6022 60.0224ZM42.9601 52.8064C44.023 51.7884 45.2057 50.748 46.3659 49.7299C46.865 50.9426 47.3266 52.1752 47.7508 53.4277C46.5381 54.4532 45.3704 55.4862 44.2775 56.4893C43.8434 55.2766 43.4167 54.034 42.9601 52.8139V52.8064ZM45.5426 60.5014C45.2357 59.4535 44.8988 58.3831 44.547 57.2977C45.6399 56.2797 46.7926 55.2392 48.0202 54.2062C48.3945 55.2841 48.7688 56.3695 49.0757 57.4549C47.8331 58.5253 46.6429 59.5208 45.5426 60.5089V60.5014ZM48.634 53.6897C49.5547 52.9412 50.4979 52.1926 51.456 51.4441C51.8378 52.522 52.2046 53.6149 52.5639 54.7077C51.5908 55.4563 50.6326 56.2048 49.7044 56.9533C49.3676 55.8605 49.0083 54.7826 48.634 53.6972V53.6897ZM51.0069 61.7066C50.6925 60.3891 50.3332 59.0642 49.944 57.7468C50.8796 56.9983 51.8378 56.2123 52.8109 55.5012C53.2151 56.7737 53.5968 58.0462 53.9561 59.3187C52.9531 60.1047 51.9575 60.9206 51.0069 61.7141V61.7066ZM54.5849 58.7873C54.2331 57.5222 53.8364 56.2647 53.4471 54.9997C54.5999 54.1463 55.7601 53.3304 56.9129 52.5894C57.2647 53.787 57.6015 55.0071 57.9084 56.2348C56.8305 57.0282 55.7077 57.904 54.5849 58.7948V58.7873Z" fill="#263238"/>
<path d="M59.5178 48.5098C59.5178 50.9854 58.5344 53.3596 56.7838 55.1102C55.0333 56.8607 52.6591 57.8441 50.1835 57.8441C47.7079 57.8441 45.3337 56.8607 43.5832 55.1102C41.8326 53.3596 40.8492 50.9854 40.8492 48.5098C40.8492 43.3524 44.7266 40.0438 50.2134 40.2759C55.9098 40.5603 59.5178 43.3524 59.5178 48.5098Z" fill="white" stroke="#263238" stroke-linecap="round" stroke-linejoin="round"/>
<path d="M35.2726 31.0988L33.027 25.9937C32.2475 24.1964 31.7914 22.2757 31.6796 20.3198L31.4251 12.011H26.1853L25.9533 20.3498C25.8415 22.3056 25.3854 24.2264 24.6059 26.0237L22.3603 31.1287C21.4495 33.2289 20.9807 35.4941 20.983 37.7832V56.4967C20.983 57.0056 21.1846 57.4938 21.5438 57.8544C21.9029 58.215 22.3903 58.4185 22.8992 58.4205H34.7037C35.2139 58.4205 35.7032 58.2178 36.064 57.857C36.4248 57.4963 36.6274 57.0069 36.6274 56.4967V37.7832C36.6407 35.4856 36.1794 33.2099 35.2726 31.0988Z" fill="white" stroke="#263238" stroke-linecap="round" stroke-linejoin="round"/>
<path d="M26.2078 12.011L26.2003 14.6609H31.4775L31.455 12.011H30.5792H27.0836H26.2078Z" fill="#92E3A9" stroke="#263238" stroke-linecap="round" stroke-linejoin="round"/>
<path d="M28.3112 32.3863C28.3112 32.3863 23.6702 28.1421 22.2106 27.7453C20.7509 27.3486 16.7762 27.2139 11.6038 27.3486C6.43135 27.4833 6.83557 28.1421 8.95393 28.9355C11.0723 29.729 13.9916 28.8083 13.9916 28.8083C13.9916 28.8083 10.8103 28.6735 6.43884 32.1168C2.06737 35.5601 0.996958 37.5587 1.7979 37.6859C2.59883 37.8132 6.28913 34.9014 7.23229 34.2427C7.76078 33.8556 8.34012 33.5433 8.95393 33.3145C8.95393 33.3145 5.6379 37.162 4.17825 40.4705C2.71859 43.7791 -0.193221 49.2209 1.52842 50.2839C3.25006 51.3468 5.77264 43.7865 5.77264 43.7865C5.77264 43.7865 4.58246 50.2839 4.70971 53.4652C4.83697 56.6465 6.70083 61.9536 7.36703 59.0343C8.03323 56.115 9.22341 42.9931 9.22341 42.5664C9.22341 42.1397 10.4136 45.351 11.0723 43.3599C11.731 41.3688 11.3418 33.6813 11.7385 33.4193C12.1352 33.1573 13.0634 35.0062 14.1263 34.078C15.1893 33.1498 19.2988 29.7065 19.2988 29.7065C19.2988 29.7065 16.9109 32.4911 18.6326 32.4911C20.3542 32.4911 22.2106 30.1032 22.742 29.8338C23.2735 29.5643 28.3112 32.3863 28.3112 32.3863Z" fill="#92E3A9" stroke="#263238" stroke-linecap="round" stroke-linejoin="round"/>
<path d="M39.3521 50.4186C39.3521 50.4186 37.3685 43.3898 36.0361 38.8836C34.7037 34.3774 32.4581 31.8548 30.9984 31.3234C29.5388 30.7919 24.5685 31.8698 24.1044 35.1708C23.6403 38.4719 25.302 41.7954 26.4922 44.056C27.8743 46.5047 29.1237 49.0259 30.2349 51.6088C31.1631 53.9966 31.8293 55.0595 32.3533 57.4474C32.8773 59.8352 35.4073 64.072 36.4702 65.5316C37.5332 66.9913 38.0572 68.7129 39.1201 69.2743C40.183 69.8357 40.707 68.2114 40.9765 66.093C41.1434 63.5312 41.0983 60.9599 40.8417 58.4055C40.6396 57.4474 39.3521 50.4186 39.3521 50.4186Z" fill="white" stroke="#263238" stroke-linecap="round" stroke-linejoin="round"/>
<path d="M33.4985 42.0574C34.2196 43.0493 34.7382 44.1734 35.0248 45.3657C35.3114 46.5579 35.3603 47.795 35.1688 49.0062C34.9773 50.2173 34.5491 51.3789 33.9087 52.4247C33.2683 53.4704 32.4282 54.3797 31.4363 55.1007C30.4445 55.8217 29.3203 56.3404 28.1281 56.6269C26.9358 56.9135 25.6988 56.9625 24.4876 56.771C23.2764 56.5795 22.1148 56.1513 21.0691 55.5109C20.0234 54.8704 19.114 54.0303 18.393 53.0385C15.3989 48.8616 16.5591 43.9063 21.1551 40.8897C25.9158 37.7608 30.4744 37.8955 33.4985 42.0574Z" fill="white" stroke="#263238" stroke-linecap="round" stroke-linejoin="round"/>
<path d="M22.8094 41.1592L21.4096 37.4239L22.6148 37.0422L23.6627 41.1966L22.8094 41.1592Z" fill="white" stroke="#263238" stroke-linecap="round" stroke-linejoin="round"/>
<path d="M19.5982 45.5381C19.6682 45.634 19.7081 45.7486 19.7129 45.8672C19.7176 45.9859 19.687 46.1033 19.6249 46.2045C19.5628 46.3057 19.472 46.3861 19.3641 46.4356C19.2561 46.4851 19.1359 46.5014 19.0187 46.4824C18.9015 46.4634 18.7925 46.4099 18.7058 46.3289C18.619 46.2478 18.5583 46.1428 18.5313 46.0271C18.5044 45.9115 18.5124 45.7904 18.5544 45.6794C18.5965 45.5683 18.6705 45.4722 18.7673 45.4034C18.8305 45.3572 18.9023 45.324 18.9784 45.3057C19.0546 45.2875 19.1336 45.2845 19.2109 45.2971C19.2882 45.3096 19.3622 45.3374 19.4287 45.3788C19.4952 45.4201 19.5528 45.4743 19.5982 45.5381V45.5381Z" stroke="#263238" stroke-width="0.5" stroke-linecap="round" stroke-linejoin="round"/>
<path d="M22.248 45.0067C22.2942 45.0699 22.3274 45.1416 22.3456 45.2178C22.3639 45.2939 22.3668 45.373 22.3543 45.4503C22.3418 45.5276 22.314 45.6016 22.2726 45.6681C22.2312 45.7345 22.1771 45.7922 22.1133 45.8375C22.0174 45.9076 21.9028 45.9475 21.7842 45.9523C21.6655 45.957 21.5481 45.9264 21.4469 45.8643C21.3457 45.8022 21.2652 45.7114 21.2158 45.6034C21.1663 45.4955 21.15 45.3753 21.169 45.258C21.188 45.1408 21.2414 45.0319 21.3225 44.9451C21.4036 44.8584 21.5086 44.7976 21.6242 44.7707C21.7399 44.7437 21.8609 44.7518 21.972 44.7938C22.0831 44.8358 22.1791 44.9099 22.248 45.0067V45.0067Z" stroke="#263238" stroke-width="0.5" stroke-linecap="round" stroke-linejoin="round"/>
<path d="M23.3494 46.8708C23.3721 46.9023 23.3883 46.938 23.3971 46.9757C23.406 47.0135 23.4074 47.0527 23.4011 47.091C23.3948 47.1293 23.3811 47.166 23.3606 47.199C23.3402 47.232 23.3134 47.2606 23.2819 47.2833C23.2504 47.3059 23.2147 47.3221 23.1769 47.331C23.1391 47.3399 23.1 47.3412 23.0617 47.3349C23.0234 47.3287 22.9867 47.3149 22.9537 47.2945C22.9207 47.274 22.8921 47.2473 22.8694 47.2158C22.8236 47.1521 22.8051 47.0729 22.8177 46.9955C22.8304 46.9182 22.8733 46.849 22.9369 46.8033C23.0006 46.7575 23.0798 46.7389 23.1571 46.7516C23.2345 46.7642 23.3037 46.8071 23.3494 46.8708V46.8708Z" stroke="#263238" stroke-width="0.5" stroke-linecap="round" stroke-linejoin="round"/>
<path d="M20.9455 47.5068C21.0156 47.6027 21.0555 47.7172 21.0603 47.8359C21.065 47.9545 21.0344 48.0719 20.9723 48.1731C20.9102 48.2743 20.8194 48.3548 20.7114 48.4043C20.6035 48.4538 20.4833 48.47 20.3661 48.451C20.2488 48.432 20.1399 48.3786 20.0531 48.2975C19.9664 48.2165 19.9056 48.1114 19.8787 47.9958C19.8518 47.8801 19.8598 47.7591 19.9018 47.648C19.9438 47.537 20.0179 47.4409 20.1147 47.372C20.1779 47.3258 20.2496 47.2926 20.3258 47.2744C20.4019 47.2561 20.481 47.2532 20.5583 47.2657C20.6356 47.2783 20.7096 47.306 20.7761 47.3474C20.8426 47.3888 20.9002 47.443 20.9455 47.5068V47.5068Z" stroke="#263238" stroke-width="0.5" stroke-linecap="round" stroke-linejoin="round"/>
<path d="M48.7538 50.1416C48.7538 52.6172 47.7704 54.9915 46.0198 56.742C44.2693 58.4925 41.8951 59.4759 39.4195 59.4759C36.9439 59.4759 34.5697 58.4925 32.8192 56.742C31.0686 54.9915 30.0852 52.6172 30.0852 50.1416C30.0852 44.9842 33.9627 41.6757 39.4494 41.9077C45.1533 42.1996 48.7538 44.9842 48.7538 50.1416Z" fill="white" stroke="#263238" stroke-linecap="round" stroke-linejoin="round"/>
<path d="M40.6396 43.1278L41.7025 39.2803L42.8927 39.6771L41.3058 43.6518L40.6396 43.1278Z" fill="white" stroke="#263238" stroke-linecap="round" stroke-linejoin="round"/>
<path d="M35.4747 44.7821C35.4747 44.9005 35.4396 45.0163 35.3738 45.1148C35.308 45.2133 35.2144 45.29 35.105 45.3353C34.9956 45.3807 34.8752 45.3925 34.759 45.3694C34.6429 45.3463 34.5362 45.2893 34.4524 45.2055C34.3687 45.1218 34.3116 45.0151 34.2885 44.8989C34.2654 44.7828 34.2773 44.6624 34.3226 44.5529C34.3679 44.4435 34.4447 44.35 34.5432 44.2842C34.6417 44.2184 34.7574 44.1833 34.8759 44.1833C35.0347 44.1833 35.187 44.2464 35.2993 44.3587C35.4116 44.471 35.4747 44.6233 35.4747 44.7821V44.7821Z" stroke="#263238" stroke-width="0.5" stroke-linecap="round" stroke-linejoin="round"/>
<path d="M37.9224 45.9124C37.906 46.0587 37.8362 46.1939 37.7264 46.292C37.6167 46.3901 37.4746 46.4444 37.3273 46.4444C37.1801 46.4444 37.038 46.3901 36.9282 46.292C36.8185 46.1939 36.7487 46.0587 36.7322 45.9124C36.7228 45.8286 36.7312 45.7438 36.7568 45.6635C36.7824 45.5833 36.8247 45.5093 36.8809 45.4464C36.9371 45.3836 37.0059 45.3333 37.0828 45.2989C37.1597 45.2645 37.2431 45.2467 37.3273 45.2467C37.4116 45.2467 37.4949 45.2645 37.5719 45.2989C37.6488 45.3333 37.7176 45.3836 37.7738 45.4464C37.8299 45.5093 37.8722 45.5833 37.8978 45.6635C37.9235 45.7438 37.9318 45.8286 37.9224 45.9124V45.9124Z" stroke="#263238" stroke-width="0.5" stroke-linecap="round" stroke-linejoin="round"/>
<path d="M37.729 48.0463C37.729 48.1259 37.6974 48.2022 37.6411 48.2584C37.5848 48.3147 37.5085 48.3463 37.429 48.3463C37.3494 48.3463 37.2731 48.3147 37.2168 48.2584C37.1606 48.2022 37.129 48.1259 37.129 48.0463C37.129 47.9667 37.1606 47.8904 37.2168 47.8342C37.2731 47.7779 37.3494 47.7463 37.429 47.7463C37.5085 47.7463 37.5848 47.7779 37.6411 47.8342C37.6974 47.8904 37.729 47.9667 37.729 48.0463V48.0463Z" stroke="#263238" stroke-width="0.5" stroke-linecap="round" stroke-linejoin="round"/>
<path d="M35.4073 47.1699C35.4073 47.2884 35.3722 47.4042 35.3064 47.5026C35.2406 47.6011 35.1471 47.6779 35.0377 47.7232C34.9282 47.7685 34.8078 47.7804 34.6917 47.7573C34.5755 47.7342 34.4688 47.6771 34.3851 47.5934C34.3013 47.5096 34.2443 47.4029 34.2212 47.2868C34.1981 47.1706 34.2099 47.0502 34.2552 46.9408C34.3006 46.8313 34.3773 46.7378 34.4758 46.672C34.5743 46.6062 34.69 46.5711 34.8085 46.5711C34.9673 46.5711 35.1196 46.6342 35.2319 46.7465C35.3442 46.8588 35.4073 47.0111 35.4073 47.1699V47.1699Z" stroke="#263238" stroke-width="0.5" stroke-linecap="round" stroke-linejoin="round"/>
<path d="M73.3658 52.0878C73.3658 54.5634 72.3824 56.9377 70.6318 58.6882C68.8813 60.4387 66.5071 61.4221 64.0315 61.4221C61.5559 61.4221 59.1817 60.4387 57.4311 58.6882C55.6806 56.9377 54.6972 54.5634 54.6972 52.0878C54.6972 46.9304 58.5671 43.6219 64.0539 43.8539C69.7578 44.1458 73.3658 46.9304 73.3658 52.0878Z" fill="white" stroke="#263238" stroke-linecap="round" stroke-linejoin="round"/>
<path d="M65.2516 45.074L66.3071 41.2265L67.5047 41.6233L65.9103 45.598L65.2516 45.074Z" stroke="#263238" stroke-linecap="round" stroke-linejoin="round"/>
<path d="M60.0792 46.7283C60.0792 46.8871 60.0161 47.0394 59.9038 47.1517C59.7915 47.264 59.6392 47.3271 59.4804 47.3271C59.3215 47.3271 59.1692 47.264 59.0569 47.1517C58.9446 47.0394 58.8815 46.8871 58.8815 46.7283C58.8815 46.5695 58.9446 46.4172 59.0569 46.3049C59.1692 46.1926 59.3215 46.1295 59.4804 46.1295C59.6392 46.1295 59.7915 46.1926 59.9038 46.3049C60.0161 46.4172 60.0792 46.5695 60.0792 46.7283V46.7283Z" stroke="#263238" stroke-width="0.5" stroke-linecap="round" stroke-linejoin="round"/>
<path d="M62.5569 47.8511C62.5569 48.0099 62.4938 48.1622 62.3815 48.2745C62.2692 48.3868 62.1168 48.4499 61.958 48.4499C61.7992 48.4499 61.6469 48.3868 61.5346 48.2745C61.4223 48.1622 61.3592 48.0099 61.3592 47.8511C61.3592 47.6923 61.4223 47.54 61.5346 47.4277C61.6469 47.3154 61.7992 47.2523 61.958 47.2523C62.1168 47.2523 62.2692 47.3154 62.3815 47.4277C62.4938 47.54 62.5569 47.6923 62.5569 47.8511Z" stroke="#263238" stroke-width="0.5" stroke-linecap="round" stroke-linejoin="round"/>
<path d="M62.3335 50.0075C62.3335 50.0668 62.3159 50.1248 62.2829 50.1742C62.25 50.2235 62.2031 50.2619 62.1483 50.2847C62.0935 50.3074 62.0331 50.3133 61.975 50.3017C61.9168 50.2902 61.8633 50.2616 61.8213 50.2196C61.7794 50.1777 61.7508 50.1242 61.7392 50.066C61.7277 50.0078 61.7336 49.9475 61.7563 49.8927C61.779 49.8379 61.8175 49.791 61.8668 49.758C61.9161 49.7251 61.9741 49.7075 62.0335 49.7075C62.113 49.7075 62.1893 49.7391 62.2456 49.7954C62.3019 49.8516 62.3335 49.9279 62.3335 50.0075V50.0075Z" stroke="#263238" stroke-width="0.5" stroke-linecap="round" stroke-linejoin="round"/>
<path d="M60.0118 49.1161C60.0118 49.1944 59.9963 49.2719 59.9661 49.3442C59.9359 49.4164 59.8917 49.4819 59.836 49.537C59.7803 49.592 59.7142 49.6354 59.6416 49.6646C59.569 49.6939 59.4913 49.7085 59.413 49.7075C59.2562 49.7075 59.1057 49.6452 58.9948 49.5343C58.884 49.4234 58.8216 49.273 58.8216 49.1161C58.8207 49.0379 58.8352 48.9602 58.8645 48.8875C58.8938 48.8149 58.9372 48.7489 58.9922 48.6932C59.0472 48.6374 59.1127 48.5932 59.185 48.563C59.2572 48.5328 59.3347 48.5173 59.413 48.5173C59.5718 48.5173 59.7241 48.5804 59.8364 48.6927C59.9487 48.805 60.0118 48.9573 60.0118 49.1161V49.1161Z" stroke="#263238" stroke-width="0.5" stroke-linecap="round" stroke-linejoin="round"/>
<path d="M46.4782 55.1494C46.4782 55.1494 62.1975 18.95 71.7489 13.4857C81.3003 8.02131 76.3075 25.5521 72.4376 37.6186C68.5676 49.685 59.7124 68.3536 51.718 75.869C43.7236 83.3843 37.6005 78.8257 46.4782 55.1494Z" fill="white" stroke="#263238" stroke-linecap="round" stroke-linejoin="round"/>
<path d="M64.9223 23.2766L73.785 26.9219C73.785 26.9219 69.7054 20.5444 64.9223 23.2766Z" stroke="#263238" stroke-linecap="round" stroke-linejoin="round"/>
<path d="M60.8203 30.8293L69.7054 34.4672C69.7054 34.4672 65.6034 28.0597 60.8203 30.8293Z" stroke="#263238" stroke-linecap="round" stroke-linejoin="round"/>
<path d="M56.2691 39.4375L65.1468 43.0829C65.1468 43.0829 61.0598 36.7053 56.2691 39.4375Z" stroke="#263238" stroke-linecap="round" stroke-linejoin="round"/>
<path d="M51.9426 49.9171L60.8203 53.555C60.8203 53.555 56.7258 47.1849 51.9426 49.9171Z" stroke="#263238" stroke-linecap="round" stroke-linejoin="round"/>
<path d="M47.1594 59.0193L56.0446 62.6647C56.0446 62.6647 51.9426 56.2797 47.1594 59.0193Z" stroke="#263238" stroke-linecap="round" stroke-linejoin="round"/>
<path d="M43.9706 67.4479L52.8258 71.0858C52.8258 71.0858 48.7538 64.7157 43.9706 67.4479Z" stroke="#263238" stroke-linecap="round" stroke-linejoin="round"/>
<path d="M15.5111 47.1849L58.3201 56.5192L73.785 50.3662C73.785 50.3662 76.7791 76.5651 78.7927 86.341C80.8063 96.117 80.1625 102.509 77.887 105.698C75.6114 108.887 64.2261 113.184 59.922 114.344C55.6179 115.504 43.7536 114.8 38.0647 112.3C32.3757 109.8 19.6206 105.01 15.5186 102.277C14.0575 101.374 12.865 100.095 12.0647 98.5749C11.2644 97.0546 10.8856 95.3479 10.9675 93.6318C11.1996 91.8054 15.2941 58.5627 15.5186 55.3814C15.7432 52.2001 15.5111 47.1849 15.5111 47.1849Z" fill="#92E3A9" stroke="#263238" stroke-linecap="round" stroke-linejoin="round"/>
<path d="M59.5627 69.7534C59.7349 74.9482 59.907 81.2959 59.907 85.8694C59.907 94.9792 63.0883 106.132 61.0448 110.234" stroke="#263238" stroke-linecap="round" stroke-linejoin="round"/>
<path d="M59.2259 60.6137C59.2259 60.6137 59.3157 62.6273 59.4205 65.6364" stroke="#263238" stroke-linecap="round" stroke-linejoin="round"/>
</svg>
