<svg width="462" height="391" viewBox="0 0 462 391" fill="none" xmlns="http://www.w3.org/2000/svg">
<path d="M456.263 123.492C452.021 121.142 450.082 123.104 448.543 121.142C447.004 119.179 452.785 114.197 441.211 109.18C441.211 109.18 440.436 98.3816 424.62 97.9938C408.804 97.6061 413.046 108.792 408.804 111.495C404.563 114.197 403.399 109.955 399.157 112.67C394.916 115.384 396.807 120.765 393.376 121.541C390.204 122.246 386.08 118.791 382.155 120.225C380.846 115.858 379.032 111.658 376.75 107.711C362.427 83.1182 331.195 71.7794 306.743 64.8586C228.922 42.8507 210.099 96.8893 161.864 126.652C113.63 156.415 56.9361 129.002 29.3939 150.376C1.85173 171.749 -7.33684 224.848 6.10526 249.335C19.5474 273.822 49.2751 281.8 53.8694 293.539C58.4637 305.277 57.0301 309.119 57.0301 309.119H417.758C420.578 309.119 428.027 294.021 429.508 291.083C437.827 274.386 438.838 257.819 424.232 244.987C410.132 232.603 385.751 224.813 384.035 201.794C382.32 178.776 388.218 152.608 384.235 129.261H459.318C459.318 129.261 460.505 125.806 456.263 123.492ZM159.397 257.337H61.7889C61.7889 257.337 64.4915 255.41 66.8062 253.812C69.121 252.214 72.975 253.812 74.902 253.812C76.829 253.812 76.829 251.462 81.0826 248.806C85.3361 246.151 89.9539 250.346 93.4202 249.57C96.8864 248.794 94.9712 243.401 99.213 240.699C103.455 237.996 104.618 242.238 108.86 239.524C113.102 236.809 108.86 225.623 124.675 226.011C140.491 226.399 141.267 237.209 141.267 237.209C152.84 242.214 147.048 247.232 148.599 249.159C150.15 251.086 152.065 249.159 156.318 251.509C160.572 253.859 159.397 257.337 159.397 257.337ZM317.706 85.5152H255.066C255.066 85.5152 256.793 84.3402 258.286 83.2945C259.778 82.2487 262.245 83.2945 263.479 83.2945C264.713 83.2945 264.725 81.8022 267.439 80.0749C270.153 78.3477 273.138 81.062 275.37 80.5684C277.603 80.0749 276.357 76.6087 279.083 74.8696C281.809 73.1306 282.55 75.8567 285.276 74.1294C288.002 72.4021 285.276 65.2111 295.428 65.4578C305.58 65.7046 306.073 72.6371 306.073 72.6371C313.499 75.8567 309.786 79.0762 310.773 80.3217C311.76 81.5672 313.006 80.3217 315.732 81.8022C318.458 83.2827 317.706 85.5152 317.706 85.5152Z" fill="#92E3A9"/>
<path d="M202.461 25.5075C198.207 23.1575 196.28 25.1198 194.741 23.1575C193.202 21.1952 198.983 16.2132 187.409 11.1959C187.409 11.1959 186.634 0.397592 170.818 0.00983943C155.002 -0.377914 159.244 10.8082 155.002 13.5107C150.761 16.2132 149.597 11.9714 145.356 14.6857C141.114 17.4 143.006 22.7815 139.563 23.557C136.12 24.3325 131.467 20.032 127.225 22.7815C122.983 25.531 122.972 27.7988 121.045 27.7988C119.118 27.7988 115.264 26.2595 112.949 27.7988C110.634 29.3381 107.932 31.3238 107.932 31.3238H205.54C205.54 31.3238 206.703 27.8575 202.461 25.5075Z" fill="#92E3A9"/>
<g opacity="0.7">
<path opacity="0.7" d="M456.263 123.492C452.021 121.142 450.082 123.104 448.543 121.142C447.004 119.179 452.785 114.197 441.211 109.18C441.211 109.18 440.436 98.3816 424.62 97.9938C408.804 97.6061 413.046 108.792 408.804 111.495C404.563 114.197 403.399 109.955 399.157 112.67C394.916 115.384 396.807 120.765 393.376 121.541C390.204 122.246 386.08 118.791 382.155 120.225C380.846 115.858 379.032 111.658 376.75 107.711C362.427 83.1182 331.195 71.7794 306.743 64.8586C228.922 42.8507 210.099 96.8893 161.864 126.652C113.63 156.415 56.9361 129.002 29.3939 150.376C1.85173 171.749 -7.33684 224.848 6.10526 249.335C19.5474 273.822 49.2751 281.8 53.8694 293.539C58.4637 305.277 57.0301 309.119 57.0301 309.119H417.758C420.578 309.119 428.027 294.021 429.508 291.083C437.827 274.386 438.838 257.819 424.232 244.987C410.132 232.603 385.751 224.813 384.035 201.794C382.32 178.776 388.218 152.608 384.235 129.261H459.318C459.318 129.261 460.505 125.806 456.263 123.492ZM159.397 257.337H61.7889C61.7889 257.337 64.4915 255.41 66.8062 253.812C69.121 252.214 72.975 253.812 74.902 253.812C76.829 253.812 76.829 251.462 81.0826 248.806C85.3361 246.151 89.9539 250.346 93.4202 249.57C96.8864 248.794 94.9712 243.401 99.213 240.699C103.455 237.996 104.618 242.238 108.86 239.524C113.102 236.809 108.86 225.623 124.675 226.011C140.491 226.399 141.267 237.209 141.267 237.209C152.84 242.214 147.048 247.232 148.599 249.159C150.15 251.086 152.065 249.159 156.318 251.509C160.572 253.859 159.397 257.337 159.397 257.337ZM317.706 85.5152H255.066C255.066 85.5152 256.793 84.3402 258.286 83.2945C259.778 82.2487 262.245 83.2945 263.479 83.2945C264.713 83.2945 264.725 81.8022 267.439 80.0749C270.153 78.3477 273.138 81.062 275.37 80.5684C277.603 80.0749 276.357 76.6087 279.083 74.8696C281.809 73.1306 282.55 75.8567 285.276 74.1294C288.002 72.4021 285.276 65.2111 295.428 65.4578C305.58 65.7046 306.073 72.6371 306.073 72.6371C313.499 75.8567 309.786 79.0762 310.773 80.3217C311.76 81.5672 313.006 80.3217 315.732 81.8022C318.458 83.2827 317.706 85.5152 317.706 85.5152Z" fill="white"/>
<path opacity="0.7" d="M202.461 25.5075C198.207 23.1575 196.28 25.1198 194.741 23.1575C193.202 21.1952 198.983 16.2132 187.409 11.1959C187.409 11.1959 186.634 0.397592 170.818 0.00983943C155.002 -0.377914 159.244 10.8082 155.002 13.5107C150.761 16.2132 149.597 11.9714 145.356 14.6857C141.114 17.4 143.006 22.7815 139.563 23.557C136.12 24.3325 131.467 20.032 127.225 22.7815C122.983 25.531 122.972 27.7988 121.045 27.7988C119.118 27.7988 115.264 26.2595 112.949 27.7988C110.634 29.3381 107.932 31.3238 107.932 31.3238H205.54C205.54 31.3238 206.703 27.8575 202.461 25.5075Z" fill="white"/>
</g>
<path d="M449.107 233.273L460.575 263.999H452.761L444.948 240.041L449.107 233.273Z" fill="white" stroke="#2E353A" stroke-width="0.887535" stroke-linecap="round" stroke-linejoin="round"/>
<path d="M455.358 309.143H352.063V256.362L447.967 241.709L455.358 262.084V309.143Z" fill="#2E353A"/>
<path d="M366.292 149.412H231.566V309.143H366.292V149.412Z" fill="#2E353A"/>
<path d="M223.27 162.326L217.536 154.9L299.681 91.4843L380.322 153.748L374.6 161.174L299.681 103.328L223.27 162.326Z" fill="#2E353A"/>
<path d="M341.641 149.412H206.914V309.143H341.641V149.412Z" fill="white" stroke="#2E353A" stroke-width="0.887535" stroke-linecap="round" stroke-linejoin="round"/>
<path d="M274.277 97.4063L206.914 149.412H341.641L274.277 97.4063Z" fill="white" stroke="#2E353A" stroke-width="0.887535" stroke-linejoin="round"/>
<g style="mix-blend-mode:multiply">
<path d="M274.277 97.4063L206.914 149.412V161.256L222.26 149.412L274.277 109.25L326.307 149.412L341.641 161.256V149.412L274.277 97.4063Z" fill="#92E3A9"/>
</g>
<path d="M444.948 256.362H341.641V309.143H444.948V256.362Z" fill="white" stroke="#2E353A" stroke-width="0.887535" stroke-linecap="round" stroke-linejoin="round"/>
<path d="M434.537 256.362H352.063V309.143H434.537V256.362Z" fill="#92E3A9" stroke="#2E353A" stroke-width="0.887535" stroke-linecap="round" stroke-linejoin="round"/>
<g style="mix-blend-mode:multiply">
<path d="M444.948 256.362H341.641V267.677H444.948V256.362Z" fill="#92E3A9"/>
</g>
<path d="M352.063 271.813H434.525" stroke="#2E353A" stroke-width="0.887535" stroke-linecap="round" stroke-linejoin="round"/>
<path d="M352.063 279.627H434.525" stroke="#2E353A" stroke-width="0.887535" stroke-linecap="round" stroke-linejoin="round"/>
<path d="M352.063 287.441H434.525" stroke="#2E353A" stroke-width="0.887535" stroke-linecap="round" stroke-linejoin="round"/>
<path d="M352.063 295.254H434.525" stroke="#2E353A" stroke-width="0.887535" stroke-linecap="round" stroke-linejoin="round"/>
<path d="M352.063 303.068H434.525" stroke="#2E353A" stroke-width="0.887535" stroke-linecap="round" stroke-linejoin="round"/>
<path d="M245.114 250.11H218.03V309.143H245.114V250.11Z" fill="#2E353A"/>
<path d="M286.427 250.11H259.343V291.083H286.427V250.11Z" fill="white" stroke="#2E353A" stroke-width="0.887535" stroke-linecap="round" stroke-linejoin="round"/>
<path d="M286.427 268.864H259.343V272.342H286.427V268.864Z" fill="#2E353A"/>
<path d="M274.63 250.11H271.152V291.083H274.63V250.11Z" fill="#2E353A"/>
<path d="M336.083 250.11H308.999V291.083H336.083V250.11Z" fill="white" stroke="#2E353A" stroke-width="0.887535" stroke-linecap="round" stroke-linejoin="round"/>
<path d="M336.083 268.864H308.999V272.342H336.083V268.864Z" fill="#2E353A"/>
<path d="M324.286 250.11H320.808V291.083H324.286V250.11Z" fill="#2E353A"/>
<path d="M301.185 250.11H295.992V309.143H301.185V250.11Z" fill="white" stroke="#2E353A" stroke-width="0.887535" stroke-linecap="round" stroke-linejoin="round"/>
<path d="M255.783 250.11H250.589V309.143H255.783V250.11Z" fill="white" stroke="#2E353A" stroke-width="0.887535" stroke-linecap="round" stroke-linejoin="round"/>
<path d="M336.083 252.543H213.165V260.18H336.083V252.543Z" fill="#2E353A"/>
<path d="M336.083 248.724H213.165V256.362H336.083V248.724Z" fill="#92E3A9" stroke="#2E353A" stroke-width="0.887535" stroke-linecap="round" stroke-linejoin="round"/>
<path d="M197.867 162.326L192.133 154.9L274.278 91.4843L354.918 153.748L349.196 161.174L274.278 103.328L197.867 162.326Z" fill="white" stroke="#2E353A" stroke-width="0.887535" stroke-linejoin="round"/>
<path d="M444.948 263.999H331.371L341.794 233.273H449.107L444.948 263.999Z" fill="#2E353A"/>
<path d="M354.918 153.748H378.184L299.681 91.4843H274.278L354.918 153.748Z" fill="#2E353A"/>
<path d="M349.196 161.174H374.6L380.322 153.748H354.918L349.196 161.174Z" fill="#2E353A"/>
<path d="M232.612 173.03H218.03V196.648H232.612V173.03Z" fill="white" stroke="#2E353A" stroke-width="0.887535" stroke-linecap="round" stroke-linejoin="round"/>
<path d="M232.612 184.839H218.03V196.648H232.612V184.839Z" fill="#2E353A"/>
<path d="M232.612 183.523H218.03V186.155H232.612V183.523Z" fill="white" stroke="#2E353A" stroke-width="0.887535" stroke-linecap="round" stroke-linejoin="round"/>
<path d="M232.612 207.058H218.03V230.676H232.612V207.058Z" fill="white" stroke="#2E353A" stroke-width="0.887535" stroke-linecap="round" stroke-linejoin="round"/>
<path d="M232.612 218.75H218.03V230.664H232.612V218.75Z" fill="#2E353A"/>
<path d="M331.218 173.03H316.637V196.648H331.218V173.03Z" fill="white" stroke="#2E353A" stroke-width="0.887535" stroke-linecap="round" stroke-linejoin="round"/>
<path d="M331.218 184.839H316.637V196.648H331.218V184.839Z" fill="#2E353A"/>
<path d="M331.218 207.058H316.637V230.676H331.218V207.058Z" fill="white" stroke="#2E353A" stroke-width="0.887535" stroke-linecap="round" stroke-linejoin="round"/>
<path d="M331.218 217.434H316.637V230.664H331.218V217.434Z" fill="#2E353A"/>
<path d="M280.176 173.03H265.594V196.648H280.176V173.03Z" fill="white" stroke="#2E353A" stroke-width="0.887535" stroke-linecap="round" stroke-linejoin="round"/>
<path d="M280.176 184.839H265.594V196.648H280.176V184.839Z" fill="#2E353A"/>
<path d="M280.176 207.058H265.594V230.676H280.176V207.058Z" fill="white" stroke="#2E353A" stroke-width="0.887535" stroke-linecap="round" stroke-linejoin="round"/>
<path d="M280.176 217.434H265.594V230.664H280.176V217.434Z" fill="#2E353A"/>
<path d="M280.176 183.523H265.594V186.155H280.176V183.523Z" fill="white" stroke="#2E353A" stroke-width="0.887535" stroke-linecap="round" stroke-linejoin="round"/>
<path d="M331.218 183.523H316.637V186.155H331.218V183.523Z" fill="white" stroke="#2E353A" stroke-width="0.887535" stroke-linecap="round" stroke-linejoin="round"/>
<path d="M232.612 216.117H218.03V218.75H232.612V216.117Z" fill="white" stroke="#2E353A" stroke-width="0.887535" stroke-linecap="round" stroke-linejoin="round"/>
<path d="M280.176 216.117H265.594V218.75H280.176V216.117Z" fill="white" stroke="#2E353A" stroke-width="0.887535" stroke-linecap="round" stroke-linejoin="round"/>
<path d="M331.218 216.117H316.637V218.75H331.218V216.117Z" fill="white" stroke="#2E353A" stroke-width="0.887535" stroke-linecap="round" stroke-linejoin="round"/>
<path d="M218.794 156.533V162.326" stroke="#2E353A" stroke-width="0.887535" stroke-linecap="round" stroke-linejoin="round"/>
<path d="M229.216 156.533V162.326" stroke="#2E353A" stroke-width="0.887535" stroke-linecap="round" stroke-linejoin="round"/>
<path d="M223.27 162.326V168.118" stroke="#2E353A" stroke-width="0.887535" stroke-linecap="round" stroke-linejoin="round"/>
<path d="M235.173 162.326V168.118" stroke="#2E353A" stroke-width="0.887535" stroke-linecap="round" stroke-linejoin="round"/>
<path d="M214.176 162.326H237.981" stroke="#2E353A" stroke-width="0.887535" stroke-linecap="round" stroke-linejoin="round"/>
<path d="M218.794 233.907V239.7" stroke="#2E353A" stroke-width="0.887535" stroke-linecap="round" stroke-linejoin="round"/>
<path d="M229.216 233.907V239.7" stroke="#2E353A" stroke-width="0.887535" stroke-linecap="round" stroke-linejoin="round"/>
<path d="M223.27 239.7V245.493" stroke="#2E353A" stroke-width="0.887535" stroke-linecap="round" stroke-linejoin="round"/>
<path d="M235.173 239.7V245.493" stroke="#2E353A" stroke-width="0.887535" stroke-linecap="round" stroke-linejoin="round"/>
<path d="M214.176 239.7H237.981" stroke="#2E353A" stroke-width="0.887535" stroke-linecap="round" stroke-linejoin="round"/>
<path d="M239.909 179.034V184.839" stroke="#2E353A" stroke-width="0.887535" stroke-linecap="round" stroke-linejoin="round"/>
<path d="M250.331 179.034V184.839" stroke="#2E353A" stroke-width="0.887535" stroke-linecap="round" stroke-linejoin="round"/>
<path d="M244.385 184.839V190.632" stroke="#2E353A" stroke-width="0.887535" stroke-linecap="round" stroke-linejoin="round"/>
<path d="M256.288 184.839V190.632" stroke="#2E353A" stroke-width="0.887535" stroke-linecap="round" stroke-linejoin="round"/>
<path d="M235.291 184.839H259.096" stroke="#2E353A" stroke-width="0.887535" stroke-linecap="round" stroke-linejoin="round"/>
<path d="M239.909 190.632H259.096" stroke="#2E353A" stroke-width="0.887535" stroke-linecap="round" stroke-linejoin="round"/>
<path d="M239.909 190.843V196.636" stroke="#2E353A" stroke-width="0.887535" stroke-linecap="round" stroke-linejoin="round"/>
<path d="M250.331 190.843V196.636" stroke="#2E353A" stroke-width="0.887535" stroke-linecap="round" stroke-linejoin="round"/>
<path d="M244.385 196.636V202.429" stroke="#2E353A" stroke-width="0.887535" stroke-linecap="round" stroke-linejoin="round"/>
<path d="M256.288 196.636V202.429" stroke="#2E353A" stroke-width="0.887535" stroke-linecap="round" stroke-linejoin="round"/>
<path d="M235.291 196.636H259.096" stroke="#2E353A" stroke-width="0.887535" stroke-linecap="round" stroke-linejoin="round"/>
<path d="M291.82 217.692V223.485" stroke="#2E353A" stroke-width="0.887535" stroke-linecap="round" stroke-linejoin="round"/>
<path d="M302.243 217.692V223.485" stroke="#2E353A" stroke-width="0.887535" stroke-linecap="round" stroke-linejoin="round"/>
<path d="M296.297 223.485V229.278" stroke="#2E353A" stroke-width="0.887535" stroke-linecap="round" stroke-linejoin="round"/>
<path d="M308.2 223.485V229.278" stroke="#2E353A" stroke-width="0.887535" stroke-linecap="round" stroke-linejoin="round"/>
<path d="M287.203 223.485H311.008" stroke="#2E353A" stroke-width="0.887535" stroke-linecap="round" stroke-linejoin="round"/>
<path d="M291.82 229.278H311.008" stroke="#2E353A" stroke-width="0.887535" stroke-linecap="round" stroke-linejoin="round"/>
<path d="M291.82 229.501V235.294" stroke="#2E353A" stroke-width="0.887535" stroke-linecap="round" stroke-linejoin="round"/>
<path d="M302.243 229.501V235.294" stroke="#2E353A" stroke-width="0.887535" stroke-linecap="round" stroke-linejoin="round"/>
<path d="M296.297 235.294V241.086" stroke="#2E353A" stroke-width="0.887535" stroke-linecap="round" stroke-linejoin="round"/>
<path d="M308.2 235.294V241.086" stroke="#2E353A" stroke-width="0.887535" stroke-linecap="round" stroke-linejoin="round"/>
<path d="M287.203 235.294H311.008" stroke="#2E353A" stroke-width="0.887535" stroke-linecap="round" stroke-linejoin="round"/>
<path d="M12.3093 325.511C35.41 335.064 94.7715 324.724 88.6849 335.863C82.5984 347.002 36.1033 342.819 22.8844 354.862C9.66556 366.906 69.8025 365.943 67.6757 369.597C65.549 373.251 12.6383 375.754 16.1164 380.677H372.638C373.213 376.823 369.113 372.147 362.415 368.927C309.328 366.754 129.434 358.787 148.281 351.091C170.372 342.09 242.494 333.09 255.677 326.04C268.861 318.989 210.463 318.202 200.687 315.077C197.538 314.066 197.162 313.079 198.184 312.221L199.864 312.327V311.258C202.534 310.291 205.288 309.571 208.089 309.108H199.864V307.075L198.689 307.815L196.68 309.108H196.034C196.857 306.563 197.416 303.941 197.702 301.282C198.16 296.688 191.71 307.075 191.71 307.075C191.71 307.075 192.626 303.55 191.71 301.282C190.793 299.014 188.02 304.349 188.02 304.349C188.02 304.349 191.251 291.6 188.02 283.316C184.789 275.032 181.146 304.349 181.146 304.349C181.146 304.349 180.653 292.975 176.505 292.752C173.145 292.564 175.224 300.295 176.141 303.233C175.43 301.584 174.381 300.103 173.062 298.885C170.09 296.042 173.062 305.453 173.062 305.453C173.062 305.453 171.887 302.657 164.12 301.282C156.354 299.907 167.293 307.369 167.293 307.369C163.926 306.402 160.51 305.618 157.059 305.019C155.343 304.737 155.202 305.16 155.766 305.865L154.65 306.581L151.054 308.931C152.232 305.482 153.02 301.911 153.404 298.286C153.992 292.411 145.779 305.665 145.779 305.665C145.779 305.665 146.954 301.212 145.779 298.286C144.604 295.36 141.079 302.187 141.079 302.187C141.079 302.187 145.191 285.96 141.079 275.408C136.966 264.857 132.325 302.187 132.325 302.187C132.325 302.187 131.69 287.722 126.45 287.429C122.184 287.194 124.805 296.958 125.98 300.73C125.075 298.649 123.747 296.78 122.079 295.243C118.283 291.624 122.079 303.597 122.079 303.597C122.079 303.597 120.586 300.072 110.693 298.286C100.799 296.5 114.723 306.041 114.723 306.041C110.437 304.812 106.087 303.815 101.692 303.056C95.1122 301.975 106.698 309.131 106.698 309.131H19.3594C19.3594 309.131 -10.7678 315.97 12.3093 325.511ZM156.154 306.335C157.333 307.379 158.594 308.326 159.926 309.166H156.154V306.335Z" fill="#92E3A9"/>
<path d="M297.331 326.933C283.983 333.113 250.836 339.599 250.836 339.599C245.56 340.316 252.704 347.072 289.341 343.723L352.04 309.143H231.895C235.914 311.211 264.537 315.981 280.822 315.981C297.108 315.981 310.679 320.74 297.331 326.933Z" fill="#92E3A9"/>
<path d="M393.318 309.143H417.006C405.115 308.685 393.318 309.143 393.318 309.143Z" fill="#92E3A9"/>
<path d="M432.398 310.518L376.127 346.778C383.26 346.508 390.721 346.332 397.947 346.156C429.12 345.404 417.805 331.879 419.92 327.109C422.035 322.338 439.731 323.126 441.141 315.171C441.54 312.915 437.862 311.458 432.398 310.518Z" fill="#92E3A9"/>
<g opacity="0.3">
<path opacity="0.3" d="M12.3093 325.511C35.41 335.064 94.7715 324.724 88.6849 335.863C82.5984 347.002 36.1033 342.819 22.8844 354.862C9.66556 366.906 69.8025 365.943 67.6757 369.597C65.549 373.251 12.6383 375.754 16.1164 380.677H372.638C373.213 376.823 369.113 372.147 362.415 368.927C309.328 366.754 129.434 358.787 148.281 351.091C170.372 342.09 242.494 333.09 255.677 326.04C268.861 318.989 210.463 318.202 200.687 315.077C197.538 314.066 197.162 313.079 198.184 312.221L199.864 312.327V311.258C202.534 310.291 205.288 309.571 208.089 309.108H199.864V307.075L198.689 307.815L196.68 309.108H196.034C196.857 306.563 197.416 303.941 197.702 301.282C198.16 296.688 191.71 307.075 191.71 307.075C191.71 307.075 192.626 303.55 191.71 301.282C190.793 299.014 188.02 304.349 188.02 304.349C188.02 304.349 191.251 291.6 188.02 283.316C184.789 275.032 181.146 304.349 181.146 304.349C181.146 304.349 180.653 292.975 176.505 292.752C173.145 292.564 175.224 300.295 176.141 303.233C175.43 301.584 174.381 300.103 173.062 298.885C170.09 296.042 173.062 305.453 173.062 305.453C173.062 305.453 171.887 302.657 164.12 301.282C156.354 299.907 167.293 307.369 167.293 307.369C163.926 306.402 160.51 305.618 157.059 305.019C155.343 304.737 155.202 305.16 155.766 305.865L154.65 306.581L151.054 308.931C152.232 305.482 153.02 301.911 153.404 298.286C153.992 292.411 145.779 305.665 145.779 305.665C145.779 305.665 146.954 301.212 145.779 298.286C144.604 295.36 141.079 302.187 141.079 302.187C141.079 302.187 145.191 285.96 141.079 275.408C136.966 264.857 132.325 302.187 132.325 302.187C132.325 302.187 131.69 287.722 126.45 287.429C122.184 287.194 124.805 296.958 125.98 300.73C125.075 298.649 123.747 296.78 122.079 295.243C118.283 291.624 122.079 303.597 122.079 303.597C122.079 303.597 120.586 300.072 110.693 298.286C100.799 296.5 114.723 306.041 114.723 306.041C110.437 304.812 106.087 303.815 101.692 303.056C95.1122 301.975 106.698 309.131 106.698 309.131H19.3594C19.3594 309.131 -10.7678 315.97 12.3093 325.511ZM156.154 306.335C157.333 307.379 158.594 308.326 159.926 309.166H156.154V306.335Z" fill="white"/>
<path opacity="0.3" d="M297.331 326.933C283.983 333.113 250.836 339.599 250.836 339.599C245.56 340.316 252.704 347.072 289.341 343.723L352.04 309.143H231.895C235.914 311.211 264.537 315.981 280.822 315.981C297.108 315.981 310.679 320.74 297.331 326.933Z" fill="white"/>
<path opacity="0.3" d="M393.318 309.143H417.006C405.115 308.685 393.318 309.143 393.318 309.143Z" fill="white"/>
<path opacity="0.3" d="M432.398 310.518L376.127 346.778C383.26 346.508 390.721 346.332 397.947 346.156C429.12 345.404 417.805 331.879 419.92 327.109C422.035 322.338 439.731 323.126 441.141 315.171C441.54 312.915 437.862 311.458 432.398 310.518Z" fill="white"/>
</g>
<path d="M87.8741 111.518V206.294H225.738V111.518H87.8741ZM100.682 123.163C99.9288 123.163 99.1927 122.939 98.5667 122.521C97.9406 122.103 97.4527 121.508 97.1645 120.812C96.8764 120.117 96.801 119.351 96.9479 118.613C97.0948 117.874 97.4573 117.196 97.9898 116.664C98.5222 116.131 99.2005 115.769 99.939 115.622C100.678 115.475 101.443 115.55 102.139 115.838C102.834 116.126 103.429 116.614 103.847 117.24C104.265 117.866 104.489 118.603 104.489 119.355C104.489 120.365 104.088 121.334 103.374 122.047C102.66 122.761 101.691 123.163 100.682 123.163V123.163ZM212.801 123.163C212.048 123.163 211.312 122.939 210.686 122.521C210.06 122.103 209.572 121.508 209.284 120.812C208.996 120.117 208.92 119.351 209.067 118.613C209.214 117.874 209.577 117.196 210.109 116.664C210.642 116.131 211.32 115.769 212.058 115.622C212.797 115.475 213.562 115.55 214.258 115.838C214.954 116.126 215.548 116.614 215.967 117.24C216.385 117.866 216.608 118.603 216.608 119.355C216.605 120.364 216.203 121.331 215.49 122.044C214.776 122.757 213.81 123.159 212.801 123.163Z" fill="#92E3A9" stroke="#2E353A" stroke-miterlimit="10"/>
<path d="M216.608 119.355C216.608 120.108 216.385 120.844 215.966 121.471C215.548 122.097 214.954 122.585 214.258 122.873C213.562 123.161 212.797 123.236 212.058 123.089C211.32 122.942 210.642 122.58 210.109 122.047C209.577 121.515 209.214 120.837 209.067 120.098C208.92 119.36 208.996 118.594 209.284 117.899C209.572 117.203 210.06 116.608 210.686 116.19C211.312 115.772 212.048 115.548 212.801 115.548H100.682C101.435 115.548 102.171 115.772 102.797 116.19C103.423 116.608 103.911 117.203 104.199 117.899C104.487 118.594 104.562 119.36 104.416 120.098C104.269 120.837 103.906 121.515 103.374 122.047C102.841 122.58 102.163 122.942 101.424 123.089C100.686 123.236 99.9205 123.161 99.2248 122.873C98.5292 122.585 97.9346 122.097 97.5163 121.471C97.098 120.844 96.8747 120.108 96.8747 119.355C96.8747 118.346 97.2758 117.377 97.9897 116.664C98.7037 115.95 99.672 115.548 100.682 115.548H91.8456V201.066H220.462V115.548H212.801C213.811 115.548 214.779 115.95 215.493 116.664C216.207 117.377 216.608 118.346 216.608 119.355V119.355Z" fill="#2E353A"/>
<path d="M100.682 74.8579C99.5877 74.8602 98.5188 75.1868 97.6102 75.7963C96.7017 76.4058 95.9942 77.271 95.5771 78.2825C95.16 79.2939 95.0521 80.4063 95.267 81.4791C95.4818 82.5519 96.0098 83.5369 96.7843 84.3097C97.5587 85.0825 98.5449 85.6084 99.6181 85.821C100.691 86.0336 101.803 85.9233 102.814 85.5041C103.825 85.0849 104.688 84.3755 105.296 83.4657C105.903 82.5558 106.228 81.4863 106.228 80.3922C106.228 79.6645 106.084 78.9438 105.805 78.2716C105.526 77.5994 105.118 76.9888 104.603 76.4747C104.087 75.9607 103.476 75.5532 102.803 75.2758C102.13 74.9984 101.409 74.8564 100.682 74.8579V74.8579ZM100.682 84.0817C99.9525 84.0794 99.2403 83.8611 98.6351 83.4542C98.03 83.0474 97.5589 82.4704 97.2814 81.796C97.004 81.1216 96.9326 80.3802 97.0763 79.6652C97.22 78.9503 97.5723 78.294 98.0887 77.7792C98.6052 77.2644 99.2626 76.9142 99.978 76.7727C100.693 76.6313 101.435 76.7051 102.108 76.9847C102.782 77.2643 103.357 77.7372 103.762 78.3436C104.167 78.9501 104.383 79.663 104.383 80.3922C104.386 80.8803 104.293 81.3641 104.108 81.8159C103.923 82.2676 103.651 82.6784 103.307 83.0246C102.963 83.3708 102.554 83.6455 102.104 83.833C101.653 84.0205 101.17 84.117 100.682 84.117V84.0817Z" fill="white" stroke="#2E353A" stroke-width="0.916642" stroke-linecap="round" stroke-linejoin="round"/>
<path d="M100.682 88.1473C99.5844 88.1473 98.5116 88.4728 97.5993 89.0828C96.687 89.6927 95.9762 90.5596 95.5568 91.5737C95.1374 92.5877 95.0282 93.7035 95.2432 94.7796C95.4581 95.8558 95.9875 96.8439 96.7643 97.6191C97.5411 98.3943 98.5304 98.9215 99.607 99.1342C100.684 99.3469 101.799 99.2354 102.812 98.8138C103.826 98.3922 104.691 97.6795 105.299 96.766C105.907 95.8524 106.23 94.779 106.228 93.6816C106.228 92.9538 106.084 92.2332 105.805 91.561C105.527 90.8887 105.118 90.2781 104.603 89.7641C104.088 89.25 103.476 88.8426 102.803 88.5652C102.13 88.2877 101.41 88.1457 100.682 88.1473V88.1473ZM100.682 97.3828C99.9497 97.3828 99.2341 97.1658 98.6255 96.7591C98.0168 96.3524 97.5424 95.7743 97.2622 95.098C96.9821 94.4216 96.9088 93.6775 97.0516 92.9595C97.1944 92.2415 97.547 91.582 98.0646 91.0644C98.5822 90.5467 99.2417 90.1942 99.9597 90.0514C100.678 89.9086 101.422 89.9819 102.098 90.262C102.775 90.5422 103.353 91.0166 103.759 91.6252C104.166 92.2339 104.383 92.9495 104.383 93.6816C104.383 94.6632 103.993 95.6046 103.299 96.2988C102.605 96.9929 101.663 97.3828 100.682 97.3828V97.3828Z" fill="white" stroke="#2E353A" stroke-width="0.916642" stroke-linecap="round" stroke-linejoin="round"/>
<path d="M100.682 99.8621C99.5877 99.8644 98.5188 100.191 97.6102 100.801C96.7017 101.41 95.9942 102.275 95.5771 103.287C95.16 104.298 95.0521 105.41 95.267 106.483C95.4818 107.556 96.0098 108.541 96.7843 109.314C97.5587 110.087 98.5449 110.613 99.6181 110.825C100.691 111.038 101.803 110.928 102.814 110.508C103.825 110.089 104.688 109.38 105.296 108.47C105.903 107.56 106.228 106.49 106.228 105.396C106.228 104.669 106.084 103.948 105.805 103.276C105.526 102.604 105.118 101.993 104.603 101.479C104.087 100.965 103.476 100.557 102.803 100.28C102.13 100.003 101.409 99.8606 100.682 99.8621V99.8621ZM100.682 109.086C99.9525 109.084 99.2403 108.865 98.6351 108.458C98.03 108.052 97.5589 107.475 97.2814 106.8C97.004 106.126 96.9326 105.384 97.0763 104.669C97.22 103.955 97.5723 103.298 98.0887 102.783C98.6052 102.269 99.2626 101.918 99.978 101.777C100.693 101.636 101.435 101.709 102.108 101.989C102.782 102.268 103.357 102.741 103.762 103.348C104.167 103.954 104.383 104.667 104.383 105.396C104.38 106.376 103.989 107.314 103.295 108.006C102.601 108.698 101.661 109.086 100.682 109.086V109.086Z" fill="white" stroke="#2E353A" stroke-width="0.916642" stroke-linecap="round" stroke-linejoin="round"/>
<path d="M100.682 93.0823C100.423 93.0823 100.175 92.9795 99.9921 92.7966C99.8092 92.6137 99.7065 92.3657 99.7065 92.107V82.9772C99.7065 82.7186 99.8092 82.4705 99.9921 82.2876C100.175 82.1047 100.423 82.002 100.682 82.002V82.002C100.941 82.0019 101.191 82.1043 101.376 82.2869C101.56 82.4694 101.666 82.7175 101.669 82.9772V92.107C101.666 92.3667 101.56 92.6148 101.376 92.7974C101.191 92.9799 100.941 93.0823 100.682 93.0823V93.0823Z" fill="white" stroke="#2E353A" stroke-width="0.916642" stroke-linecap="round" stroke-linejoin="round"/>
<path d="M100.682 105.643C100.423 105.643 100.175 105.54 99.9921 105.357C99.8092 105.175 99.7065 104.927 99.7065 104.668V95.5381C99.7065 95.2794 99.8092 95.0313 99.9921 94.8485C100.175 94.6656 100.423 94.5628 100.682 94.5628V94.5628C100.941 94.5628 101.191 94.6652 101.376 94.8477C101.56 95.0303 101.666 95.2783 101.669 95.5381V104.668C101.666 104.928 101.56 105.176 101.376 105.358C101.191 105.541 100.941 105.643 100.682 105.643V105.643Z" fill="white" stroke="#2E353A" stroke-width="0.916642" stroke-linecap="round" stroke-linejoin="round"/>
<path d="M100.682 118.227C100.423 118.227 100.175 118.125 99.9921 117.942C99.8092 117.759 99.7065 117.511 99.7065 117.252V108.122C99.7065 107.994 99.7317 107.868 99.7807 107.749C99.8297 107.631 99.9016 107.523 99.9921 107.433C100.083 107.342 100.19 107.27 100.309 107.221C100.427 107.172 100.554 107.147 100.682 107.147V107.147C100.941 107.147 101.191 107.25 101.376 107.432C101.56 107.615 101.666 107.863 101.669 108.122V117.252C101.666 117.512 101.56 117.76 101.376 117.943C101.191 118.125 100.941 118.228 100.682 118.227V118.227Z" fill="white" stroke="#2E353A" stroke-width="0.916642" stroke-linecap="round" stroke-linejoin="round"/>
<path d="M212.801 74.8579C211.707 74.8602 210.638 75.1868 209.73 75.7963C208.821 76.4058 208.114 77.271 207.696 78.2825C207.279 79.2939 207.171 80.4063 207.386 81.4791C207.601 82.5519 208.129 83.5369 208.904 84.3097C209.678 85.0825 210.664 85.6084 211.737 85.821C212.811 86.0336 213.923 85.9233 214.933 85.5041C215.944 85.0849 216.808 84.3755 217.415 83.4657C218.023 82.5558 218.347 81.4863 218.347 80.3922C218.347 79.6645 218.204 78.9438 217.925 78.2716C217.646 77.5994 217.237 76.9888 216.722 76.4747C216.207 75.9607 215.595 75.5532 214.923 75.2758C214.25 74.9984 213.529 74.8564 212.801 74.8579V74.8579ZM212.801 84.0817C212.072 84.0794 211.36 83.8611 210.755 83.4542C210.149 83.0474 209.678 82.4704 209.401 81.796C209.123 81.1216 209.052 80.3802 209.196 79.6652C209.339 78.9503 209.692 78.294 210.208 77.7792C210.725 77.2644 211.382 76.9142 212.097 76.7727C212.813 76.6313 213.554 76.7051 214.227 76.9847C214.901 77.2643 215.476 77.7372 215.881 78.3436C216.286 78.9501 216.502 79.663 216.502 80.3922C216.505 80.8803 216.412 81.3641 216.227 81.8159C216.043 82.2676 215.771 82.6784 215.427 83.0246C215.083 83.3708 214.674 83.6455 214.223 83.833C213.772 84.0205 213.289 84.117 212.801 84.117V84.0817Z" fill="white" stroke="#2E353A" stroke-width="0.916642" stroke-linecap="round" stroke-linejoin="round"/>
<path d="M212.801 88.1473C211.704 88.1473 210.631 88.4728 209.719 89.0828C208.806 89.6927 208.095 90.5596 207.676 91.5737C207.257 92.5877 207.147 93.7035 207.362 94.7796C207.577 95.8558 208.107 96.8439 208.884 97.6191C209.66 98.3943 210.65 98.9215 211.726 99.1342C212.803 99.3469 213.918 99.2354 214.932 98.8138C215.945 98.3922 216.81 97.6795 217.418 96.766C218.026 95.8524 218.349 94.779 218.347 93.6816C218.347 92.9538 218.204 92.2332 217.925 91.561C217.646 90.8887 217.237 90.2781 216.722 89.7641C216.207 89.25 215.595 88.8426 214.923 88.5652C214.25 88.2877 213.529 88.1457 212.801 88.1473V88.1473ZM212.801 97.3828C212.069 97.3828 211.353 97.1658 210.745 96.7591C210.136 96.3524 209.662 95.7743 209.381 95.098C209.101 94.4216 209.028 93.6775 209.171 92.9595C209.314 92.2415 209.666 91.582 210.184 91.0644C210.701 90.5467 211.361 90.1942 212.079 90.0514C212.797 89.9086 213.541 89.9819 214.217 90.262C214.894 90.5422 215.472 91.0166 215.879 91.6252C216.285 92.2339 216.502 92.9495 216.502 93.6816C216.502 94.1676 216.407 94.6489 216.221 95.098C216.035 95.547 215.762 95.9551 215.418 96.2988C215.075 96.6425 214.667 96.9151 214.217 97.1011C213.768 97.2871 213.287 97.3828 212.801 97.3828V97.3828Z" fill="white" stroke="#2E353A" stroke-width="0.916642" stroke-linecap="round" stroke-linejoin="round"/>
<path d="M212.801 99.8621C211.707 99.8644 210.638 100.191 209.73 100.801C208.821 101.41 208.114 102.275 207.696 103.287C207.279 104.298 207.171 105.41 207.386 106.483C207.601 107.556 208.129 108.541 208.904 109.314C209.678 110.087 210.664 110.613 211.737 110.825C212.811 111.038 213.923 110.928 214.933 110.508C215.944 110.089 216.808 109.38 217.415 108.47C218.023 107.56 218.347 106.49 218.347 105.396C218.347 104.669 218.204 103.948 217.925 103.276C217.646 102.604 217.237 101.993 216.722 101.479C216.207 100.965 215.595 100.557 214.923 100.28C214.25 100.003 213.529 99.8606 212.801 99.8621V99.8621ZM212.801 109.086C212.072 109.084 211.36 108.865 210.755 108.458C210.149 108.052 209.678 107.475 209.401 106.8C209.123 106.126 209.052 105.384 209.196 104.669C209.339 103.955 209.692 103.298 210.208 102.783C210.725 102.269 211.382 101.918 212.097 101.777C212.813 101.636 213.554 101.709 214.227 101.989C214.901 102.268 215.476 102.741 215.881 103.348C216.286 103.954 216.502 104.667 216.502 105.396C216.499 106.376 216.108 107.314 215.414 108.006C214.72 108.698 213.781 109.086 212.801 109.086Z" fill="white" stroke="#2E353A" stroke-width="0.916642" stroke-linecap="round" stroke-linejoin="round"/>
<path d="M212.801 93.0823C212.543 93.0823 212.294 92.9795 212.112 92.7966C211.929 92.6137 211.826 92.3657 211.826 92.107V82.9772C211.826 82.7186 211.929 82.4705 212.112 82.2876C212.294 82.1047 212.543 82.002 212.801 82.002V82.002C213.061 82.0019 213.31 82.1043 213.495 82.2869C213.68 82.4694 213.785 82.7175 213.788 82.9772V92.107C213.785 92.3667 213.68 92.6148 213.495 92.7974C213.31 92.9799 213.061 93.0823 212.801 93.0823V93.0823Z" fill="white" stroke="#2E353A" stroke-width="0.916642" stroke-linecap="round" stroke-linejoin="round"/>
<path d="M212.801 105.643C212.543 105.643 212.294 105.54 212.112 105.357C211.929 105.175 211.826 104.927 211.826 104.668V95.5381C211.826 95.2794 211.929 95.0313 212.112 94.8485C212.294 94.6656 212.543 94.5628 212.801 94.5628V94.5628C213.061 94.5628 213.31 94.6652 213.495 94.8477C213.68 95.0303 213.785 95.2783 213.788 95.5381V104.668C213.785 104.928 213.68 105.176 213.495 105.358C213.31 105.541 213.061 105.643 212.801 105.643V105.643Z" fill="white" stroke="#2E353A" stroke-width="0.916642" stroke-linecap="round" stroke-linejoin="round"/>
<path d="M212.801 118.227C212.543 118.227 212.294 118.125 212.112 117.942C211.929 117.759 211.826 117.511 211.826 117.252V108.122C211.826 107.994 211.851 107.868 211.9 107.749C211.949 107.631 212.021 107.523 212.112 107.433C212.202 107.342 212.31 107.27 212.428 107.221C212.546 107.172 212.673 107.147 212.801 107.147V107.147C213.061 107.147 213.31 107.25 213.495 107.432C213.68 107.615 213.785 107.863 213.788 108.122V117.252C213.785 117.512 213.68 117.76 213.495 117.943C213.31 118.125 213.061 118.228 212.801 118.227V118.227Z" fill="white" stroke="#2E353A" stroke-width="0.916642" stroke-linecap="round" stroke-linejoin="round"/>
<path d="M241.424 77.7837H26.1156L19.3476 59.0775H256.288L241.424 77.7837Z" fill="#2E353A" stroke="#2E353A" stroke-width="0.887535" stroke-linecap="round" stroke-linejoin="round"/>
<path d="M235.937 77.7837H20.6284L13.8604 59.0775H250.813L235.937 77.7837Z" fill="white" stroke="#2E353A" stroke-width="0.887535" stroke-linecap="round" stroke-linejoin="round"/>
<path d="M60.5904 374.92H42.9771L48.2998 7.24786H51.4254L60.5904 20.2552V374.92Z" fill="#2E353A" stroke="#2E353A" stroke-width="0.887535" stroke-linecap="round" stroke-linejoin="round"/>
<path d="M57.4531 374.92H39.8397V20.2552L48.2998 7.24786L57.4531 20.2552V374.92Z" fill="white" stroke="#2E353A" stroke-width="0.887535" stroke-linecap="round" stroke-linejoin="round"/>
<path d="M42.9771 374.92V352.301" stroke="#2E353A" stroke-width="0.887535" stroke-linecap="round" stroke-linejoin="round"/>
<path d="M46.0555 374.92V292.305" stroke="#2E353A" stroke-width="0.887535" stroke-linecap="round" stroke-linejoin="round"/>
<path d="M42.9771 348.87V340.645" stroke="#2E353A" stroke-width="0.887535" stroke-linecap="round" stroke-linejoin="round"/>
<path d="M51.7779 229.301V221.076" stroke="#2E353A" stroke-width="0.887535" stroke-linecap="round" stroke-linejoin="round"/>
<path d="M42.9771 23.7685V15.5435" stroke="#2E353A" stroke-width="0.887535" stroke-linecap="round" stroke-linejoin="round"/>
<path d="M42.9771 34.6021V26.377" stroke="#2E353A" stroke-width="0.887535" stroke-linecap="round" stroke-linejoin="round"/>
<path d="M51.7779 281.448V238.537" stroke="#2E353A" stroke-width="0.887535" stroke-linecap="round" stroke-linejoin="round"/>
<path d="M15.5876 62.9786H21.7564" stroke="#2E353A" stroke-width="0.887535" stroke-linecap="round" stroke-linejoin="round"/>
<path d="M18.3254 66.0688H33.0717" stroke="#2E353A" stroke-width="0.887535" stroke-linecap="round" stroke-linejoin="round"/>
<path d="M73.1395 66.0688H87.8741" stroke="#2E353A" stroke-width="0.887535" stroke-linecap="round" stroke-linejoin="round"/>
<path d="M80.5068 69.4999H85.6886" stroke="#2E353A" stroke-width="0.887535" stroke-linecap="round" stroke-linejoin="round"/>
<path d="M106.674 69.4999H137.436" stroke="#2E353A" stroke-width="0.887535" stroke-linecap="round" stroke-linejoin="round"/>
<path d="M242.858 69.4999H237.711" stroke="#2E353A" stroke-width="0.887535" stroke-linecap="round" stroke-linejoin="round"/>
<path d="M240.449 71.8969H222.977" stroke="#2E353A" stroke-width="0.887535" stroke-linecap="round" stroke-linejoin="round"/>
<path d="M4.08427 380.36H15.6111C15.6111 380.36 -5.3158 361.701 4.08427 363.605C13.4843 365.508 21.7094 372.135 21.7094 372.135C21.7094 372.135 10.5938 361.678 18.2784 363.581C25.9629 365.485 25.6457 368.634 25.6457 368.634C25.6457 368.634 26.2449 346.038 33.0247 352.278C36.9606 355.719 39.3905 360.566 39.7928 365.778C39.7928 365.778 54.2807 347.859 57.4179 348.846C60.5552 349.833 60.5552 360.796 60.5552 360.796C60.5552 360.796 84.8896 340.962 80.4716 352.278C76.0536 363.593 73.1043 367.846 73.1043 367.846C73.1043 367.846 84.5254 357.753 83.0684 363.581C82.4462 366.394 81.5772 369.146 80.4716 371.806C80.4716 371.806 97.6502 377.188 95.1122 377.176C92.5742 377.164 87.8389 380.431 87.8389 380.431C87.8389 380.431 116.85 375.731 111.339 380.431C105.828 385.131 60.5317 384.344 60.5317 384.344C60.5317 384.344 82.6571 389.76 73.1395 389.76C63.622 389.76 48.6524 385.836 48.6524 385.836C48.6524 385.836 26.3272 390.536 18.3254 389.76C10.3236 388.985 33.0717 385.836 33.0717 385.836C33.0717 385.836 -10.2156 385.883 4.08427 380.36Z" fill="#2E353A" stroke="#2E353A" stroke-width="0.916642" stroke-linecap="round" stroke-linejoin="round"/>
</svg>
